G04 #@! TF.GenerationSoftware,KiCad,Pcbnew,9.0.0*
G04 #@! TF.CreationDate,2025-03-17T23:12:28+00:00*
G04 #@! TF.ProjectId,EconetModuleV1,45636f6e-6574-44d6-9f64-756c6556312e,01b*
G04 #@! TF.SameCoordinates,Original*
G04 #@! TF.FileFunction,Legend,Top*
G04 #@! TF.FilePolarity,Positive*
%FSLAX46Y46*%
G04 Gerber Fmt 4.6, Leading zero omitted, Abs format (unit mm)*
G04 Created by KiCad (PCBNEW 9.0.0) date 2025-03-17 23:12:28*
%MOMM*%
%LPD*%
G01*
G04 APERTURE LIST*
%ADD10C,0.150000*%
%ADD11C,0.200000*%
%ADD12C,0.120000*%
G04 APERTURE END LIST*
D10*
X178848333Y-109310819D02*
X178515000Y-108834628D01*
X178276905Y-109310819D02*
X178276905Y-108310819D01*
X178276905Y-108310819D02*
X178657857Y-108310819D01*
X178657857Y-108310819D02*
X178753095Y-108358438D01*
X178753095Y-108358438D02*
X178800714Y-108406057D01*
X178800714Y-108406057D02*
X178848333Y-108501295D01*
X178848333Y-108501295D02*
X178848333Y-108644152D01*
X178848333Y-108644152D02*
X178800714Y-108739390D01*
X178800714Y-108739390D02*
X178753095Y-108787009D01*
X178753095Y-108787009D02*
X178657857Y-108834628D01*
X178657857Y-108834628D02*
X178276905Y-108834628D01*
X179181667Y-108310819D02*
X179848333Y-109310819D01*
X179848333Y-108310819D02*
X179181667Y-109310819D01*
X178253095Y-103611819D02*
X178824523Y-103611819D01*
X178538809Y-104611819D02*
X178538809Y-103611819D01*
X179062619Y-103611819D02*
X179729285Y-104611819D01*
X179729285Y-103611819D02*
X179062619Y-104611819D01*
X178673761Y-99055580D02*
X178626142Y-99103200D01*
X178626142Y-99103200D02*
X178483285Y-99150819D01*
X178483285Y-99150819D02*
X178388047Y-99150819D01*
X178388047Y-99150819D02*
X178245190Y-99103200D01*
X178245190Y-99103200D02*
X178149952Y-99007961D01*
X178149952Y-99007961D02*
X178102333Y-98912723D01*
X178102333Y-98912723D02*
X178054714Y-98722247D01*
X178054714Y-98722247D02*
X178054714Y-98579390D01*
X178054714Y-98579390D02*
X178102333Y-98388914D01*
X178102333Y-98388914D02*
X178149952Y-98293676D01*
X178149952Y-98293676D02*
X178245190Y-98198438D01*
X178245190Y-98198438D02*
X178388047Y-98150819D01*
X178388047Y-98150819D02*
X178483285Y-98150819D01*
X178483285Y-98150819D02*
X178626142Y-98198438D01*
X178626142Y-98198438D02*
X178673761Y-98246057D01*
X179578523Y-99150819D02*
X179102333Y-99150819D01*
X179102333Y-99150819D02*
X179102333Y-98150819D01*
X179911857Y-99150819D02*
X179911857Y-98150819D01*
X180483285Y-99150819D02*
X180054714Y-98579390D01*
X180483285Y-98150819D02*
X179911857Y-98722247D01*
D11*
X164387142Y-83428528D02*
X164387142Y-81928528D01*
X164387142Y-81928528D02*
X164887142Y-82999957D01*
X164887142Y-82999957D02*
X165387142Y-81928528D01*
X165387142Y-81928528D02*
X165387142Y-83428528D01*
X166744286Y-83428528D02*
X166744286Y-82642814D01*
X166744286Y-82642814D02*
X166672857Y-82499957D01*
X166672857Y-82499957D02*
X166530000Y-82428528D01*
X166530000Y-82428528D02*
X166244286Y-82428528D01*
X166244286Y-82428528D02*
X166101428Y-82499957D01*
X166744286Y-83357100D02*
X166601428Y-83428528D01*
X166601428Y-83428528D02*
X166244286Y-83428528D01*
X166244286Y-83428528D02*
X166101428Y-83357100D01*
X166101428Y-83357100D02*
X166030000Y-83214242D01*
X166030000Y-83214242D02*
X166030000Y-83071385D01*
X166030000Y-83071385D02*
X166101428Y-82928528D01*
X166101428Y-82928528D02*
X166244286Y-82857100D01*
X166244286Y-82857100D02*
X166601428Y-82857100D01*
X166601428Y-82857100D02*
X166744286Y-82785671D01*
X167387143Y-83357100D02*
X167530000Y-83428528D01*
X167530000Y-83428528D02*
X167815714Y-83428528D01*
X167815714Y-83428528D02*
X167958571Y-83357100D01*
X167958571Y-83357100D02*
X168030000Y-83214242D01*
X168030000Y-83214242D02*
X168030000Y-83142814D01*
X168030000Y-83142814D02*
X167958571Y-82999957D01*
X167958571Y-82999957D02*
X167815714Y-82928528D01*
X167815714Y-82928528D02*
X167601429Y-82928528D01*
X167601429Y-82928528D02*
X167458571Y-82857100D01*
X167458571Y-82857100D02*
X167387143Y-82714242D01*
X167387143Y-82714242D02*
X167387143Y-82642814D01*
X167387143Y-82642814D02*
X167458571Y-82499957D01*
X167458571Y-82499957D02*
X167601429Y-82428528D01*
X167601429Y-82428528D02*
X167815714Y-82428528D01*
X167815714Y-82428528D02*
X167958571Y-82499957D01*
X168458572Y-82428528D02*
X169030000Y-82428528D01*
X168672857Y-81928528D02*
X168672857Y-83214242D01*
X168672857Y-83214242D02*
X168744286Y-83357100D01*
X168744286Y-83357100D02*
X168887143Y-83428528D01*
X168887143Y-83428528D02*
X169030000Y-83428528D01*
X170101429Y-83357100D02*
X169958572Y-83428528D01*
X169958572Y-83428528D02*
X169672858Y-83428528D01*
X169672858Y-83428528D02*
X169530000Y-83357100D01*
X169530000Y-83357100D02*
X169458572Y-83214242D01*
X169458572Y-83214242D02*
X169458572Y-82642814D01*
X169458572Y-82642814D02*
X169530000Y-82499957D01*
X169530000Y-82499957D02*
X169672858Y-82428528D01*
X169672858Y-82428528D02*
X169958572Y-82428528D01*
X169958572Y-82428528D02*
X170101429Y-82499957D01*
X170101429Y-82499957D02*
X170172858Y-82642814D01*
X170172858Y-82642814D02*
X170172858Y-82785671D01*
X170172858Y-82785671D02*
X169458572Y-82928528D01*
X170815714Y-83428528D02*
X170815714Y-82428528D01*
X170815714Y-82714242D02*
X170887143Y-82571385D01*
X170887143Y-82571385D02*
X170958572Y-82499957D01*
X170958572Y-82499957D02*
X171101429Y-82428528D01*
X171101429Y-82428528D02*
X171244286Y-82428528D01*
X172887142Y-82642814D02*
X173387142Y-82642814D01*
X173601428Y-83428528D02*
X172887142Y-83428528D01*
X172887142Y-83428528D02*
X172887142Y-81928528D01*
X172887142Y-81928528D02*
X173601428Y-81928528D01*
X174887143Y-83357100D02*
X174744285Y-83428528D01*
X174744285Y-83428528D02*
X174458571Y-83428528D01*
X174458571Y-83428528D02*
X174315714Y-83357100D01*
X174315714Y-83357100D02*
X174244285Y-83285671D01*
X174244285Y-83285671D02*
X174172857Y-83142814D01*
X174172857Y-83142814D02*
X174172857Y-82714242D01*
X174172857Y-82714242D02*
X174244285Y-82571385D01*
X174244285Y-82571385D02*
X174315714Y-82499957D01*
X174315714Y-82499957D02*
X174458571Y-82428528D01*
X174458571Y-82428528D02*
X174744285Y-82428528D01*
X174744285Y-82428528D02*
X174887143Y-82499957D01*
X175744285Y-83428528D02*
X175601428Y-83357100D01*
X175601428Y-83357100D02*
X175529999Y-83285671D01*
X175529999Y-83285671D02*
X175458571Y-83142814D01*
X175458571Y-83142814D02*
X175458571Y-82714242D01*
X175458571Y-82714242D02*
X175529999Y-82571385D01*
X175529999Y-82571385D02*
X175601428Y-82499957D01*
X175601428Y-82499957D02*
X175744285Y-82428528D01*
X175744285Y-82428528D02*
X175958571Y-82428528D01*
X175958571Y-82428528D02*
X176101428Y-82499957D01*
X176101428Y-82499957D02*
X176172857Y-82571385D01*
X176172857Y-82571385D02*
X176244285Y-82714242D01*
X176244285Y-82714242D02*
X176244285Y-83142814D01*
X176244285Y-83142814D02*
X176172857Y-83285671D01*
X176172857Y-83285671D02*
X176101428Y-83357100D01*
X176101428Y-83357100D02*
X175958571Y-83428528D01*
X175958571Y-83428528D02*
X175744285Y-83428528D01*
X176887142Y-82428528D02*
X176887142Y-83428528D01*
X176887142Y-82571385D02*
X176958571Y-82499957D01*
X176958571Y-82499957D02*
X177101428Y-82428528D01*
X177101428Y-82428528D02*
X177315714Y-82428528D01*
X177315714Y-82428528D02*
X177458571Y-82499957D01*
X177458571Y-82499957D02*
X177530000Y-82642814D01*
X177530000Y-82642814D02*
X177530000Y-83428528D01*
X178815714Y-83357100D02*
X178672857Y-83428528D01*
X178672857Y-83428528D02*
X178387143Y-83428528D01*
X178387143Y-83428528D02*
X178244285Y-83357100D01*
X178244285Y-83357100D02*
X178172857Y-83214242D01*
X178172857Y-83214242D02*
X178172857Y-82642814D01*
X178172857Y-82642814D02*
X178244285Y-82499957D01*
X178244285Y-82499957D02*
X178387143Y-82428528D01*
X178387143Y-82428528D02*
X178672857Y-82428528D01*
X178672857Y-82428528D02*
X178815714Y-82499957D01*
X178815714Y-82499957D02*
X178887143Y-82642814D01*
X178887143Y-82642814D02*
X178887143Y-82785671D01*
X178887143Y-82785671D02*
X178172857Y-82928528D01*
X179315714Y-82428528D02*
X179887142Y-82428528D01*
X179529999Y-81928528D02*
X179529999Y-83214242D01*
X179529999Y-83214242D02*
X179601428Y-83357100D01*
X179601428Y-83357100D02*
X179744285Y-83428528D01*
X179744285Y-83428528D02*
X179887142Y-83428528D01*
X141622142Y-131396213D02*
X141479285Y-131324784D01*
X141479285Y-131324784D02*
X141193571Y-131324784D01*
X141193571Y-131324784D02*
X141050714Y-131396213D01*
X141050714Y-131396213D02*
X140907856Y-131539070D01*
X140907856Y-131539070D02*
X140836428Y-131681927D01*
X140836428Y-131681927D02*
X140836428Y-131967642D01*
X140836428Y-131967642D02*
X140907856Y-132110499D01*
X140907856Y-132110499D02*
X141050714Y-132253356D01*
X141050714Y-132253356D02*
X141193571Y-132324784D01*
X141193571Y-132324784D02*
X141479285Y-132324784D01*
X141479285Y-132324784D02*
X141622142Y-132253356D01*
X141336428Y-130824784D02*
X140979285Y-130896213D01*
X140979285Y-130896213D02*
X140622142Y-131110499D01*
X140622142Y-131110499D02*
X140407856Y-131467642D01*
X140407856Y-131467642D02*
X140336428Y-131824784D01*
X140336428Y-131824784D02*
X140407856Y-132181927D01*
X140407856Y-132181927D02*
X140622142Y-132539070D01*
X140622142Y-132539070D02*
X140979285Y-132753356D01*
X140979285Y-132753356D02*
X141336428Y-132824784D01*
X141336428Y-132824784D02*
X141693571Y-132753356D01*
X141693571Y-132753356D02*
X142050714Y-132539070D01*
X142050714Y-132539070D02*
X142264999Y-132181927D01*
X142264999Y-132181927D02*
X142336428Y-131824784D01*
X142336428Y-131824784D02*
X142264999Y-131467642D01*
X142264999Y-131467642D02*
X142050714Y-131110499D01*
X142050714Y-131110499D02*
X141693571Y-130896213D01*
X141693571Y-130896213D02*
X141336428Y-130824784D01*
X144122142Y-132539070D02*
X144122142Y-131039070D01*
X144979285Y-132539070D02*
X144336428Y-131681927D01*
X144979285Y-131039070D02*
X144122142Y-131896213D01*
X146193571Y-132467642D02*
X146050714Y-132539070D01*
X146050714Y-132539070D02*
X145765000Y-132539070D01*
X145765000Y-132539070D02*
X145622142Y-132467642D01*
X145622142Y-132467642D02*
X145550714Y-132324784D01*
X145550714Y-132324784D02*
X145550714Y-131753356D01*
X145550714Y-131753356D02*
X145622142Y-131610499D01*
X145622142Y-131610499D02*
X145765000Y-131539070D01*
X145765000Y-131539070D02*
X146050714Y-131539070D01*
X146050714Y-131539070D02*
X146193571Y-131610499D01*
X146193571Y-131610499D02*
X146265000Y-131753356D01*
X146265000Y-131753356D02*
X146265000Y-131896213D01*
X146265000Y-131896213D02*
X145550714Y-132039070D01*
X146907856Y-131539070D02*
X146907856Y-132539070D01*
X146907856Y-131681927D02*
X146979285Y-131610499D01*
X146979285Y-131610499D02*
X147122142Y-131539070D01*
X147122142Y-131539070D02*
X147336428Y-131539070D01*
X147336428Y-131539070D02*
X147479285Y-131610499D01*
X147479285Y-131610499D02*
X147550714Y-131753356D01*
X147550714Y-131753356D02*
X147550714Y-132539070D01*
X150122142Y-132539070D02*
X149407856Y-132539070D01*
X149407856Y-132539070D02*
X149407856Y-131039070D01*
X150836428Y-132539070D02*
X150693571Y-132467642D01*
X150693571Y-132467642D02*
X150622142Y-132396213D01*
X150622142Y-132396213D02*
X150550714Y-132253356D01*
X150550714Y-132253356D02*
X150550714Y-131824784D01*
X150550714Y-131824784D02*
X150622142Y-131681927D01*
X150622142Y-131681927D02*
X150693571Y-131610499D01*
X150693571Y-131610499D02*
X150836428Y-131539070D01*
X150836428Y-131539070D02*
X151050714Y-131539070D01*
X151050714Y-131539070D02*
X151193571Y-131610499D01*
X151193571Y-131610499D02*
X151265000Y-131681927D01*
X151265000Y-131681927D02*
X151336428Y-131824784D01*
X151336428Y-131824784D02*
X151336428Y-132253356D01*
X151336428Y-132253356D02*
X151265000Y-132396213D01*
X151265000Y-132396213D02*
X151193571Y-132467642D01*
X151193571Y-132467642D02*
X151050714Y-132539070D01*
X151050714Y-132539070D02*
X150836428Y-132539070D01*
X151836428Y-131539070D02*
X152122143Y-132539070D01*
X152122143Y-132539070D02*
X152407857Y-131824784D01*
X152407857Y-131824784D02*
X152693571Y-132539070D01*
X152693571Y-132539070D02*
X152979285Y-131539070D01*
X154122143Y-132467642D02*
X153979286Y-132539070D01*
X153979286Y-132539070D02*
X153693572Y-132539070D01*
X153693572Y-132539070D02*
X153550714Y-132467642D01*
X153550714Y-132467642D02*
X153479286Y-132324784D01*
X153479286Y-132324784D02*
X153479286Y-131753356D01*
X153479286Y-131753356D02*
X153550714Y-131610499D01*
X153550714Y-131610499D02*
X153693572Y-131539070D01*
X153693572Y-131539070D02*
X153979286Y-131539070D01*
X153979286Y-131539070D02*
X154122143Y-131610499D01*
X154122143Y-131610499D02*
X154193572Y-131753356D01*
X154193572Y-131753356D02*
X154193572Y-131896213D01*
X154193572Y-131896213D02*
X153479286Y-132039070D01*
X140872143Y-134953986D02*
X140872143Y-133453986D01*
X140872143Y-133453986D02*
X141372143Y-134525415D01*
X141372143Y-134525415D02*
X141872143Y-133453986D01*
X141872143Y-133453986D02*
X141872143Y-134953986D01*
X143229287Y-134953986D02*
X143229287Y-134168272D01*
X143229287Y-134168272D02*
X143157858Y-134025415D01*
X143157858Y-134025415D02*
X143015001Y-133953986D01*
X143015001Y-133953986D02*
X142729287Y-133953986D01*
X142729287Y-133953986D02*
X142586429Y-134025415D01*
X143229287Y-134882558D02*
X143086429Y-134953986D01*
X143086429Y-134953986D02*
X142729287Y-134953986D01*
X142729287Y-134953986D02*
X142586429Y-134882558D01*
X142586429Y-134882558D02*
X142515001Y-134739700D01*
X142515001Y-134739700D02*
X142515001Y-134596843D01*
X142515001Y-134596843D02*
X142586429Y-134453986D01*
X142586429Y-134453986D02*
X142729287Y-134382558D01*
X142729287Y-134382558D02*
X143086429Y-134382558D01*
X143086429Y-134382558D02*
X143229287Y-134311129D01*
X143943572Y-134953986D02*
X143943572Y-133953986D01*
X143943572Y-134239700D02*
X144015001Y-134096843D01*
X144015001Y-134096843D02*
X144086430Y-134025415D01*
X144086430Y-134025415D02*
X144229287Y-133953986D01*
X144229287Y-133953986D02*
X144372144Y-133953986D01*
X145515001Y-134882558D02*
X145372143Y-134953986D01*
X145372143Y-134953986D02*
X145086429Y-134953986D01*
X145086429Y-134953986D02*
X144943572Y-134882558D01*
X144943572Y-134882558D02*
X144872143Y-134811129D01*
X144872143Y-134811129D02*
X144800715Y-134668272D01*
X144800715Y-134668272D02*
X144800715Y-134239700D01*
X144800715Y-134239700D02*
X144872143Y-134096843D01*
X144872143Y-134096843D02*
X144943572Y-134025415D01*
X144943572Y-134025415D02*
X145086429Y-133953986D01*
X145086429Y-133953986D02*
X145372143Y-133953986D01*
X145372143Y-133953986D02*
X145515001Y-134025415D01*
X146157857Y-134953986D02*
X146157857Y-133453986D01*
X146800715Y-134953986D02*
X146800715Y-134168272D01*
X146800715Y-134168272D02*
X146729286Y-134025415D01*
X146729286Y-134025415D02*
X146586429Y-133953986D01*
X146586429Y-133953986D02*
X146372143Y-133953986D01*
X146372143Y-133953986D02*
X146229286Y-134025415D01*
X146229286Y-134025415D02*
X146157857Y-134096843D01*
X148586429Y-133596843D02*
X148657857Y-133525415D01*
X148657857Y-133525415D02*
X148800715Y-133453986D01*
X148800715Y-133453986D02*
X149157857Y-133453986D01*
X149157857Y-133453986D02*
X149300715Y-133525415D01*
X149300715Y-133525415D02*
X149372143Y-133596843D01*
X149372143Y-133596843D02*
X149443572Y-133739700D01*
X149443572Y-133739700D02*
X149443572Y-133882558D01*
X149443572Y-133882558D02*
X149372143Y-134096843D01*
X149372143Y-134096843D02*
X148515000Y-134953986D01*
X148515000Y-134953986D02*
X149443572Y-134953986D01*
X150372143Y-133453986D02*
X150515000Y-133453986D01*
X150515000Y-133453986D02*
X150657857Y-133525415D01*
X150657857Y-133525415D02*
X150729286Y-133596843D01*
X150729286Y-133596843D02*
X150800714Y-133739700D01*
X150800714Y-133739700D02*
X150872143Y-134025415D01*
X150872143Y-134025415D02*
X150872143Y-134382558D01*
X150872143Y-134382558D02*
X150800714Y-134668272D01*
X150800714Y-134668272D02*
X150729286Y-134811129D01*
X150729286Y-134811129D02*
X150657857Y-134882558D01*
X150657857Y-134882558D02*
X150515000Y-134953986D01*
X150515000Y-134953986D02*
X150372143Y-134953986D01*
X150372143Y-134953986D02*
X150229286Y-134882558D01*
X150229286Y-134882558D02*
X150157857Y-134811129D01*
X150157857Y-134811129D02*
X150086428Y-134668272D01*
X150086428Y-134668272D02*
X150015000Y-134382558D01*
X150015000Y-134382558D02*
X150015000Y-134025415D01*
X150015000Y-134025415D02*
X150086428Y-133739700D01*
X150086428Y-133739700D02*
X150157857Y-133596843D01*
X150157857Y-133596843D02*
X150229286Y-133525415D01*
X150229286Y-133525415D02*
X150372143Y-133453986D01*
X151443571Y-133596843D02*
X151514999Y-133525415D01*
X151514999Y-133525415D02*
X151657857Y-133453986D01*
X151657857Y-133453986D02*
X152014999Y-133453986D01*
X152014999Y-133453986D02*
X152157857Y-133525415D01*
X152157857Y-133525415D02*
X152229285Y-133596843D01*
X152229285Y-133596843D02*
X152300714Y-133739700D01*
X152300714Y-133739700D02*
X152300714Y-133882558D01*
X152300714Y-133882558D02*
X152229285Y-134096843D01*
X152229285Y-134096843D02*
X151372142Y-134953986D01*
X151372142Y-134953986D02*
X152300714Y-134953986D01*
X153657856Y-133453986D02*
X152943570Y-133453986D01*
X152943570Y-133453986D02*
X152872142Y-134168272D01*
X152872142Y-134168272D02*
X152943570Y-134096843D01*
X152943570Y-134096843D02*
X153086428Y-134025415D01*
X153086428Y-134025415D02*
X153443570Y-134025415D01*
X153443570Y-134025415D02*
X153586428Y-134096843D01*
X153586428Y-134096843D02*
X153657856Y-134168272D01*
X153657856Y-134168272D02*
X153729285Y-134311129D01*
X153729285Y-134311129D02*
X153729285Y-134668272D01*
X153729285Y-134668272D02*
X153657856Y-134811129D01*
X153657856Y-134811129D02*
X153586428Y-134882558D01*
X153586428Y-134882558D02*
X153443570Y-134953986D01*
X153443570Y-134953986D02*
X153086428Y-134953986D01*
X153086428Y-134953986D02*
X152943570Y-134882558D01*
X152943570Y-134882558D02*
X152872142Y-134811129D01*
X174506429Y-134563528D02*
X174006429Y-133849242D01*
X173649286Y-134563528D02*
X173649286Y-133063528D01*
X173649286Y-133063528D02*
X174220715Y-133063528D01*
X174220715Y-133063528D02*
X174363572Y-133134957D01*
X174363572Y-133134957D02*
X174435001Y-133206385D01*
X174435001Y-133206385D02*
X174506429Y-133349242D01*
X174506429Y-133349242D02*
X174506429Y-133563528D01*
X174506429Y-133563528D02*
X174435001Y-133706385D01*
X174435001Y-133706385D02*
X174363572Y-133777814D01*
X174363572Y-133777814D02*
X174220715Y-133849242D01*
X174220715Y-133849242D02*
X173649286Y-133849242D01*
X175720715Y-134492100D02*
X175577858Y-134563528D01*
X175577858Y-134563528D02*
X175292144Y-134563528D01*
X175292144Y-134563528D02*
X175149286Y-134492100D01*
X175149286Y-134492100D02*
X175077858Y-134349242D01*
X175077858Y-134349242D02*
X175077858Y-133777814D01*
X175077858Y-133777814D02*
X175149286Y-133634957D01*
X175149286Y-133634957D02*
X175292144Y-133563528D01*
X175292144Y-133563528D02*
X175577858Y-133563528D01*
X175577858Y-133563528D02*
X175720715Y-133634957D01*
X175720715Y-133634957D02*
X175792144Y-133777814D01*
X175792144Y-133777814D02*
X175792144Y-133920671D01*
X175792144Y-133920671D02*
X175077858Y-134063528D01*
X176292143Y-133563528D02*
X176649286Y-134563528D01*
X176649286Y-134563528D02*
X177006429Y-133563528D01*
X179006429Y-133063528D02*
X179149286Y-133063528D01*
X179149286Y-133063528D02*
X179292143Y-133134957D01*
X179292143Y-133134957D02*
X179363572Y-133206385D01*
X179363572Y-133206385D02*
X179435000Y-133349242D01*
X179435000Y-133349242D02*
X179506429Y-133634957D01*
X179506429Y-133634957D02*
X179506429Y-133992100D01*
X179506429Y-133992100D02*
X179435000Y-134277814D01*
X179435000Y-134277814D02*
X179363572Y-134420671D01*
X179363572Y-134420671D02*
X179292143Y-134492100D01*
X179292143Y-134492100D02*
X179149286Y-134563528D01*
X179149286Y-134563528D02*
X179006429Y-134563528D01*
X179006429Y-134563528D02*
X178863572Y-134492100D01*
X178863572Y-134492100D02*
X178792143Y-134420671D01*
X178792143Y-134420671D02*
X178720714Y-134277814D01*
X178720714Y-134277814D02*
X178649286Y-133992100D01*
X178649286Y-133992100D02*
X178649286Y-133634957D01*
X178649286Y-133634957D02*
X178720714Y-133349242D01*
X178720714Y-133349242D02*
X178792143Y-133206385D01*
X178792143Y-133206385D02*
X178863572Y-133134957D01*
X178863572Y-133134957D02*
X179006429Y-133063528D01*
X180935000Y-134563528D02*
X180077857Y-134563528D01*
X180506428Y-134563528D02*
X180506428Y-133063528D01*
X180506428Y-133063528D02*
X180363571Y-133277814D01*
X180363571Y-133277814D02*
X180220714Y-133420671D01*
X180220714Y-133420671D02*
X180077857Y-133492100D01*
X181577856Y-134563528D02*
X181577856Y-133063528D01*
X181577856Y-133634957D02*
X181720714Y-133563528D01*
X181720714Y-133563528D02*
X182006428Y-133563528D01*
X182006428Y-133563528D02*
X182149285Y-133634957D01*
X182149285Y-133634957D02*
X182220714Y-133706385D01*
X182220714Y-133706385D02*
X182292142Y-133849242D01*
X182292142Y-133849242D02*
X182292142Y-134277814D01*
X182292142Y-134277814D02*
X182220714Y-134420671D01*
X182220714Y-134420671D02*
X182149285Y-134492100D01*
X182149285Y-134492100D02*
X182006428Y-134563528D01*
X182006428Y-134563528D02*
X181720714Y-134563528D01*
X181720714Y-134563528D02*
X181577856Y-134492100D01*
X168458571Y-89018528D02*
X168458571Y-87518528D01*
X168458571Y-87518528D02*
X168958571Y-88589957D01*
X168958571Y-88589957D02*
X169458571Y-87518528D01*
X169458571Y-87518528D02*
X169458571Y-89018528D01*
X170387143Y-89018528D02*
X170244286Y-88947100D01*
X170244286Y-88947100D02*
X170172857Y-88875671D01*
X170172857Y-88875671D02*
X170101429Y-88732814D01*
X170101429Y-88732814D02*
X170101429Y-88304242D01*
X170101429Y-88304242D02*
X170172857Y-88161385D01*
X170172857Y-88161385D02*
X170244286Y-88089957D01*
X170244286Y-88089957D02*
X170387143Y-88018528D01*
X170387143Y-88018528D02*
X170601429Y-88018528D01*
X170601429Y-88018528D02*
X170744286Y-88089957D01*
X170744286Y-88089957D02*
X170815715Y-88161385D01*
X170815715Y-88161385D02*
X170887143Y-88304242D01*
X170887143Y-88304242D02*
X170887143Y-88732814D01*
X170887143Y-88732814D02*
X170815715Y-88875671D01*
X170815715Y-88875671D02*
X170744286Y-88947100D01*
X170744286Y-88947100D02*
X170601429Y-89018528D01*
X170601429Y-89018528D02*
X170387143Y-89018528D01*
X172172858Y-89018528D02*
X172172858Y-87518528D01*
X172172858Y-88947100D02*
X172030000Y-89018528D01*
X172030000Y-89018528D02*
X171744286Y-89018528D01*
X171744286Y-89018528D02*
X171601429Y-88947100D01*
X171601429Y-88947100D02*
X171530000Y-88875671D01*
X171530000Y-88875671D02*
X171458572Y-88732814D01*
X171458572Y-88732814D02*
X171458572Y-88304242D01*
X171458572Y-88304242D02*
X171530000Y-88161385D01*
X171530000Y-88161385D02*
X171601429Y-88089957D01*
X171601429Y-88089957D02*
X171744286Y-88018528D01*
X171744286Y-88018528D02*
X172030000Y-88018528D01*
X172030000Y-88018528D02*
X172172858Y-88089957D01*
X173530001Y-88018528D02*
X173530001Y-89018528D01*
X172887143Y-88018528D02*
X172887143Y-88804242D01*
X172887143Y-88804242D02*
X172958572Y-88947100D01*
X172958572Y-88947100D02*
X173101429Y-89018528D01*
X173101429Y-89018528D02*
X173315715Y-89018528D01*
X173315715Y-89018528D02*
X173458572Y-88947100D01*
X173458572Y-88947100D02*
X173530001Y-88875671D01*
X174458572Y-89018528D02*
X174315715Y-88947100D01*
X174315715Y-88947100D02*
X174244286Y-88804242D01*
X174244286Y-88804242D02*
X174244286Y-87518528D01*
X175601429Y-88947100D02*
X175458572Y-89018528D01*
X175458572Y-89018528D02*
X175172858Y-89018528D01*
X175172858Y-89018528D02*
X175030000Y-88947100D01*
X175030000Y-88947100D02*
X174958572Y-88804242D01*
X174958572Y-88804242D02*
X174958572Y-88232814D01*
X174958572Y-88232814D02*
X175030000Y-88089957D01*
X175030000Y-88089957D02*
X175172858Y-88018528D01*
X175172858Y-88018528D02*
X175458572Y-88018528D01*
X175458572Y-88018528D02*
X175601429Y-88089957D01*
X175601429Y-88089957D02*
X175672858Y-88232814D01*
X175672858Y-88232814D02*
X175672858Y-88375671D01*
X175672858Y-88375671D02*
X174958572Y-88518528D01*
D10*
X175859207Y-92750819D02*
X175525874Y-92274628D01*
X175287779Y-92750819D02*
X175287779Y-91750819D01*
X175287779Y-91750819D02*
X175668731Y-91750819D01*
X175668731Y-91750819D02*
X175763969Y-91798438D01*
X175763969Y-91798438D02*
X175811588Y-91846057D01*
X175811588Y-91846057D02*
X175859207Y-91941295D01*
X175859207Y-91941295D02*
X175859207Y-92084152D01*
X175859207Y-92084152D02*
X175811588Y-92179390D01*
X175811588Y-92179390D02*
X175763969Y-92227009D01*
X175763969Y-92227009D02*
X175668731Y-92274628D01*
X175668731Y-92274628D02*
X175287779Y-92274628D01*
X176192541Y-91750819D02*
X176811588Y-91750819D01*
X176811588Y-91750819D02*
X176478255Y-92131771D01*
X176478255Y-92131771D02*
X176621112Y-92131771D01*
X176621112Y-92131771D02*
X176716350Y-92179390D01*
X176716350Y-92179390D02*
X176763969Y-92227009D01*
X176763969Y-92227009D02*
X176811588Y-92322247D01*
X176811588Y-92322247D02*
X176811588Y-92560342D01*
X176811588Y-92560342D02*
X176763969Y-92655580D01*
X176763969Y-92655580D02*
X176716350Y-92703200D01*
X176716350Y-92703200D02*
X176621112Y-92750819D01*
X176621112Y-92750819D02*
X176335398Y-92750819D01*
X176335398Y-92750819D02*
X176240160Y-92703200D01*
X176240160Y-92703200D02*
X176192541Y-92655580D01*
X177668731Y-92084152D02*
X177668731Y-92750819D01*
X177430636Y-91703200D02*
X177192541Y-92417485D01*
X177192541Y-92417485D02*
X177811588Y-92417485D01*
X167593095Y-91846057D02*
X167640714Y-91798438D01*
X167640714Y-91798438D02*
X167735952Y-91750819D01*
X167735952Y-91750819D02*
X167974047Y-91750819D01*
X167974047Y-91750819D02*
X168069285Y-91798438D01*
X168069285Y-91798438D02*
X168116904Y-91846057D01*
X168116904Y-91846057D02*
X168164523Y-91941295D01*
X168164523Y-91941295D02*
X168164523Y-92036533D01*
X168164523Y-92036533D02*
X168116904Y-92179390D01*
X168116904Y-92179390D02*
X167545476Y-92750819D01*
X167545476Y-92750819D02*
X168164523Y-92750819D01*
X168783571Y-91750819D02*
X168878809Y-91750819D01*
X168878809Y-91750819D02*
X168974047Y-91798438D01*
X168974047Y-91798438D02*
X169021666Y-91846057D01*
X169021666Y-91846057D02*
X169069285Y-91941295D01*
X169069285Y-91941295D02*
X169116904Y-92131771D01*
X169116904Y-92131771D02*
X169116904Y-92369866D01*
X169116904Y-92369866D02*
X169069285Y-92560342D01*
X169069285Y-92560342D02*
X169021666Y-92655580D01*
X169021666Y-92655580D02*
X168974047Y-92703200D01*
X168974047Y-92703200D02*
X168878809Y-92750819D01*
X168878809Y-92750819D02*
X168783571Y-92750819D01*
X168783571Y-92750819D02*
X168688333Y-92703200D01*
X168688333Y-92703200D02*
X168640714Y-92655580D01*
X168640714Y-92655580D02*
X168593095Y-92560342D01*
X168593095Y-92560342D02*
X168545476Y-92369866D01*
X168545476Y-92369866D02*
X168545476Y-92131771D01*
X168545476Y-92131771D02*
X168593095Y-91941295D01*
X168593095Y-91941295D02*
X168640714Y-91846057D01*
X168640714Y-91846057D02*
X168688333Y-91798438D01*
X168688333Y-91798438D02*
X168783571Y-91750819D01*
X169545476Y-92750819D02*
X169545476Y-91750819D01*
X170116904Y-92750819D02*
X169688333Y-92179390D01*
X170116904Y-91750819D02*
X169545476Y-92322247D01*
X131382142Y-107355819D02*
X131048809Y-106879628D01*
X130810714Y-107355819D02*
X130810714Y-106355819D01*
X130810714Y-106355819D02*
X131191666Y-106355819D01*
X131191666Y-106355819D02*
X131286904Y-106403438D01*
X131286904Y-106403438D02*
X131334523Y-106451057D01*
X131334523Y-106451057D02*
X131382142Y-106546295D01*
X131382142Y-106546295D02*
X131382142Y-106689152D01*
X131382142Y-106689152D02*
X131334523Y-106784390D01*
X131334523Y-106784390D02*
X131286904Y-106832009D01*
X131286904Y-106832009D02*
X131191666Y-106879628D01*
X131191666Y-106879628D02*
X130810714Y-106879628D01*
X131715476Y-106355819D02*
X132334523Y-106355819D01*
X132334523Y-106355819D02*
X132001190Y-106736771D01*
X132001190Y-106736771D02*
X132144047Y-106736771D01*
X132144047Y-106736771D02*
X132239285Y-106784390D01*
X132239285Y-106784390D02*
X132286904Y-106832009D01*
X132286904Y-106832009D02*
X132334523Y-106927247D01*
X132334523Y-106927247D02*
X132334523Y-107165342D01*
X132334523Y-107165342D02*
X132286904Y-107260580D01*
X132286904Y-107260580D02*
X132239285Y-107308200D01*
X132239285Y-107308200D02*
X132144047Y-107355819D01*
X132144047Y-107355819D02*
X131858333Y-107355819D01*
X131858333Y-107355819D02*
X131763095Y-107308200D01*
X131763095Y-107308200D02*
X131715476Y-107260580D01*
X132667857Y-106355819D02*
X133286904Y-106355819D01*
X133286904Y-106355819D02*
X132953571Y-106736771D01*
X132953571Y-106736771D02*
X133096428Y-106736771D01*
X133096428Y-106736771D02*
X133191666Y-106784390D01*
X133191666Y-106784390D02*
X133239285Y-106832009D01*
X133239285Y-106832009D02*
X133286904Y-106927247D01*
X133286904Y-106927247D02*
X133286904Y-107165342D01*
X133286904Y-107165342D02*
X133239285Y-107260580D01*
X133239285Y-107260580D02*
X133191666Y-107308200D01*
X133191666Y-107308200D02*
X133096428Y-107355819D01*
X133096428Y-107355819D02*
X132810714Y-107355819D01*
X132810714Y-107355819D02*
X132715476Y-107308200D01*
X132715476Y-107308200D02*
X132667857Y-107260580D01*
X131479819Y-115520713D02*
X131479819Y-114901666D01*
X131479819Y-114901666D02*
X131860771Y-115234999D01*
X131860771Y-115234999D02*
X131860771Y-115092142D01*
X131860771Y-115092142D02*
X131908390Y-114996904D01*
X131908390Y-114996904D02*
X131956009Y-114949285D01*
X131956009Y-114949285D02*
X132051247Y-114901666D01*
X132051247Y-114901666D02*
X132289342Y-114901666D01*
X132289342Y-114901666D02*
X132384580Y-114949285D01*
X132384580Y-114949285D02*
X132432200Y-114996904D01*
X132432200Y-114996904D02*
X132479819Y-115092142D01*
X132479819Y-115092142D02*
X132479819Y-115377856D01*
X132479819Y-115377856D02*
X132432200Y-115473094D01*
X132432200Y-115473094D02*
X132384580Y-115520713D01*
X131479819Y-114568332D02*
X131479819Y-113949285D01*
X131479819Y-113949285D02*
X131860771Y-114282618D01*
X131860771Y-114282618D02*
X131860771Y-114139761D01*
X131860771Y-114139761D02*
X131908390Y-114044523D01*
X131908390Y-114044523D02*
X131956009Y-113996904D01*
X131956009Y-113996904D02*
X132051247Y-113949285D01*
X132051247Y-113949285D02*
X132289342Y-113949285D01*
X132289342Y-113949285D02*
X132384580Y-113996904D01*
X132384580Y-113996904D02*
X132432200Y-114044523D01*
X132432200Y-114044523D02*
X132479819Y-114139761D01*
X132479819Y-114139761D02*
X132479819Y-114425475D01*
X132479819Y-114425475D02*
X132432200Y-114520713D01*
X132432200Y-114520713D02*
X132384580Y-114568332D01*
X131479819Y-113330237D02*
X131479819Y-113234999D01*
X131479819Y-113234999D02*
X131527438Y-113139761D01*
X131527438Y-113139761D02*
X131575057Y-113092142D01*
X131575057Y-113092142D02*
X131670295Y-113044523D01*
X131670295Y-113044523D02*
X131860771Y-112996904D01*
X131860771Y-112996904D02*
X132098866Y-112996904D01*
X132098866Y-112996904D02*
X132289342Y-113044523D01*
X132289342Y-113044523D02*
X132384580Y-113092142D01*
X132384580Y-113092142D02*
X132432200Y-113139761D01*
X132432200Y-113139761D02*
X132479819Y-113234999D01*
X132479819Y-113234999D02*
X132479819Y-113330237D01*
X132479819Y-113330237D02*
X132432200Y-113425475D01*
X132432200Y-113425475D02*
X132384580Y-113473094D01*
X132384580Y-113473094D02*
X132289342Y-113520713D01*
X132289342Y-113520713D02*
X132098866Y-113568332D01*
X132098866Y-113568332D02*
X131860771Y-113568332D01*
X131860771Y-113568332D02*
X131670295Y-113520713D01*
X131670295Y-113520713D02*
X131575057Y-113473094D01*
X131575057Y-113473094D02*
X131527438Y-113425475D01*
X131527438Y-113425475D02*
X131479819Y-113330237D01*
X132479819Y-111996904D02*
X132003628Y-112330237D01*
X132479819Y-112568332D02*
X131479819Y-112568332D01*
X131479819Y-112568332D02*
X131479819Y-112187380D01*
X131479819Y-112187380D02*
X131527438Y-112092142D01*
X131527438Y-112092142D02*
X131575057Y-112044523D01*
X131575057Y-112044523D02*
X131670295Y-111996904D01*
X131670295Y-111996904D02*
X131813152Y-111996904D01*
X131813152Y-111996904D02*
X131908390Y-112044523D01*
X131908390Y-112044523D02*
X131956009Y-112092142D01*
X131956009Y-112092142D02*
X132003628Y-112187380D01*
X132003628Y-112187380D02*
X132003628Y-112568332D01*
X135954142Y-107736819D02*
X135620809Y-107260628D01*
X135382714Y-107736819D02*
X135382714Y-106736819D01*
X135382714Y-106736819D02*
X135763666Y-106736819D01*
X135763666Y-106736819D02*
X135858904Y-106784438D01*
X135858904Y-106784438D02*
X135906523Y-106832057D01*
X135906523Y-106832057D02*
X135954142Y-106927295D01*
X135954142Y-106927295D02*
X135954142Y-107070152D01*
X135954142Y-107070152D02*
X135906523Y-107165390D01*
X135906523Y-107165390D02*
X135858904Y-107213009D01*
X135858904Y-107213009D02*
X135763666Y-107260628D01*
X135763666Y-107260628D02*
X135382714Y-107260628D01*
X136287476Y-106736819D02*
X136906523Y-106736819D01*
X136906523Y-106736819D02*
X136573190Y-107117771D01*
X136573190Y-107117771D02*
X136716047Y-107117771D01*
X136716047Y-107117771D02*
X136811285Y-107165390D01*
X136811285Y-107165390D02*
X136858904Y-107213009D01*
X136858904Y-107213009D02*
X136906523Y-107308247D01*
X136906523Y-107308247D02*
X136906523Y-107546342D01*
X136906523Y-107546342D02*
X136858904Y-107641580D01*
X136858904Y-107641580D02*
X136811285Y-107689200D01*
X136811285Y-107689200D02*
X136716047Y-107736819D01*
X136716047Y-107736819D02*
X136430333Y-107736819D01*
X136430333Y-107736819D02*
X136335095Y-107689200D01*
X136335095Y-107689200D02*
X136287476Y-107641580D01*
X137287476Y-106832057D02*
X137335095Y-106784438D01*
X137335095Y-106784438D02*
X137430333Y-106736819D01*
X137430333Y-106736819D02*
X137668428Y-106736819D01*
X137668428Y-106736819D02*
X137763666Y-106784438D01*
X137763666Y-106784438D02*
X137811285Y-106832057D01*
X137811285Y-106832057D02*
X137858904Y-106927295D01*
X137858904Y-106927295D02*
X137858904Y-107022533D01*
X137858904Y-107022533D02*
X137811285Y-107165390D01*
X137811285Y-107165390D02*
X137239857Y-107736819D01*
X137239857Y-107736819D02*
X137858904Y-107736819D01*
X134115057Y-114996904D02*
X134067438Y-114949285D01*
X134067438Y-114949285D02*
X134019819Y-114854047D01*
X134019819Y-114854047D02*
X134019819Y-114615952D01*
X134019819Y-114615952D02*
X134067438Y-114520714D01*
X134067438Y-114520714D02*
X134115057Y-114473095D01*
X134115057Y-114473095D02*
X134210295Y-114425476D01*
X134210295Y-114425476D02*
X134305533Y-114425476D01*
X134305533Y-114425476D02*
X134448390Y-114473095D01*
X134448390Y-114473095D02*
X135019819Y-115044523D01*
X135019819Y-115044523D02*
X135019819Y-114425476D01*
X135019819Y-113996904D02*
X134019819Y-113996904D01*
X135019819Y-113425476D02*
X134448390Y-113854047D01*
X134019819Y-113425476D02*
X134591247Y-113996904D01*
X134115057Y-113044523D02*
X134067438Y-112996904D01*
X134067438Y-112996904D02*
X134019819Y-112901666D01*
X134019819Y-112901666D02*
X134019819Y-112663571D01*
X134019819Y-112663571D02*
X134067438Y-112568333D01*
X134067438Y-112568333D02*
X134115057Y-112520714D01*
X134115057Y-112520714D02*
X134210295Y-112473095D01*
X134210295Y-112473095D02*
X134305533Y-112473095D01*
X134305533Y-112473095D02*
X134448390Y-112520714D01*
X134448390Y-112520714D02*
X135019819Y-113092142D01*
X135019819Y-113092142D02*
X135019819Y-112473095D01*
X125508333Y-109744819D02*
X125175000Y-109268628D01*
X124936905Y-109744819D02*
X124936905Y-108744819D01*
X124936905Y-108744819D02*
X125317857Y-108744819D01*
X125317857Y-108744819D02*
X125413095Y-108792438D01*
X125413095Y-108792438D02*
X125460714Y-108840057D01*
X125460714Y-108840057D02*
X125508333Y-108935295D01*
X125508333Y-108935295D02*
X125508333Y-109078152D01*
X125508333Y-109078152D02*
X125460714Y-109173390D01*
X125460714Y-109173390D02*
X125413095Y-109221009D01*
X125413095Y-109221009D02*
X125317857Y-109268628D01*
X125317857Y-109268628D02*
X124936905Y-109268628D01*
X126460714Y-109744819D02*
X125889286Y-109744819D01*
X126175000Y-109744819D02*
X126175000Y-108744819D01*
X126175000Y-108744819D02*
X126079762Y-108887676D01*
X126079762Y-108887676D02*
X125984524Y-108982914D01*
X125984524Y-108982914D02*
X125889286Y-109030533D01*
X126129819Y-116965476D02*
X126129819Y-117536904D01*
X126129819Y-117251190D02*
X125129819Y-117251190D01*
X125129819Y-117251190D02*
X125272676Y-117346428D01*
X125272676Y-117346428D02*
X125367914Y-117441666D01*
X125367914Y-117441666D02*
X125415533Y-117536904D01*
X126129819Y-116536904D02*
X125129819Y-116536904D01*
X126129819Y-115965476D02*
X125558390Y-116394047D01*
X125129819Y-115965476D02*
X125701247Y-116536904D01*
X125129819Y-115346428D02*
X125129819Y-115251190D01*
X125129819Y-115251190D02*
X125177438Y-115155952D01*
X125177438Y-115155952D02*
X125225057Y-115108333D01*
X125225057Y-115108333D02*
X125320295Y-115060714D01*
X125320295Y-115060714D02*
X125510771Y-115013095D01*
X125510771Y-115013095D02*
X125748866Y-115013095D01*
X125748866Y-115013095D02*
X125939342Y-115060714D01*
X125939342Y-115060714D02*
X126034580Y-115108333D01*
X126034580Y-115108333D02*
X126082200Y-115155952D01*
X126082200Y-115155952D02*
X126129819Y-115251190D01*
X126129819Y-115251190D02*
X126129819Y-115346428D01*
X126129819Y-115346428D02*
X126082200Y-115441666D01*
X126082200Y-115441666D02*
X126034580Y-115489285D01*
X126034580Y-115489285D02*
X125939342Y-115536904D01*
X125939342Y-115536904D02*
X125748866Y-115584523D01*
X125748866Y-115584523D02*
X125510771Y-115584523D01*
X125510771Y-115584523D02*
X125320295Y-115536904D01*
X125320295Y-115536904D02*
X125225057Y-115489285D01*
X125225057Y-115489285D02*
X125177438Y-115441666D01*
X125177438Y-115441666D02*
X125129819Y-115346428D01*
X156623333Y-108419819D02*
X156290000Y-107943628D01*
X156051905Y-108419819D02*
X156051905Y-107419819D01*
X156051905Y-107419819D02*
X156432857Y-107419819D01*
X156432857Y-107419819D02*
X156528095Y-107467438D01*
X156528095Y-107467438D02*
X156575714Y-107515057D01*
X156575714Y-107515057D02*
X156623333Y-107610295D01*
X156623333Y-107610295D02*
X156623333Y-107753152D01*
X156623333Y-107753152D02*
X156575714Y-107848390D01*
X156575714Y-107848390D02*
X156528095Y-107896009D01*
X156528095Y-107896009D02*
X156432857Y-107943628D01*
X156432857Y-107943628D02*
X156051905Y-107943628D01*
X157004286Y-107515057D02*
X157051905Y-107467438D01*
X157051905Y-107467438D02*
X157147143Y-107419819D01*
X157147143Y-107419819D02*
X157385238Y-107419819D01*
X157385238Y-107419819D02*
X157480476Y-107467438D01*
X157480476Y-107467438D02*
X157528095Y-107515057D01*
X157528095Y-107515057D02*
X157575714Y-107610295D01*
X157575714Y-107610295D02*
X157575714Y-107705533D01*
X157575714Y-107705533D02*
X157528095Y-107848390D01*
X157528095Y-107848390D02*
X156956667Y-108419819D01*
X156956667Y-108419819D02*
X157575714Y-108419819D01*
X162465476Y-107419819D02*
X163084523Y-107419819D01*
X163084523Y-107419819D02*
X162751190Y-107800771D01*
X162751190Y-107800771D02*
X162894047Y-107800771D01*
X162894047Y-107800771D02*
X162989285Y-107848390D01*
X162989285Y-107848390D02*
X163036904Y-107896009D01*
X163036904Y-107896009D02*
X163084523Y-107991247D01*
X163084523Y-107991247D02*
X163084523Y-108229342D01*
X163084523Y-108229342D02*
X163036904Y-108324580D01*
X163036904Y-108324580D02*
X162989285Y-108372200D01*
X162989285Y-108372200D02*
X162894047Y-108419819D01*
X162894047Y-108419819D02*
X162608333Y-108419819D01*
X162608333Y-108419819D02*
X162513095Y-108372200D01*
X162513095Y-108372200D02*
X162465476Y-108324580D01*
X163560714Y-108419819D02*
X163751190Y-108419819D01*
X163751190Y-108419819D02*
X163846428Y-108372200D01*
X163846428Y-108372200D02*
X163894047Y-108324580D01*
X163894047Y-108324580D02*
X163989285Y-108181723D01*
X163989285Y-108181723D02*
X164036904Y-107991247D01*
X164036904Y-107991247D02*
X164036904Y-107610295D01*
X164036904Y-107610295D02*
X163989285Y-107515057D01*
X163989285Y-107515057D02*
X163941666Y-107467438D01*
X163941666Y-107467438D02*
X163846428Y-107419819D01*
X163846428Y-107419819D02*
X163655952Y-107419819D01*
X163655952Y-107419819D02*
X163560714Y-107467438D01*
X163560714Y-107467438D02*
X163513095Y-107515057D01*
X163513095Y-107515057D02*
X163465476Y-107610295D01*
X163465476Y-107610295D02*
X163465476Y-107848390D01*
X163465476Y-107848390D02*
X163513095Y-107943628D01*
X163513095Y-107943628D02*
X163560714Y-107991247D01*
X163560714Y-107991247D02*
X163655952Y-108038866D01*
X163655952Y-108038866D02*
X163846428Y-108038866D01*
X163846428Y-108038866D02*
X163941666Y-107991247D01*
X163941666Y-107991247D02*
X163989285Y-107943628D01*
X163989285Y-107943628D02*
X164036904Y-107848390D01*
X164465476Y-108419819D02*
X164465476Y-107419819D01*
X165036904Y-108419819D02*
X164608333Y-107848390D01*
X165036904Y-107419819D02*
X164465476Y-107991247D01*
X112808333Y-81804819D02*
X112475000Y-81328628D01*
X112236905Y-81804819D02*
X112236905Y-80804819D01*
X112236905Y-80804819D02*
X112617857Y-80804819D01*
X112617857Y-80804819D02*
X112713095Y-80852438D01*
X112713095Y-80852438D02*
X112760714Y-80900057D01*
X112760714Y-80900057D02*
X112808333Y-80995295D01*
X112808333Y-80995295D02*
X112808333Y-81138152D01*
X112808333Y-81138152D02*
X112760714Y-81233390D01*
X112760714Y-81233390D02*
X112713095Y-81281009D01*
X112713095Y-81281009D02*
X112617857Y-81328628D01*
X112617857Y-81328628D02*
X112236905Y-81328628D01*
X113665476Y-81138152D02*
X113665476Y-81804819D01*
X113427381Y-80757200D02*
X113189286Y-81471485D01*
X113189286Y-81471485D02*
X113808333Y-81471485D01*
X113429819Y-88390476D02*
X113429819Y-88961904D01*
X113429819Y-88676190D02*
X112429819Y-88676190D01*
X112429819Y-88676190D02*
X112572676Y-88771428D01*
X112572676Y-88771428D02*
X112667914Y-88866666D01*
X112667914Y-88866666D02*
X112715533Y-88961904D01*
X113429819Y-87961904D02*
X112429819Y-87961904D01*
X113429819Y-87390476D02*
X112858390Y-87819047D01*
X112429819Y-87390476D02*
X113001247Y-87961904D01*
X112429819Y-86771428D02*
X112429819Y-86676190D01*
X112429819Y-86676190D02*
X112477438Y-86580952D01*
X112477438Y-86580952D02*
X112525057Y-86533333D01*
X112525057Y-86533333D02*
X112620295Y-86485714D01*
X112620295Y-86485714D02*
X112810771Y-86438095D01*
X112810771Y-86438095D02*
X113048866Y-86438095D01*
X113048866Y-86438095D02*
X113239342Y-86485714D01*
X113239342Y-86485714D02*
X113334580Y-86533333D01*
X113334580Y-86533333D02*
X113382200Y-86580952D01*
X113382200Y-86580952D02*
X113429819Y-86676190D01*
X113429819Y-86676190D02*
X113429819Y-86771428D01*
X113429819Y-86771428D02*
X113382200Y-86866666D01*
X113382200Y-86866666D02*
X113334580Y-86914285D01*
X113334580Y-86914285D02*
X113239342Y-86961904D01*
X113239342Y-86961904D02*
X113048866Y-87009523D01*
X113048866Y-87009523D02*
X112810771Y-87009523D01*
X112810771Y-87009523D02*
X112620295Y-86961904D01*
X112620295Y-86961904D02*
X112525057Y-86914285D01*
X112525057Y-86914285D02*
X112477438Y-86866666D01*
X112477438Y-86866666D02*
X112429819Y-86771428D01*
X117888333Y-123714819D02*
X117555000Y-123238628D01*
X117316905Y-123714819D02*
X117316905Y-122714819D01*
X117316905Y-122714819D02*
X117697857Y-122714819D01*
X117697857Y-122714819D02*
X117793095Y-122762438D01*
X117793095Y-122762438D02*
X117840714Y-122810057D01*
X117840714Y-122810057D02*
X117888333Y-122905295D01*
X117888333Y-122905295D02*
X117888333Y-123048152D01*
X117888333Y-123048152D02*
X117840714Y-123143390D01*
X117840714Y-123143390D02*
X117793095Y-123191009D01*
X117793095Y-123191009D02*
X117697857Y-123238628D01*
X117697857Y-123238628D02*
X117316905Y-123238628D01*
X118459762Y-123143390D02*
X118364524Y-123095771D01*
X118364524Y-123095771D02*
X118316905Y-123048152D01*
X118316905Y-123048152D02*
X118269286Y-122952914D01*
X118269286Y-122952914D02*
X118269286Y-122905295D01*
X118269286Y-122905295D02*
X118316905Y-122810057D01*
X118316905Y-122810057D02*
X118364524Y-122762438D01*
X118364524Y-122762438D02*
X118459762Y-122714819D01*
X118459762Y-122714819D02*
X118650238Y-122714819D01*
X118650238Y-122714819D02*
X118745476Y-122762438D01*
X118745476Y-122762438D02*
X118793095Y-122810057D01*
X118793095Y-122810057D02*
X118840714Y-122905295D01*
X118840714Y-122905295D02*
X118840714Y-122952914D01*
X118840714Y-122952914D02*
X118793095Y-123048152D01*
X118793095Y-123048152D02*
X118745476Y-123095771D01*
X118745476Y-123095771D02*
X118650238Y-123143390D01*
X118650238Y-123143390D02*
X118459762Y-123143390D01*
X118459762Y-123143390D02*
X118364524Y-123191009D01*
X118364524Y-123191009D02*
X118316905Y-123238628D01*
X118316905Y-123238628D02*
X118269286Y-123333866D01*
X118269286Y-123333866D02*
X118269286Y-123524342D01*
X118269286Y-123524342D02*
X118316905Y-123619580D01*
X118316905Y-123619580D02*
X118364524Y-123667200D01*
X118364524Y-123667200D02*
X118459762Y-123714819D01*
X118459762Y-123714819D02*
X118650238Y-123714819D01*
X118650238Y-123714819D02*
X118745476Y-123667200D01*
X118745476Y-123667200D02*
X118793095Y-123619580D01*
X118793095Y-123619580D02*
X118840714Y-123524342D01*
X118840714Y-123524342D02*
X118840714Y-123333866D01*
X118840714Y-123333866D02*
X118793095Y-123238628D01*
X118793095Y-123238628D02*
X118745476Y-123191009D01*
X118745476Y-123191009D02*
X118650238Y-123143390D01*
X117509819Y-117013095D02*
X117509819Y-117489285D01*
X117509819Y-117489285D02*
X117986009Y-117536904D01*
X117986009Y-117536904D02*
X117938390Y-117489285D01*
X117938390Y-117489285D02*
X117890771Y-117394047D01*
X117890771Y-117394047D02*
X117890771Y-117155952D01*
X117890771Y-117155952D02*
X117938390Y-117060714D01*
X117938390Y-117060714D02*
X117986009Y-117013095D01*
X117986009Y-117013095D02*
X118081247Y-116965476D01*
X118081247Y-116965476D02*
X118319342Y-116965476D01*
X118319342Y-116965476D02*
X118414580Y-117013095D01*
X118414580Y-117013095D02*
X118462200Y-117060714D01*
X118462200Y-117060714D02*
X118509819Y-117155952D01*
X118509819Y-117155952D02*
X118509819Y-117394047D01*
X118509819Y-117394047D02*
X118462200Y-117489285D01*
X118462200Y-117489285D02*
X118414580Y-117536904D01*
X117509819Y-116108333D02*
X117509819Y-116298809D01*
X117509819Y-116298809D02*
X117557438Y-116394047D01*
X117557438Y-116394047D02*
X117605057Y-116441666D01*
X117605057Y-116441666D02*
X117747914Y-116536904D01*
X117747914Y-116536904D02*
X117938390Y-116584523D01*
X117938390Y-116584523D02*
X118319342Y-116584523D01*
X118319342Y-116584523D02*
X118414580Y-116536904D01*
X118414580Y-116536904D02*
X118462200Y-116489285D01*
X118462200Y-116489285D02*
X118509819Y-116394047D01*
X118509819Y-116394047D02*
X118509819Y-116203571D01*
X118509819Y-116203571D02*
X118462200Y-116108333D01*
X118462200Y-116108333D02*
X118414580Y-116060714D01*
X118414580Y-116060714D02*
X118319342Y-116013095D01*
X118319342Y-116013095D02*
X118081247Y-116013095D01*
X118081247Y-116013095D02*
X117986009Y-116060714D01*
X117986009Y-116060714D02*
X117938390Y-116108333D01*
X117938390Y-116108333D02*
X117890771Y-116203571D01*
X117890771Y-116203571D02*
X117890771Y-116394047D01*
X117890771Y-116394047D02*
X117938390Y-116489285D01*
X117938390Y-116489285D02*
X117986009Y-116536904D01*
X117986009Y-116536904D02*
X118081247Y-116584523D01*
X118509819Y-115584523D02*
X117509819Y-115584523D01*
X118509819Y-115013095D02*
X117938390Y-115441666D01*
X117509819Y-115013095D02*
X118081247Y-115584523D01*
X120428333Y-109744819D02*
X120095000Y-109268628D01*
X119856905Y-109744819D02*
X119856905Y-108744819D01*
X119856905Y-108744819D02*
X120237857Y-108744819D01*
X120237857Y-108744819D02*
X120333095Y-108792438D01*
X120333095Y-108792438D02*
X120380714Y-108840057D01*
X120380714Y-108840057D02*
X120428333Y-108935295D01*
X120428333Y-108935295D02*
X120428333Y-109078152D01*
X120428333Y-109078152D02*
X120380714Y-109173390D01*
X120380714Y-109173390D02*
X120333095Y-109221009D01*
X120333095Y-109221009D02*
X120237857Y-109268628D01*
X120237857Y-109268628D02*
X119856905Y-109268628D01*
X120904524Y-109744819D02*
X121095000Y-109744819D01*
X121095000Y-109744819D02*
X121190238Y-109697200D01*
X121190238Y-109697200D02*
X121237857Y-109649580D01*
X121237857Y-109649580D02*
X121333095Y-109506723D01*
X121333095Y-109506723D02*
X121380714Y-109316247D01*
X121380714Y-109316247D02*
X121380714Y-108935295D01*
X121380714Y-108935295D02*
X121333095Y-108840057D01*
X121333095Y-108840057D02*
X121285476Y-108792438D01*
X121285476Y-108792438D02*
X121190238Y-108744819D01*
X121190238Y-108744819D02*
X120999762Y-108744819D01*
X120999762Y-108744819D02*
X120904524Y-108792438D01*
X120904524Y-108792438D02*
X120856905Y-108840057D01*
X120856905Y-108840057D02*
X120809286Y-108935295D01*
X120809286Y-108935295D02*
X120809286Y-109173390D01*
X120809286Y-109173390D02*
X120856905Y-109268628D01*
X120856905Y-109268628D02*
X120904524Y-109316247D01*
X120904524Y-109316247D02*
X120999762Y-109363866D01*
X120999762Y-109363866D02*
X121190238Y-109363866D01*
X121190238Y-109363866D02*
X121285476Y-109316247D01*
X121285476Y-109316247D02*
X121333095Y-109268628D01*
X121333095Y-109268628D02*
X121380714Y-109173390D01*
X120049819Y-117013095D02*
X120049819Y-117489285D01*
X120049819Y-117489285D02*
X120526009Y-117536904D01*
X120526009Y-117536904D02*
X120478390Y-117489285D01*
X120478390Y-117489285D02*
X120430771Y-117394047D01*
X120430771Y-117394047D02*
X120430771Y-117155952D01*
X120430771Y-117155952D02*
X120478390Y-117060714D01*
X120478390Y-117060714D02*
X120526009Y-117013095D01*
X120526009Y-117013095D02*
X120621247Y-116965476D01*
X120621247Y-116965476D02*
X120859342Y-116965476D01*
X120859342Y-116965476D02*
X120954580Y-117013095D01*
X120954580Y-117013095D02*
X121002200Y-117060714D01*
X121002200Y-117060714D02*
X121049819Y-117155952D01*
X121049819Y-117155952D02*
X121049819Y-117394047D01*
X121049819Y-117394047D02*
X121002200Y-117489285D01*
X121002200Y-117489285D02*
X120954580Y-117536904D01*
X120049819Y-116108333D02*
X120049819Y-116298809D01*
X120049819Y-116298809D02*
X120097438Y-116394047D01*
X120097438Y-116394047D02*
X120145057Y-116441666D01*
X120145057Y-116441666D02*
X120287914Y-116536904D01*
X120287914Y-116536904D02*
X120478390Y-116584523D01*
X120478390Y-116584523D02*
X120859342Y-116584523D01*
X120859342Y-116584523D02*
X120954580Y-116536904D01*
X120954580Y-116536904D02*
X121002200Y-116489285D01*
X121002200Y-116489285D02*
X121049819Y-116394047D01*
X121049819Y-116394047D02*
X121049819Y-116203571D01*
X121049819Y-116203571D02*
X121002200Y-116108333D01*
X121002200Y-116108333D02*
X120954580Y-116060714D01*
X120954580Y-116060714D02*
X120859342Y-116013095D01*
X120859342Y-116013095D02*
X120621247Y-116013095D01*
X120621247Y-116013095D02*
X120526009Y-116060714D01*
X120526009Y-116060714D02*
X120478390Y-116108333D01*
X120478390Y-116108333D02*
X120430771Y-116203571D01*
X120430771Y-116203571D02*
X120430771Y-116394047D01*
X120430771Y-116394047D02*
X120478390Y-116489285D01*
X120478390Y-116489285D02*
X120526009Y-116536904D01*
X120526009Y-116536904D02*
X120621247Y-116584523D01*
X121049819Y-115584523D02*
X120049819Y-115584523D01*
X121049819Y-115013095D02*
X120478390Y-115441666D01*
X120049819Y-115013095D02*
X120621247Y-115584523D01*
X122492142Y-123714819D02*
X122158809Y-123238628D01*
X121920714Y-123714819D02*
X121920714Y-122714819D01*
X121920714Y-122714819D02*
X122301666Y-122714819D01*
X122301666Y-122714819D02*
X122396904Y-122762438D01*
X122396904Y-122762438D02*
X122444523Y-122810057D01*
X122444523Y-122810057D02*
X122492142Y-122905295D01*
X122492142Y-122905295D02*
X122492142Y-123048152D01*
X122492142Y-123048152D02*
X122444523Y-123143390D01*
X122444523Y-123143390D02*
X122396904Y-123191009D01*
X122396904Y-123191009D02*
X122301666Y-123238628D01*
X122301666Y-123238628D02*
X121920714Y-123238628D01*
X123444523Y-123714819D02*
X122873095Y-123714819D01*
X123158809Y-123714819D02*
X123158809Y-122714819D01*
X123158809Y-122714819D02*
X123063571Y-122857676D01*
X123063571Y-122857676D02*
X122968333Y-122952914D01*
X122968333Y-122952914D02*
X122873095Y-123000533D01*
X124063571Y-122714819D02*
X124158809Y-122714819D01*
X124158809Y-122714819D02*
X124254047Y-122762438D01*
X124254047Y-122762438D02*
X124301666Y-122810057D01*
X124301666Y-122810057D02*
X124349285Y-122905295D01*
X124349285Y-122905295D02*
X124396904Y-123095771D01*
X124396904Y-123095771D02*
X124396904Y-123333866D01*
X124396904Y-123333866D02*
X124349285Y-123524342D01*
X124349285Y-123524342D02*
X124301666Y-123619580D01*
X124301666Y-123619580D02*
X124254047Y-123667200D01*
X124254047Y-123667200D02*
X124158809Y-123714819D01*
X124158809Y-123714819D02*
X124063571Y-123714819D01*
X124063571Y-123714819D02*
X123968333Y-123667200D01*
X123968333Y-123667200D02*
X123920714Y-123619580D01*
X123920714Y-123619580D02*
X123873095Y-123524342D01*
X123873095Y-123524342D02*
X123825476Y-123333866D01*
X123825476Y-123333866D02*
X123825476Y-123095771D01*
X123825476Y-123095771D02*
X123873095Y-122905295D01*
X123873095Y-122905295D02*
X123920714Y-122810057D01*
X123920714Y-122810057D02*
X123968333Y-122762438D01*
X123968333Y-122762438D02*
X124063571Y-122714819D01*
X123589819Y-117036904D02*
X123589819Y-117608332D01*
X123589819Y-117322618D02*
X122589819Y-117322618D01*
X122589819Y-117322618D02*
X122732676Y-117417856D01*
X122732676Y-117417856D02*
X122827914Y-117513094D01*
X122827914Y-117513094D02*
X122875533Y-117608332D01*
X123589819Y-116608332D02*
X122589819Y-116608332D01*
X122589819Y-116608332D02*
X123304104Y-116274999D01*
X123304104Y-116274999D02*
X122589819Y-115941666D01*
X122589819Y-115941666D02*
X123589819Y-115941666D01*
X122589819Y-114989285D02*
X122589819Y-115465475D01*
X122589819Y-115465475D02*
X123066009Y-115513094D01*
X123066009Y-115513094D02*
X123018390Y-115465475D01*
X123018390Y-115465475D02*
X122970771Y-115370237D01*
X122970771Y-115370237D02*
X122970771Y-115132142D01*
X122970771Y-115132142D02*
X123018390Y-115036904D01*
X123018390Y-115036904D02*
X123066009Y-114989285D01*
X123066009Y-114989285D02*
X123161247Y-114941666D01*
X123161247Y-114941666D02*
X123399342Y-114941666D01*
X123399342Y-114941666D02*
X123494580Y-114989285D01*
X123494580Y-114989285D02*
X123542200Y-115036904D01*
X123542200Y-115036904D02*
X123589819Y-115132142D01*
X123589819Y-115132142D02*
X123589819Y-115370237D01*
X123589819Y-115370237D02*
X123542200Y-115465475D01*
X123542200Y-115465475D02*
X123494580Y-115513094D01*
X114872142Y-109744819D02*
X114538809Y-109268628D01*
X114300714Y-109744819D02*
X114300714Y-108744819D01*
X114300714Y-108744819D02*
X114681666Y-108744819D01*
X114681666Y-108744819D02*
X114776904Y-108792438D01*
X114776904Y-108792438D02*
X114824523Y-108840057D01*
X114824523Y-108840057D02*
X114872142Y-108935295D01*
X114872142Y-108935295D02*
X114872142Y-109078152D01*
X114872142Y-109078152D02*
X114824523Y-109173390D01*
X114824523Y-109173390D02*
X114776904Y-109221009D01*
X114776904Y-109221009D02*
X114681666Y-109268628D01*
X114681666Y-109268628D02*
X114300714Y-109268628D01*
X115824523Y-109744819D02*
X115253095Y-109744819D01*
X115538809Y-109744819D02*
X115538809Y-108744819D01*
X115538809Y-108744819D02*
X115443571Y-108887676D01*
X115443571Y-108887676D02*
X115348333Y-108982914D01*
X115348333Y-108982914D02*
X115253095Y-109030533D01*
X116776904Y-109744819D02*
X116205476Y-109744819D01*
X116491190Y-109744819D02*
X116491190Y-108744819D01*
X116491190Y-108744819D02*
X116395952Y-108887676D01*
X116395952Y-108887676D02*
X116300714Y-108982914D01*
X116300714Y-108982914D02*
X116205476Y-109030533D01*
X114969819Y-117013095D02*
X114969819Y-117489285D01*
X114969819Y-117489285D02*
X115446009Y-117536904D01*
X115446009Y-117536904D02*
X115398390Y-117489285D01*
X115398390Y-117489285D02*
X115350771Y-117394047D01*
X115350771Y-117394047D02*
X115350771Y-117155952D01*
X115350771Y-117155952D02*
X115398390Y-117060714D01*
X115398390Y-117060714D02*
X115446009Y-117013095D01*
X115446009Y-117013095D02*
X115541247Y-116965476D01*
X115541247Y-116965476D02*
X115779342Y-116965476D01*
X115779342Y-116965476D02*
X115874580Y-117013095D01*
X115874580Y-117013095D02*
X115922200Y-117060714D01*
X115922200Y-117060714D02*
X115969819Y-117155952D01*
X115969819Y-117155952D02*
X115969819Y-117394047D01*
X115969819Y-117394047D02*
X115922200Y-117489285D01*
X115922200Y-117489285D02*
X115874580Y-117536904D01*
X114969819Y-116108333D02*
X114969819Y-116298809D01*
X114969819Y-116298809D02*
X115017438Y-116394047D01*
X115017438Y-116394047D02*
X115065057Y-116441666D01*
X115065057Y-116441666D02*
X115207914Y-116536904D01*
X115207914Y-116536904D02*
X115398390Y-116584523D01*
X115398390Y-116584523D02*
X115779342Y-116584523D01*
X115779342Y-116584523D02*
X115874580Y-116536904D01*
X115874580Y-116536904D02*
X115922200Y-116489285D01*
X115922200Y-116489285D02*
X115969819Y-116394047D01*
X115969819Y-116394047D02*
X115969819Y-116203571D01*
X115969819Y-116203571D02*
X115922200Y-116108333D01*
X115922200Y-116108333D02*
X115874580Y-116060714D01*
X115874580Y-116060714D02*
X115779342Y-116013095D01*
X115779342Y-116013095D02*
X115541247Y-116013095D01*
X115541247Y-116013095D02*
X115446009Y-116060714D01*
X115446009Y-116060714D02*
X115398390Y-116108333D01*
X115398390Y-116108333D02*
X115350771Y-116203571D01*
X115350771Y-116203571D02*
X115350771Y-116394047D01*
X115350771Y-116394047D02*
X115398390Y-116489285D01*
X115398390Y-116489285D02*
X115446009Y-116536904D01*
X115446009Y-116536904D02*
X115541247Y-116584523D01*
X115969819Y-115584523D02*
X114969819Y-115584523D01*
X115969819Y-115013095D02*
X115398390Y-115441666D01*
X114969819Y-115013095D02*
X115541247Y-115584523D01*
X112332142Y-123714819D02*
X111998809Y-123238628D01*
X111760714Y-123714819D02*
X111760714Y-122714819D01*
X111760714Y-122714819D02*
X112141666Y-122714819D01*
X112141666Y-122714819D02*
X112236904Y-122762438D01*
X112236904Y-122762438D02*
X112284523Y-122810057D01*
X112284523Y-122810057D02*
X112332142Y-122905295D01*
X112332142Y-122905295D02*
X112332142Y-123048152D01*
X112332142Y-123048152D02*
X112284523Y-123143390D01*
X112284523Y-123143390D02*
X112236904Y-123191009D01*
X112236904Y-123191009D02*
X112141666Y-123238628D01*
X112141666Y-123238628D02*
X111760714Y-123238628D01*
X113284523Y-123714819D02*
X112713095Y-123714819D01*
X112998809Y-123714819D02*
X112998809Y-122714819D01*
X112998809Y-122714819D02*
X112903571Y-122857676D01*
X112903571Y-122857676D02*
X112808333Y-122952914D01*
X112808333Y-122952914D02*
X112713095Y-123000533D01*
X113665476Y-122810057D02*
X113713095Y-122762438D01*
X113713095Y-122762438D02*
X113808333Y-122714819D01*
X113808333Y-122714819D02*
X114046428Y-122714819D01*
X114046428Y-122714819D02*
X114141666Y-122762438D01*
X114141666Y-122762438D02*
X114189285Y-122810057D01*
X114189285Y-122810057D02*
X114236904Y-122905295D01*
X114236904Y-122905295D02*
X114236904Y-123000533D01*
X114236904Y-123000533D02*
X114189285Y-123143390D01*
X114189285Y-123143390D02*
X113617857Y-123714819D01*
X113617857Y-123714819D02*
X114236904Y-123714819D01*
X112429819Y-117013095D02*
X112429819Y-117489285D01*
X112429819Y-117489285D02*
X112906009Y-117536904D01*
X112906009Y-117536904D02*
X112858390Y-117489285D01*
X112858390Y-117489285D02*
X112810771Y-117394047D01*
X112810771Y-117394047D02*
X112810771Y-117155952D01*
X112810771Y-117155952D02*
X112858390Y-117060714D01*
X112858390Y-117060714D02*
X112906009Y-117013095D01*
X112906009Y-117013095D02*
X113001247Y-116965476D01*
X113001247Y-116965476D02*
X113239342Y-116965476D01*
X113239342Y-116965476D02*
X113334580Y-117013095D01*
X113334580Y-117013095D02*
X113382200Y-117060714D01*
X113382200Y-117060714D02*
X113429819Y-117155952D01*
X113429819Y-117155952D02*
X113429819Y-117394047D01*
X113429819Y-117394047D02*
X113382200Y-117489285D01*
X113382200Y-117489285D02*
X113334580Y-117536904D01*
X112429819Y-116108333D02*
X112429819Y-116298809D01*
X112429819Y-116298809D02*
X112477438Y-116394047D01*
X112477438Y-116394047D02*
X112525057Y-116441666D01*
X112525057Y-116441666D02*
X112667914Y-116536904D01*
X112667914Y-116536904D02*
X112858390Y-116584523D01*
X112858390Y-116584523D02*
X113239342Y-116584523D01*
X113239342Y-116584523D02*
X113334580Y-116536904D01*
X113334580Y-116536904D02*
X113382200Y-116489285D01*
X113382200Y-116489285D02*
X113429819Y-116394047D01*
X113429819Y-116394047D02*
X113429819Y-116203571D01*
X113429819Y-116203571D02*
X113382200Y-116108333D01*
X113382200Y-116108333D02*
X113334580Y-116060714D01*
X113334580Y-116060714D02*
X113239342Y-116013095D01*
X113239342Y-116013095D02*
X113001247Y-116013095D01*
X113001247Y-116013095D02*
X112906009Y-116060714D01*
X112906009Y-116060714D02*
X112858390Y-116108333D01*
X112858390Y-116108333D02*
X112810771Y-116203571D01*
X112810771Y-116203571D02*
X112810771Y-116394047D01*
X112810771Y-116394047D02*
X112858390Y-116489285D01*
X112858390Y-116489285D02*
X112906009Y-116536904D01*
X112906009Y-116536904D02*
X113001247Y-116584523D01*
X113429819Y-115584523D02*
X112429819Y-115584523D01*
X113429819Y-115013095D02*
X112858390Y-115441666D01*
X112429819Y-115013095D02*
X113001247Y-115584523D01*
X127572142Y-81804819D02*
X127238809Y-81328628D01*
X127000714Y-81804819D02*
X127000714Y-80804819D01*
X127000714Y-80804819D02*
X127381666Y-80804819D01*
X127381666Y-80804819D02*
X127476904Y-80852438D01*
X127476904Y-80852438D02*
X127524523Y-80900057D01*
X127524523Y-80900057D02*
X127572142Y-80995295D01*
X127572142Y-80995295D02*
X127572142Y-81138152D01*
X127572142Y-81138152D02*
X127524523Y-81233390D01*
X127524523Y-81233390D02*
X127476904Y-81281009D01*
X127476904Y-81281009D02*
X127381666Y-81328628D01*
X127381666Y-81328628D02*
X127000714Y-81328628D01*
X128524523Y-81804819D02*
X127953095Y-81804819D01*
X128238809Y-81804819D02*
X128238809Y-80804819D01*
X128238809Y-80804819D02*
X128143571Y-80947676D01*
X128143571Y-80947676D02*
X128048333Y-81042914D01*
X128048333Y-81042914D02*
X127953095Y-81090533D01*
X128857857Y-80804819D02*
X129476904Y-80804819D01*
X129476904Y-80804819D02*
X129143571Y-81185771D01*
X129143571Y-81185771D02*
X129286428Y-81185771D01*
X129286428Y-81185771D02*
X129381666Y-81233390D01*
X129381666Y-81233390D02*
X129429285Y-81281009D01*
X129429285Y-81281009D02*
X129476904Y-81376247D01*
X129476904Y-81376247D02*
X129476904Y-81614342D01*
X129476904Y-81614342D02*
X129429285Y-81709580D01*
X129429285Y-81709580D02*
X129381666Y-81757200D01*
X129381666Y-81757200D02*
X129286428Y-81804819D01*
X129286428Y-81804819D02*
X129000714Y-81804819D01*
X129000714Y-81804819D02*
X128905476Y-81757200D01*
X128905476Y-81757200D02*
X128857857Y-81709580D01*
X128669819Y-88866666D02*
X128669819Y-89438094D01*
X128669819Y-89152380D02*
X127669819Y-89152380D01*
X127669819Y-89152380D02*
X127812676Y-89247618D01*
X127812676Y-89247618D02*
X127907914Y-89342856D01*
X127907914Y-89342856D02*
X127955533Y-89438094D01*
X127669819Y-88247618D02*
X127669819Y-88152380D01*
X127669819Y-88152380D02*
X127717438Y-88057142D01*
X127717438Y-88057142D02*
X127765057Y-88009523D01*
X127765057Y-88009523D02*
X127860295Y-87961904D01*
X127860295Y-87961904D02*
X128050771Y-87914285D01*
X128050771Y-87914285D02*
X128288866Y-87914285D01*
X128288866Y-87914285D02*
X128479342Y-87961904D01*
X128479342Y-87961904D02*
X128574580Y-88009523D01*
X128574580Y-88009523D02*
X128622200Y-88057142D01*
X128622200Y-88057142D02*
X128669819Y-88152380D01*
X128669819Y-88152380D02*
X128669819Y-88247618D01*
X128669819Y-88247618D02*
X128622200Y-88342856D01*
X128622200Y-88342856D02*
X128574580Y-88390475D01*
X128574580Y-88390475D02*
X128479342Y-88438094D01*
X128479342Y-88438094D02*
X128288866Y-88485713D01*
X128288866Y-88485713D02*
X128050771Y-88485713D01*
X128050771Y-88485713D02*
X127860295Y-88438094D01*
X127860295Y-88438094D02*
X127765057Y-88390475D01*
X127765057Y-88390475D02*
X127717438Y-88342856D01*
X127717438Y-88342856D02*
X127669819Y-88247618D01*
X127669819Y-87295237D02*
X127669819Y-87199999D01*
X127669819Y-87199999D02*
X127717438Y-87104761D01*
X127717438Y-87104761D02*
X127765057Y-87057142D01*
X127765057Y-87057142D02*
X127860295Y-87009523D01*
X127860295Y-87009523D02*
X128050771Y-86961904D01*
X128050771Y-86961904D02*
X128288866Y-86961904D01*
X128288866Y-86961904D02*
X128479342Y-87009523D01*
X128479342Y-87009523D02*
X128574580Y-87057142D01*
X128574580Y-87057142D02*
X128622200Y-87104761D01*
X128622200Y-87104761D02*
X128669819Y-87199999D01*
X128669819Y-87199999D02*
X128669819Y-87295237D01*
X128669819Y-87295237D02*
X128622200Y-87390475D01*
X128622200Y-87390475D02*
X128574580Y-87438094D01*
X128574580Y-87438094D02*
X128479342Y-87485713D01*
X128479342Y-87485713D02*
X128288866Y-87533332D01*
X128288866Y-87533332D02*
X128050771Y-87533332D01*
X128050771Y-87533332D02*
X127860295Y-87485713D01*
X127860295Y-87485713D02*
X127765057Y-87438094D01*
X127765057Y-87438094D02*
X127717438Y-87390475D01*
X127717438Y-87390475D02*
X127669819Y-87295237D01*
X128669819Y-86533332D02*
X127669819Y-86533332D01*
X128669819Y-85961904D02*
X128098390Y-86390475D01*
X127669819Y-85961904D02*
X128241247Y-86533332D01*
X125032142Y-94504819D02*
X124698809Y-94028628D01*
X124460714Y-94504819D02*
X124460714Y-93504819D01*
X124460714Y-93504819D02*
X124841666Y-93504819D01*
X124841666Y-93504819D02*
X124936904Y-93552438D01*
X124936904Y-93552438D02*
X124984523Y-93600057D01*
X124984523Y-93600057D02*
X125032142Y-93695295D01*
X125032142Y-93695295D02*
X125032142Y-93838152D01*
X125032142Y-93838152D02*
X124984523Y-93933390D01*
X124984523Y-93933390D02*
X124936904Y-93981009D01*
X124936904Y-93981009D02*
X124841666Y-94028628D01*
X124841666Y-94028628D02*
X124460714Y-94028628D01*
X125984523Y-94504819D02*
X125413095Y-94504819D01*
X125698809Y-94504819D02*
X125698809Y-93504819D01*
X125698809Y-93504819D02*
X125603571Y-93647676D01*
X125603571Y-93647676D02*
X125508333Y-93742914D01*
X125508333Y-93742914D02*
X125413095Y-93790533D01*
X126841666Y-93838152D02*
X126841666Y-94504819D01*
X126603571Y-93457200D02*
X126365476Y-94171485D01*
X126365476Y-94171485D02*
X126984523Y-94171485D01*
X126129819Y-88866666D02*
X126129819Y-89438094D01*
X126129819Y-89152380D02*
X125129819Y-89152380D01*
X125129819Y-89152380D02*
X125272676Y-89247618D01*
X125272676Y-89247618D02*
X125367914Y-89342856D01*
X125367914Y-89342856D02*
X125415533Y-89438094D01*
X125129819Y-88247618D02*
X125129819Y-88152380D01*
X125129819Y-88152380D02*
X125177438Y-88057142D01*
X125177438Y-88057142D02*
X125225057Y-88009523D01*
X125225057Y-88009523D02*
X125320295Y-87961904D01*
X125320295Y-87961904D02*
X125510771Y-87914285D01*
X125510771Y-87914285D02*
X125748866Y-87914285D01*
X125748866Y-87914285D02*
X125939342Y-87961904D01*
X125939342Y-87961904D02*
X126034580Y-88009523D01*
X126034580Y-88009523D02*
X126082200Y-88057142D01*
X126082200Y-88057142D02*
X126129819Y-88152380D01*
X126129819Y-88152380D02*
X126129819Y-88247618D01*
X126129819Y-88247618D02*
X126082200Y-88342856D01*
X126082200Y-88342856D02*
X126034580Y-88390475D01*
X126034580Y-88390475D02*
X125939342Y-88438094D01*
X125939342Y-88438094D02*
X125748866Y-88485713D01*
X125748866Y-88485713D02*
X125510771Y-88485713D01*
X125510771Y-88485713D02*
X125320295Y-88438094D01*
X125320295Y-88438094D02*
X125225057Y-88390475D01*
X125225057Y-88390475D02*
X125177438Y-88342856D01*
X125177438Y-88342856D02*
X125129819Y-88247618D01*
X125129819Y-87295237D02*
X125129819Y-87199999D01*
X125129819Y-87199999D02*
X125177438Y-87104761D01*
X125177438Y-87104761D02*
X125225057Y-87057142D01*
X125225057Y-87057142D02*
X125320295Y-87009523D01*
X125320295Y-87009523D02*
X125510771Y-86961904D01*
X125510771Y-86961904D02*
X125748866Y-86961904D01*
X125748866Y-86961904D02*
X125939342Y-87009523D01*
X125939342Y-87009523D02*
X126034580Y-87057142D01*
X126034580Y-87057142D02*
X126082200Y-87104761D01*
X126082200Y-87104761D02*
X126129819Y-87199999D01*
X126129819Y-87199999D02*
X126129819Y-87295237D01*
X126129819Y-87295237D02*
X126082200Y-87390475D01*
X126082200Y-87390475D02*
X126034580Y-87438094D01*
X126034580Y-87438094D02*
X125939342Y-87485713D01*
X125939342Y-87485713D02*
X125748866Y-87533332D01*
X125748866Y-87533332D02*
X125510771Y-87533332D01*
X125510771Y-87533332D02*
X125320295Y-87485713D01*
X125320295Y-87485713D02*
X125225057Y-87438094D01*
X125225057Y-87438094D02*
X125177438Y-87390475D01*
X125177438Y-87390475D02*
X125129819Y-87295237D01*
X126129819Y-86533332D02*
X125129819Y-86533332D01*
X126129819Y-85961904D02*
X125558390Y-86390475D01*
X125129819Y-85961904D02*
X125701247Y-86533332D01*
X119952142Y-94504819D02*
X119618809Y-94028628D01*
X119380714Y-94504819D02*
X119380714Y-93504819D01*
X119380714Y-93504819D02*
X119761666Y-93504819D01*
X119761666Y-93504819D02*
X119856904Y-93552438D01*
X119856904Y-93552438D02*
X119904523Y-93600057D01*
X119904523Y-93600057D02*
X119952142Y-93695295D01*
X119952142Y-93695295D02*
X119952142Y-93838152D01*
X119952142Y-93838152D02*
X119904523Y-93933390D01*
X119904523Y-93933390D02*
X119856904Y-93981009D01*
X119856904Y-93981009D02*
X119761666Y-94028628D01*
X119761666Y-94028628D02*
X119380714Y-94028628D01*
X120904523Y-94504819D02*
X120333095Y-94504819D01*
X120618809Y-94504819D02*
X120618809Y-93504819D01*
X120618809Y-93504819D02*
X120523571Y-93647676D01*
X120523571Y-93647676D02*
X120428333Y-93742914D01*
X120428333Y-93742914D02*
X120333095Y-93790533D01*
X121809285Y-93504819D02*
X121333095Y-93504819D01*
X121333095Y-93504819D02*
X121285476Y-93981009D01*
X121285476Y-93981009D02*
X121333095Y-93933390D01*
X121333095Y-93933390D02*
X121428333Y-93885771D01*
X121428333Y-93885771D02*
X121666428Y-93885771D01*
X121666428Y-93885771D02*
X121761666Y-93933390D01*
X121761666Y-93933390D02*
X121809285Y-93981009D01*
X121809285Y-93981009D02*
X121856904Y-94076247D01*
X121856904Y-94076247D02*
X121856904Y-94314342D01*
X121856904Y-94314342D02*
X121809285Y-94409580D01*
X121809285Y-94409580D02*
X121761666Y-94457200D01*
X121761666Y-94457200D02*
X121666428Y-94504819D01*
X121666428Y-94504819D02*
X121428333Y-94504819D01*
X121428333Y-94504819D02*
X121333095Y-94457200D01*
X121333095Y-94457200D02*
X121285476Y-94409580D01*
X121049819Y-88866666D02*
X121049819Y-89438094D01*
X121049819Y-89152380D02*
X120049819Y-89152380D01*
X120049819Y-89152380D02*
X120192676Y-89247618D01*
X120192676Y-89247618D02*
X120287914Y-89342856D01*
X120287914Y-89342856D02*
X120335533Y-89438094D01*
X120049819Y-88247618D02*
X120049819Y-88152380D01*
X120049819Y-88152380D02*
X120097438Y-88057142D01*
X120097438Y-88057142D02*
X120145057Y-88009523D01*
X120145057Y-88009523D02*
X120240295Y-87961904D01*
X120240295Y-87961904D02*
X120430771Y-87914285D01*
X120430771Y-87914285D02*
X120668866Y-87914285D01*
X120668866Y-87914285D02*
X120859342Y-87961904D01*
X120859342Y-87961904D02*
X120954580Y-88009523D01*
X120954580Y-88009523D02*
X121002200Y-88057142D01*
X121002200Y-88057142D02*
X121049819Y-88152380D01*
X121049819Y-88152380D02*
X121049819Y-88247618D01*
X121049819Y-88247618D02*
X121002200Y-88342856D01*
X121002200Y-88342856D02*
X120954580Y-88390475D01*
X120954580Y-88390475D02*
X120859342Y-88438094D01*
X120859342Y-88438094D02*
X120668866Y-88485713D01*
X120668866Y-88485713D02*
X120430771Y-88485713D01*
X120430771Y-88485713D02*
X120240295Y-88438094D01*
X120240295Y-88438094D02*
X120145057Y-88390475D01*
X120145057Y-88390475D02*
X120097438Y-88342856D01*
X120097438Y-88342856D02*
X120049819Y-88247618D01*
X120049819Y-87295237D02*
X120049819Y-87199999D01*
X120049819Y-87199999D02*
X120097438Y-87104761D01*
X120097438Y-87104761D02*
X120145057Y-87057142D01*
X120145057Y-87057142D02*
X120240295Y-87009523D01*
X120240295Y-87009523D02*
X120430771Y-86961904D01*
X120430771Y-86961904D02*
X120668866Y-86961904D01*
X120668866Y-86961904D02*
X120859342Y-87009523D01*
X120859342Y-87009523D02*
X120954580Y-87057142D01*
X120954580Y-87057142D02*
X121002200Y-87104761D01*
X121002200Y-87104761D02*
X121049819Y-87199999D01*
X121049819Y-87199999D02*
X121049819Y-87295237D01*
X121049819Y-87295237D02*
X121002200Y-87390475D01*
X121002200Y-87390475D02*
X120954580Y-87438094D01*
X120954580Y-87438094D02*
X120859342Y-87485713D01*
X120859342Y-87485713D02*
X120668866Y-87533332D01*
X120668866Y-87533332D02*
X120430771Y-87533332D01*
X120430771Y-87533332D02*
X120240295Y-87485713D01*
X120240295Y-87485713D02*
X120145057Y-87438094D01*
X120145057Y-87438094D02*
X120097438Y-87390475D01*
X120097438Y-87390475D02*
X120049819Y-87295237D01*
X121049819Y-86533332D02*
X120049819Y-86533332D01*
X121049819Y-85961904D02*
X120478390Y-86390475D01*
X120049819Y-85961904D02*
X120621247Y-86533332D01*
X122492142Y-81804819D02*
X122158809Y-81328628D01*
X121920714Y-81804819D02*
X121920714Y-80804819D01*
X121920714Y-80804819D02*
X122301666Y-80804819D01*
X122301666Y-80804819D02*
X122396904Y-80852438D01*
X122396904Y-80852438D02*
X122444523Y-80900057D01*
X122444523Y-80900057D02*
X122492142Y-80995295D01*
X122492142Y-80995295D02*
X122492142Y-81138152D01*
X122492142Y-81138152D02*
X122444523Y-81233390D01*
X122444523Y-81233390D02*
X122396904Y-81281009D01*
X122396904Y-81281009D02*
X122301666Y-81328628D01*
X122301666Y-81328628D02*
X121920714Y-81328628D01*
X123444523Y-81804819D02*
X122873095Y-81804819D01*
X123158809Y-81804819D02*
X123158809Y-80804819D01*
X123158809Y-80804819D02*
X123063571Y-80947676D01*
X123063571Y-80947676D02*
X122968333Y-81042914D01*
X122968333Y-81042914D02*
X122873095Y-81090533D01*
X124301666Y-80804819D02*
X124111190Y-80804819D01*
X124111190Y-80804819D02*
X124015952Y-80852438D01*
X124015952Y-80852438D02*
X123968333Y-80900057D01*
X123968333Y-80900057D02*
X123873095Y-81042914D01*
X123873095Y-81042914D02*
X123825476Y-81233390D01*
X123825476Y-81233390D02*
X123825476Y-81614342D01*
X123825476Y-81614342D02*
X123873095Y-81709580D01*
X123873095Y-81709580D02*
X123920714Y-81757200D01*
X123920714Y-81757200D02*
X124015952Y-81804819D01*
X124015952Y-81804819D02*
X124206428Y-81804819D01*
X124206428Y-81804819D02*
X124301666Y-81757200D01*
X124301666Y-81757200D02*
X124349285Y-81709580D01*
X124349285Y-81709580D02*
X124396904Y-81614342D01*
X124396904Y-81614342D02*
X124396904Y-81376247D01*
X124396904Y-81376247D02*
X124349285Y-81281009D01*
X124349285Y-81281009D02*
X124301666Y-81233390D01*
X124301666Y-81233390D02*
X124206428Y-81185771D01*
X124206428Y-81185771D02*
X124015952Y-81185771D01*
X124015952Y-81185771D02*
X123920714Y-81233390D01*
X123920714Y-81233390D02*
X123873095Y-81281009D01*
X123873095Y-81281009D02*
X123825476Y-81376247D01*
X123589819Y-88866666D02*
X123589819Y-89438094D01*
X123589819Y-89152380D02*
X122589819Y-89152380D01*
X122589819Y-89152380D02*
X122732676Y-89247618D01*
X122732676Y-89247618D02*
X122827914Y-89342856D01*
X122827914Y-89342856D02*
X122875533Y-89438094D01*
X122589819Y-88247618D02*
X122589819Y-88152380D01*
X122589819Y-88152380D02*
X122637438Y-88057142D01*
X122637438Y-88057142D02*
X122685057Y-88009523D01*
X122685057Y-88009523D02*
X122780295Y-87961904D01*
X122780295Y-87961904D02*
X122970771Y-87914285D01*
X122970771Y-87914285D02*
X123208866Y-87914285D01*
X123208866Y-87914285D02*
X123399342Y-87961904D01*
X123399342Y-87961904D02*
X123494580Y-88009523D01*
X123494580Y-88009523D02*
X123542200Y-88057142D01*
X123542200Y-88057142D02*
X123589819Y-88152380D01*
X123589819Y-88152380D02*
X123589819Y-88247618D01*
X123589819Y-88247618D02*
X123542200Y-88342856D01*
X123542200Y-88342856D02*
X123494580Y-88390475D01*
X123494580Y-88390475D02*
X123399342Y-88438094D01*
X123399342Y-88438094D02*
X123208866Y-88485713D01*
X123208866Y-88485713D02*
X122970771Y-88485713D01*
X122970771Y-88485713D02*
X122780295Y-88438094D01*
X122780295Y-88438094D02*
X122685057Y-88390475D01*
X122685057Y-88390475D02*
X122637438Y-88342856D01*
X122637438Y-88342856D02*
X122589819Y-88247618D01*
X122589819Y-87295237D02*
X122589819Y-87199999D01*
X122589819Y-87199999D02*
X122637438Y-87104761D01*
X122637438Y-87104761D02*
X122685057Y-87057142D01*
X122685057Y-87057142D02*
X122780295Y-87009523D01*
X122780295Y-87009523D02*
X122970771Y-86961904D01*
X122970771Y-86961904D02*
X123208866Y-86961904D01*
X123208866Y-86961904D02*
X123399342Y-87009523D01*
X123399342Y-87009523D02*
X123494580Y-87057142D01*
X123494580Y-87057142D02*
X123542200Y-87104761D01*
X123542200Y-87104761D02*
X123589819Y-87199999D01*
X123589819Y-87199999D02*
X123589819Y-87295237D01*
X123589819Y-87295237D02*
X123542200Y-87390475D01*
X123542200Y-87390475D02*
X123494580Y-87438094D01*
X123494580Y-87438094D02*
X123399342Y-87485713D01*
X123399342Y-87485713D02*
X123208866Y-87533332D01*
X123208866Y-87533332D02*
X122970771Y-87533332D01*
X122970771Y-87533332D02*
X122780295Y-87485713D01*
X122780295Y-87485713D02*
X122685057Y-87438094D01*
X122685057Y-87438094D02*
X122637438Y-87390475D01*
X122637438Y-87390475D02*
X122589819Y-87295237D01*
X123589819Y-86533332D02*
X122589819Y-86533332D01*
X123589819Y-85961904D02*
X123018390Y-86390475D01*
X122589819Y-85961904D02*
X123161247Y-86533332D01*
X117412142Y-81804819D02*
X117078809Y-81328628D01*
X116840714Y-81804819D02*
X116840714Y-80804819D01*
X116840714Y-80804819D02*
X117221666Y-80804819D01*
X117221666Y-80804819D02*
X117316904Y-80852438D01*
X117316904Y-80852438D02*
X117364523Y-80900057D01*
X117364523Y-80900057D02*
X117412142Y-80995295D01*
X117412142Y-80995295D02*
X117412142Y-81138152D01*
X117412142Y-81138152D02*
X117364523Y-81233390D01*
X117364523Y-81233390D02*
X117316904Y-81281009D01*
X117316904Y-81281009D02*
X117221666Y-81328628D01*
X117221666Y-81328628D02*
X116840714Y-81328628D01*
X118364523Y-81804819D02*
X117793095Y-81804819D01*
X118078809Y-81804819D02*
X118078809Y-80804819D01*
X118078809Y-80804819D02*
X117983571Y-80947676D01*
X117983571Y-80947676D02*
X117888333Y-81042914D01*
X117888333Y-81042914D02*
X117793095Y-81090533D01*
X118697857Y-80804819D02*
X119364523Y-80804819D01*
X119364523Y-80804819D02*
X118935952Y-81804819D01*
X118509819Y-88390476D02*
X118509819Y-88961904D01*
X118509819Y-88676190D02*
X117509819Y-88676190D01*
X117509819Y-88676190D02*
X117652676Y-88771428D01*
X117652676Y-88771428D02*
X117747914Y-88866666D01*
X117747914Y-88866666D02*
X117795533Y-88961904D01*
X117509819Y-87771428D02*
X117509819Y-87676190D01*
X117509819Y-87676190D02*
X117557438Y-87580952D01*
X117557438Y-87580952D02*
X117605057Y-87533333D01*
X117605057Y-87533333D02*
X117700295Y-87485714D01*
X117700295Y-87485714D02*
X117890771Y-87438095D01*
X117890771Y-87438095D02*
X118128866Y-87438095D01*
X118128866Y-87438095D02*
X118319342Y-87485714D01*
X118319342Y-87485714D02*
X118414580Y-87533333D01*
X118414580Y-87533333D02*
X118462200Y-87580952D01*
X118462200Y-87580952D02*
X118509819Y-87676190D01*
X118509819Y-87676190D02*
X118509819Y-87771428D01*
X118509819Y-87771428D02*
X118462200Y-87866666D01*
X118462200Y-87866666D02*
X118414580Y-87914285D01*
X118414580Y-87914285D02*
X118319342Y-87961904D01*
X118319342Y-87961904D02*
X118128866Y-88009523D01*
X118128866Y-88009523D02*
X117890771Y-88009523D01*
X117890771Y-88009523D02*
X117700295Y-87961904D01*
X117700295Y-87961904D02*
X117605057Y-87914285D01*
X117605057Y-87914285D02*
X117557438Y-87866666D01*
X117557438Y-87866666D02*
X117509819Y-87771428D01*
X118509819Y-87009523D02*
X117509819Y-87009523D01*
X118509819Y-86438095D02*
X117938390Y-86866666D01*
X117509819Y-86438095D02*
X118081247Y-87009523D01*
X109157142Y-109744819D02*
X108823809Y-109268628D01*
X108585714Y-109744819D02*
X108585714Y-108744819D01*
X108585714Y-108744819D02*
X108966666Y-108744819D01*
X108966666Y-108744819D02*
X109061904Y-108792438D01*
X109061904Y-108792438D02*
X109109523Y-108840057D01*
X109109523Y-108840057D02*
X109157142Y-108935295D01*
X109157142Y-108935295D02*
X109157142Y-109078152D01*
X109157142Y-109078152D02*
X109109523Y-109173390D01*
X109109523Y-109173390D02*
X109061904Y-109221009D01*
X109061904Y-109221009D02*
X108966666Y-109268628D01*
X108966666Y-109268628D02*
X108585714Y-109268628D01*
X110109523Y-109744819D02*
X109538095Y-109744819D01*
X109823809Y-109744819D02*
X109823809Y-108744819D01*
X109823809Y-108744819D02*
X109728571Y-108887676D01*
X109728571Y-108887676D02*
X109633333Y-108982914D01*
X109633333Y-108982914D02*
X109538095Y-109030533D01*
X110680952Y-109173390D02*
X110585714Y-109125771D01*
X110585714Y-109125771D02*
X110538095Y-109078152D01*
X110538095Y-109078152D02*
X110490476Y-108982914D01*
X110490476Y-108982914D02*
X110490476Y-108935295D01*
X110490476Y-108935295D02*
X110538095Y-108840057D01*
X110538095Y-108840057D02*
X110585714Y-108792438D01*
X110585714Y-108792438D02*
X110680952Y-108744819D01*
X110680952Y-108744819D02*
X110871428Y-108744819D01*
X110871428Y-108744819D02*
X110966666Y-108792438D01*
X110966666Y-108792438D02*
X111014285Y-108840057D01*
X111014285Y-108840057D02*
X111061904Y-108935295D01*
X111061904Y-108935295D02*
X111061904Y-108982914D01*
X111061904Y-108982914D02*
X111014285Y-109078152D01*
X111014285Y-109078152D02*
X110966666Y-109125771D01*
X110966666Y-109125771D02*
X110871428Y-109173390D01*
X110871428Y-109173390D02*
X110680952Y-109173390D01*
X110680952Y-109173390D02*
X110585714Y-109221009D01*
X110585714Y-109221009D02*
X110538095Y-109268628D01*
X110538095Y-109268628D02*
X110490476Y-109363866D01*
X110490476Y-109363866D02*
X110490476Y-109554342D01*
X110490476Y-109554342D02*
X110538095Y-109649580D01*
X110538095Y-109649580D02*
X110585714Y-109697200D01*
X110585714Y-109697200D02*
X110680952Y-109744819D01*
X110680952Y-109744819D02*
X110871428Y-109744819D01*
X110871428Y-109744819D02*
X110966666Y-109697200D01*
X110966666Y-109697200D02*
X111014285Y-109649580D01*
X111014285Y-109649580D02*
X111061904Y-109554342D01*
X111061904Y-109554342D02*
X111061904Y-109363866D01*
X111061904Y-109363866D02*
X111014285Y-109268628D01*
X111014285Y-109268628D02*
X110966666Y-109221009D01*
X110966666Y-109221009D02*
X110871428Y-109173390D01*
X110889819Y-116965476D02*
X110889819Y-117536904D01*
X110889819Y-117251190D02*
X109889819Y-117251190D01*
X109889819Y-117251190D02*
X110032676Y-117346428D01*
X110032676Y-117346428D02*
X110127914Y-117441666D01*
X110127914Y-117441666D02*
X110175533Y-117536904D01*
X109889819Y-116346428D02*
X109889819Y-116251190D01*
X109889819Y-116251190D02*
X109937438Y-116155952D01*
X109937438Y-116155952D02*
X109985057Y-116108333D01*
X109985057Y-116108333D02*
X110080295Y-116060714D01*
X110080295Y-116060714D02*
X110270771Y-116013095D01*
X110270771Y-116013095D02*
X110508866Y-116013095D01*
X110508866Y-116013095D02*
X110699342Y-116060714D01*
X110699342Y-116060714D02*
X110794580Y-116108333D01*
X110794580Y-116108333D02*
X110842200Y-116155952D01*
X110842200Y-116155952D02*
X110889819Y-116251190D01*
X110889819Y-116251190D02*
X110889819Y-116346428D01*
X110889819Y-116346428D02*
X110842200Y-116441666D01*
X110842200Y-116441666D02*
X110794580Y-116489285D01*
X110794580Y-116489285D02*
X110699342Y-116536904D01*
X110699342Y-116536904D02*
X110508866Y-116584523D01*
X110508866Y-116584523D02*
X110270771Y-116584523D01*
X110270771Y-116584523D02*
X110080295Y-116536904D01*
X110080295Y-116536904D02*
X109985057Y-116489285D01*
X109985057Y-116489285D02*
X109937438Y-116441666D01*
X109937438Y-116441666D02*
X109889819Y-116346428D01*
X110889819Y-115584523D02*
X109889819Y-115584523D01*
X110889819Y-115013095D02*
X110318390Y-115441666D01*
X109889819Y-115013095D02*
X110461247Y-115584523D01*
X114872142Y-94504819D02*
X114538809Y-94028628D01*
X114300714Y-94504819D02*
X114300714Y-93504819D01*
X114300714Y-93504819D02*
X114681666Y-93504819D01*
X114681666Y-93504819D02*
X114776904Y-93552438D01*
X114776904Y-93552438D02*
X114824523Y-93600057D01*
X114824523Y-93600057D02*
X114872142Y-93695295D01*
X114872142Y-93695295D02*
X114872142Y-93838152D01*
X114872142Y-93838152D02*
X114824523Y-93933390D01*
X114824523Y-93933390D02*
X114776904Y-93981009D01*
X114776904Y-93981009D02*
X114681666Y-94028628D01*
X114681666Y-94028628D02*
X114300714Y-94028628D01*
X115253095Y-93600057D02*
X115300714Y-93552438D01*
X115300714Y-93552438D02*
X115395952Y-93504819D01*
X115395952Y-93504819D02*
X115634047Y-93504819D01*
X115634047Y-93504819D02*
X115729285Y-93552438D01*
X115729285Y-93552438D02*
X115776904Y-93600057D01*
X115776904Y-93600057D02*
X115824523Y-93695295D01*
X115824523Y-93695295D02*
X115824523Y-93790533D01*
X115824523Y-93790533D02*
X115776904Y-93933390D01*
X115776904Y-93933390D02*
X115205476Y-94504819D01*
X115205476Y-94504819D02*
X115824523Y-94504819D01*
X116443571Y-93504819D02*
X116538809Y-93504819D01*
X116538809Y-93504819D02*
X116634047Y-93552438D01*
X116634047Y-93552438D02*
X116681666Y-93600057D01*
X116681666Y-93600057D02*
X116729285Y-93695295D01*
X116729285Y-93695295D02*
X116776904Y-93885771D01*
X116776904Y-93885771D02*
X116776904Y-94123866D01*
X116776904Y-94123866D02*
X116729285Y-94314342D01*
X116729285Y-94314342D02*
X116681666Y-94409580D01*
X116681666Y-94409580D02*
X116634047Y-94457200D01*
X116634047Y-94457200D02*
X116538809Y-94504819D01*
X116538809Y-94504819D02*
X116443571Y-94504819D01*
X116443571Y-94504819D02*
X116348333Y-94457200D01*
X116348333Y-94457200D02*
X116300714Y-94409580D01*
X116300714Y-94409580D02*
X116253095Y-94314342D01*
X116253095Y-94314342D02*
X116205476Y-94123866D01*
X116205476Y-94123866D02*
X116205476Y-93885771D01*
X116205476Y-93885771D02*
X116253095Y-93695295D01*
X116253095Y-93695295D02*
X116300714Y-93600057D01*
X116300714Y-93600057D02*
X116348333Y-93552438D01*
X116348333Y-93552438D02*
X116443571Y-93504819D01*
X115969819Y-88390476D02*
X115969819Y-88961904D01*
X115969819Y-88676190D02*
X114969819Y-88676190D01*
X114969819Y-88676190D02*
X115112676Y-88771428D01*
X115112676Y-88771428D02*
X115207914Y-88866666D01*
X115207914Y-88866666D02*
X115255533Y-88961904D01*
X114969819Y-87771428D02*
X114969819Y-87676190D01*
X114969819Y-87676190D02*
X115017438Y-87580952D01*
X115017438Y-87580952D02*
X115065057Y-87533333D01*
X115065057Y-87533333D02*
X115160295Y-87485714D01*
X115160295Y-87485714D02*
X115350771Y-87438095D01*
X115350771Y-87438095D02*
X115588866Y-87438095D01*
X115588866Y-87438095D02*
X115779342Y-87485714D01*
X115779342Y-87485714D02*
X115874580Y-87533333D01*
X115874580Y-87533333D02*
X115922200Y-87580952D01*
X115922200Y-87580952D02*
X115969819Y-87676190D01*
X115969819Y-87676190D02*
X115969819Y-87771428D01*
X115969819Y-87771428D02*
X115922200Y-87866666D01*
X115922200Y-87866666D02*
X115874580Y-87914285D01*
X115874580Y-87914285D02*
X115779342Y-87961904D01*
X115779342Y-87961904D02*
X115588866Y-88009523D01*
X115588866Y-88009523D02*
X115350771Y-88009523D01*
X115350771Y-88009523D02*
X115160295Y-87961904D01*
X115160295Y-87961904D02*
X115065057Y-87914285D01*
X115065057Y-87914285D02*
X115017438Y-87866666D01*
X115017438Y-87866666D02*
X114969819Y-87771428D01*
X115969819Y-87009523D02*
X114969819Y-87009523D01*
X115969819Y-86438095D02*
X115398390Y-86866666D01*
X114969819Y-86438095D02*
X115541247Y-87009523D01*
X107252142Y-123714819D02*
X106918809Y-123238628D01*
X106680714Y-123714819D02*
X106680714Y-122714819D01*
X106680714Y-122714819D02*
X107061666Y-122714819D01*
X107061666Y-122714819D02*
X107156904Y-122762438D01*
X107156904Y-122762438D02*
X107204523Y-122810057D01*
X107204523Y-122810057D02*
X107252142Y-122905295D01*
X107252142Y-122905295D02*
X107252142Y-123048152D01*
X107252142Y-123048152D02*
X107204523Y-123143390D01*
X107204523Y-123143390D02*
X107156904Y-123191009D01*
X107156904Y-123191009D02*
X107061666Y-123238628D01*
X107061666Y-123238628D02*
X106680714Y-123238628D01*
X107633095Y-122810057D02*
X107680714Y-122762438D01*
X107680714Y-122762438D02*
X107775952Y-122714819D01*
X107775952Y-122714819D02*
X108014047Y-122714819D01*
X108014047Y-122714819D02*
X108109285Y-122762438D01*
X108109285Y-122762438D02*
X108156904Y-122810057D01*
X108156904Y-122810057D02*
X108204523Y-122905295D01*
X108204523Y-122905295D02*
X108204523Y-123000533D01*
X108204523Y-123000533D02*
X108156904Y-123143390D01*
X108156904Y-123143390D02*
X107585476Y-123714819D01*
X107585476Y-123714819D02*
X108204523Y-123714819D01*
X108585476Y-122810057D02*
X108633095Y-122762438D01*
X108633095Y-122762438D02*
X108728333Y-122714819D01*
X108728333Y-122714819D02*
X108966428Y-122714819D01*
X108966428Y-122714819D02*
X109061666Y-122762438D01*
X109061666Y-122762438D02*
X109109285Y-122810057D01*
X109109285Y-122810057D02*
X109156904Y-122905295D01*
X109156904Y-122905295D02*
X109156904Y-123000533D01*
X109156904Y-123000533D02*
X109109285Y-123143390D01*
X109109285Y-123143390D02*
X108537857Y-123714819D01*
X108537857Y-123714819D02*
X109156904Y-123714819D01*
X108349819Y-116965476D02*
X108349819Y-117536904D01*
X108349819Y-117251190D02*
X107349819Y-117251190D01*
X107349819Y-117251190D02*
X107492676Y-117346428D01*
X107492676Y-117346428D02*
X107587914Y-117441666D01*
X107587914Y-117441666D02*
X107635533Y-117536904D01*
X108349819Y-116536904D02*
X107349819Y-116536904D01*
X108349819Y-115965476D02*
X107778390Y-116394047D01*
X107349819Y-115965476D02*
X107921247Y-116536904D01*
X107349819Y-115346428D02*
X107349819Y-115251190D01*
X107349819Y-115251190D02*
X107397438Y-115155952D01*
X107397438Y-115155952D02*
X107445057Y-115108333D01*
X107445057Y-115108333D02*
X107540295Y-115060714D01*
X107540295Y-115060714D02*
X107730771Y-115013095D01*
X107730771Y-115013095D02*
X107968866Y-115013095D01*
X107968866Y-115013095D02*
X108159342Y-115060714D01*
X108159342Y-115060714D02*
X108254580Y-115108333D01*
X108254580Y-115108333D02*
X108302200Y-115155952D01*
X108302200Y-115155952D02*
X108349819Y-115251190D01*
X108349819Y-115251190D02*
X108349819Y-115346428D01*
X108349819Y-115346428D02*
X108302200Y-115441666D01*
X108302200Y-115441666D02*
X108254580Y-115489285D01*
X108254580Y-115489285D02*
X108159342Y-115536904D01*
X108159342Y-115536904D02*
X107968866Y-115584523D01*
X107968866Y-115584523D02*
X107730771Y-115584523D01*
X107730771Y-115584523D02*
X107540295Y-115536904D01*
X107540295Y-115536904D02*
X107445057Y-115489285D01*
X107445057Y-115489285D02*
X107397438Y-115441666D01*
X107397438Y-115441666D02*
X107349819Y-115346428D01*
X176308333Y-127453580D02*
X176260714Y-127501200D01*
X176260714Y-127501200D02*
X176117857Y-127548819D01*
X176117857Y-127548819D02*
X176022619Y-127548819D01*
X176022619Y-127548819D02*
X175879762Y-127501200D01*
X175879762Y-127501200D02*
X175784524Y-127405961D01*
X175784524Y-127405961D02*
X175736905Y-127310723D01*
X175736905Y-127310723D02*
X175689286Y-127120247D01*
X175689286Y-127120247D02*
X175689286Y-126977390D01*
X175689286Y-126977390D02*
X175736905Y-126786914D01*
X175736905Y-126786914D02*
X175784524Y-126691676D01*
X175784524Y-126691676D02*
X175879762Y-126596438D01*
X175879762Y-126596438D02*
X176022619Y-126548819D01*
X176022619Y-126548819D02*
X176117857Y-126548819D01*
X176117857Y-126548819D02*
X176260714Y-126596438D01*
X176260714Y-126596438D02*
X176308333Y-126644057D01*
X177165476Y-126548819D02*
X176975000Y-126548819D01*
X176975000Y-126548819D02*
X176879762Y-126596438D01*
X176879762Y-126596438D02*
X176832143Y-126644057D01*
X176832143Y-126644057D02*
X176736905Y-126786914D01*
X176736905Y-126786914D02*
X176689286Y-126977390D01*
X176689286Y-126977390D02*
X176689286Y-127358342D01*
X176689286Y-127358342D02*
X176736905Y-127453580D01*
X176736905Y-127453580D02*
X176784524Y-127501200D01*
X176784524Y-127501200D02*
X176879762Y-127548819D01*
X176879762Y-127548819D02*
X177070238Y-127548819D01*
X177070238Y-127548819D02*
X177165476Y-127501200D01*
X177165476Y-127501200D02*
X177213095Y-127453580D01*
X177213095Y-127453580D02*
X177260714Y-127358342D01*
X177260714Y-127358342D02*
X177260714Y-127120247D01*
X177260714Y-127120247D02*
X177213095Y-127025009D01*
X177213095Y-127025009D02*
X177165476Y-126977390D01*
X177165476Y-126977390D02*
X177070238Y-126929771D01*
X177070238Y-126929771D02*
X176879762Y-126929771D01*
X176879762Y-126929771D02*
X176784524Y-126977390D01*
X176784524Y-126977390D02*
X176736905Y-127025009D01*
X176736905Y-127025009D02*
X176689286Y-127120247D01*
X106013333Y-101854580D02*
X105965714Y-101902200D01*
X105965714Y-101902200D02*
X105822857Y-101949819D01*
X105822857Y-101949819D02*
X105727619Y-101949819D01*
X105727619Y-101949819D02*
X105584762Y-101902200D01*
X105584762Y-101902200D02*
X105489524Y-101806961D01*
X105489524Y-101806961D02*
X105441905Y-101711723D01*
X105441905Y-101711723D02*
X105394286Y-101521247D01*
X105394286Y-101521247D02*
X105394286Y-101378390D01*
X105394286Y-101378390D02*
X105441905Y-101187914D01*
X105441905Y-101187914D02*
X105489524Y-101092676D01*
X105489524Y-101092676D02*
X105584762Y-100997438D01*
X105584762Y-100997438D02*
X105727619Y-100949819D01*
X105727619Y-100949819D02*
X105822857Y-100949819D01*
X105822857Y-100949819D02*
X105965714Y-100997438D01*
X105965714Y-100997438D02*
X106013333Y-101045057D01*
X106489524Y-101949819D02*
X106680000Y-101949819D01*
X106680000Y-101949819D02*
X106775238Y-101902200D01*
X106775238Y-101902200D02*
X106822857Y-101854580D01*
X106822857Y-101854580D02*
X106918095Y-101711723D01*
X106918095Y-101711723D02*
X106965714Y-101521247D01*
X106965714Y-101521247D02*
X106965714Y-101140295D01*
X106965714Y-101140295D02*
X106918095Y-101045057D01*
X106918095Y-101045057D02*
X106870476Y-100997438D01*
X106870476Y-100997438D02*
X106775238Y-100949819D01*
X106775238Y-100949819D02*
X106584762Y-100949819D01*
X106584762Y-100949819D02*
X106489524Y-100997438D01*
X106489524Y-100997438D02*
X106441905Y-101045057D01*
X106441905Y-101045057D02*
X106394286Y-101140295D01*
X106394286Y-101140295D02*
X106394286Y-101378390D01*
X106394286Y-101378390D02*
X106441905Y-101473628D01*
X106441905Y-101473628D02*
X106489524Y-101521247D01*
X106489524Y-101521247D02*
X106584762Y-101568866D01*
X106584762Y-101568866D02*
X106775238Y-101568866D01*
X106775238Y-101568866D02*
X106870476Y-101521247D01*
X106870476Y-101521247D02*
X106918095Y-101473628D01*
X106918095Y-101473628D02*
X106965714Y-101378390D01*
X131413333Y-96774580D02*
X131365714Y-96822200D01*
X131365714Y-96822200D02*
X131222857Y-96869819D01*
X131222857Y-96869819D02*
X131127619Y-96869819D01*
X131127619Y-96869819D02*
X130984762Y-96822200D01*
X130984762Y-96822200D02*
X130889524Y-96726961D01*
X130889524Y-96726961D02*
X130841905Y-96631723D01*
X130841905Y-96631723D02*
X130794286Y-96441247D01*
X130794286Y-96441247D02*
X130794286Y-96298390D01*
X130794286Y-96298390D02*
X130841905Y-96107914D01*
X130841905Y-96107914D02*
X130889524Y-96012676D01*
X130889524Y-96012676D02*
X130984762Y-95917438D01*
X130984762Y-95917438D02*
X131127619Y-95869819D01*
X131127619Y-95869819D02*
X131222857Y-95869819D01*
X131222857Y-95869819D02*
X131365714Y-95917438D01*
X131365714Y-95917438D02*
X131413333Y-95965057D01*
X131984762Y-96298390D02*
X131889524Y-96250771D01*
X131889524Y-96250771D02*
X131841905Y-96203152D01*
X131841905Y-96203152D02*
X131794286Y-96107914D01*
X131794286Y-96107914D02*
X131794286Y-96060295D01*
X131794286Y-96060295D02*
X131841905Y-95965057D01*
X131841905Y-95965057D02*
X131889524Y-95917438D01*
X131889524Y-95917438D02*
X131984762Y-95869819D01*
X131984762Y-95869819D02*
X132175238Y-95869819D01*
X132175238Y-95869819D02*
X132270476Y-95917438D01*
X132270476Y-95917438D02*
X132318095Y-95965057D01*
X132318095Y-95965057D02*
X132365714Y-96060295D01*
X132365714Y-96060295D02*
X132365714Y-96107914D01*
X132365714Y-96107914D02*
X132318095Y-96203152D01*
X132318095Y-96203152D02*
X132270476Y-96250771D01*
X132270476Y-96250771D02*
X132175238Y-96298390D01*
X132175238Y-96298390D02*
X131984762Y-96298390D01*
X131984762Y-96298390D02*
X131889524Y-96346009D01*
X131889524Y-96346009D02*
X131841905Y-96393628D01*
X131841905Y-96393628D02*
X131794286Y-96488866D01*
X131794286Y-96488866D02*
X131794286Y-96679342D01*
X131794286Y-96679342D02*
X131841905Y-96774580D01*
X131841905Y-96774580D02*
X131889524Y-96822200D01*
X131889524Y-96822200D02*
X131984762Y-96869819D01*
X131984762Y-96869819D02*
X132175238Y-96869819D01*
X132175238Y-96869819D02*
X132270476Y-96822200D01*
X132270476Y-96822200D02*
X132318095Y-96774580D01*
X132318095Y-96774580D02*
X132365714Y-96679342D01*
X132365714Y-96679342D02*
X132365714Y-96488866D01*
X132365714Y-96488866D02*
X132318095Y-96393628D01*
X132318095Y-96393628D02*
X132270476Y-96346009D01*
X132270476Y-96346009D02*
X132175238Y-96298390D01*
X101378333Y-92504580D02*
X101330714Y-92552200D01*
X101330714Y-92552200D02*
X101187857Y-92599819D01*
X101187857Y-92599819D02*
X101092619Y-92599819D01*
X101092619Y-92599819D02*
X100949762Y-92552200D01*
X100949762Y-92552200D02*
X100854524Y-92456961D01*
X100854524Y-92456961D02*
X100806905Y-92361723D01*
X100806905Y-92361723D02*
X100759286Y-92171247D01*
X100759286Y-92171247D02*
X100759286Y-92028390D01*
X100759286Y-92028390D02*
X100806905Y-91837914D01*
X100806905Y-91837914D02*
X100854524Y-91742676D01*
X100854524Y-91742676D02*
X100949762Y-91647438D01*
X100949762Y-91647438D02*
X101092619Y-91599819D01*
X101092619Y-91599819D02*
X101187857Y-91599819D01*
X101187857Y-91599819D02*
X101330714Y-91647438D01*
X101330714Y-91647438D02*
X101378333Y-91695057D01*
X102235476Y-91933152D02*
X102235476Y-92599819D01*
X101997381Y-91552200D02*
X101759286Y-92266485D01*
X101759286Y-92266485D02*
X102378333Y-92266485D01*
X104712142Y-109744819D02*
X104378809Y-109268628D01*
X104140714Y-109744819D02*
X104140714Y-108744819D01*
X104140714Y-108744819D02*
X104521666Y-108744819D01*
X104521666Y-108744819D02*
X104616904Y-108792438D01*
X104616904Y-108792438D02*
X104664523Y-108840057D01*
X104664523Y-108840057D02*
X104712142Y-108935295D01*
X104712142Y-108935295D02*
X104712142Y-109078152D01*
X104712142Y-109078152D02*
X104664523Y-109173390D01*
X104664523Y-109173390D02*
X104616904Y-109221009D01*
X104616904Y-109221009D02*
X104521666Y-109268628D01*
X104521666Y-109268628D02*
X104140714Y-109268628D01*
X105093095Y-108840057D02*
X105140714Y-108792438D01*
X105140714Y-108792438D02*
X105235952Y-108744819D01*
X105235952Y-108744819D02*
X105474047Y-108744819D01*
X105474047Y-108744819D02*
X105569285Y-108792438D01*
X105569285Y-108792438D02*
X105616904Y-108840057D01*
X105616904Y-108840057D02*
X105664523Y-108935295D01*
X105664523Y-108935295D02*
X105664523Y-109030533D01*
X105664523Y-109030533D02*
X105616904Y-109173390D01*
X105616904Y-109173390D02*
X105045476Y-109744819D01*
X105045476Y-109744819D02*
X105664523Y-109744819D01*
X106616904Y-109744819D02*
X106045476Y-109744819D01*
X106331190Y-109744819D02*
X106331190Y-108744819D01*
X106331190Y-108744819D02*
X106235952Y-108887676D01*
X106235952Y-108887676D02*
X106140714Y-108982914D01*
X106140714Y-108982914D02*
X106045476Y-109030533D01*
X105809819Y-116965476D02*
X105809819Y-117536904D01*
X105809819Y-117251190D02*
X104809819Y-117251190D01*
X104809819Y-117251190D02*
X104952676Y-117346428D01*
X104952676Y-117346428D02*
X105047914Y-117441666D01*
X105047914Y-117441666D02*
X105095533Y-117536904D01*
X105809819Y-116536904D02*
X104809819Y-116536904D01*
X105809819Y-115965476D02*
X105238390Y-116394047D01*
X104809819Y-115965476D02*
X105381247Y-116536904D01*
X104809819Y-115060714D02*
X104809819Y-115536904D01*
X104809819Y-115536904D02*
X105286009Y-115584523D01*
X105286009Y-115584523D02*
X105238390Y-115536904D01*
X105238390Y-115536904D02*
X105190771Y-115441666D01*
X105190771Y-115441666D02*
X105190771Y-115203571D01*
X105190771Y-115203571D02*
X105238390Y-115108333D01*
X105238390Y-115108333D02*
X105286009Y-115060714D01*
X105286009Y-115060714D02*
X105381247Y-115013095D01*
X105381247Y-115013095D02*
X105619342Y-115013095D01*
X105619342Y-115013095D02*
X105714580Y-115060714D01*
X105714580Y-115060714D02*
X105762200Y-115108333D01*
X105762200Y-115108333D02*
X105809819Y-115203571D01*
X105809819Y-115203571D02*
X105809819Y-115441666D01*
X105809819Y-115441666D02*
X105762200Y-115536904D01*
X105762200Y-115536904D02*
X105714580Y-115584523D01*
X128048333Y-123714819D02*
X127715000Y-123238628D01*
X127476905Y-123714819D02*
X127476905Y-122714819D01*
X127476905Y-122714819D02*
X127857857Y-122714819D01*
X127857857Y-122714819D02*
X127953095Y-122762438D01*
X127953095Y-122762438D02*
X128000714Y-122810057D01*
X128000714Y-122810057D02*
X128048333Y-122905295D01*
X128048333Y-122905295D02*
X128048333Y-123048152D01*
X128048333Y-123048152D02*
X128000714Y-123143390D01*
X128000714Y-123143390D02*
X127953095Y-123191009D01*
X127953095Y-123191009D02*
X127857857Y-123238628D01*
X127857857Y-123238628D02*
X127476905Y-123238628D01*
X128381667Y-122714819D02*
X129000714Y-122714819D01*
X129000714Y-122714819D02*
X128667381Y-123095771D01*
X128667381Y-123095771D02*
X128810238Y-123095771D01*
X128810238Y-123095771D02*
X128905476Y-123143390D01*
X128905476Y-123143390D02*
X128953095Y-123191009D01*
X128953095Y-123191009D02*
X129000714Y-123286247D01*
X129000714Y-123286247D02*
X129000714Y-123524342D01*
X129000714Y-123524342D02*
X128953095Y-123619580D01*
X128953095Y-123619580D02*
X128905476Y-123667200D01*
X128905476Y-123667200D02*
X128810238Y-123714819D01*
X128810238Y-123714819D02*
X128524524Y-123714819D01*
X128524524Y-123714819D02*
X128429286Y-123667200D01*
X128429286Y-123667200D02*
X128381667Y-123619580D01*
X128669819Y-116965476D02*
X128669819Y-117536904D01*
X128669819Y-117251190D02*
X127669819Y-117251190D01*
X127669819Y-117251190D02*
X127812676Y-117346428D01*
X127812676Y-117346428D02*
X127907914Y-117441666D01*
X127907914Y-117441666D02*
X127955533Y-117536904D01*
X128669819Y-116536904D02*
X127669819Y-116536904D01*
X128669819Y-115965476D02*
X128098390Y-116394047D01*
X127669819Y-115965476D02*
X128241247Y-116536904D01*
X127669819Y-115346428D02*
X127669819Y-115251190D01*
X127669819Y-115251190D02*
X127717438Y-115155952D01*
X127717438Y-115155952D02*
X127765057Y-115108333D01*
X127765057Y-115108333D02*
X127860295Y-115060714D01*
X127860295Y-115060714D02*
X128050771Y-115013095D01*
X128050771Y-115013095D02*
X128288866Y-115013095D01*
X128288866Y-115013095D02*
X128479342Y-115060714D01*
X128479342Y-115060714D02*
X128574580Y-115108333D01*
X128574580Y-115108333D02*
X128622200Y-115155952D01*
X128622200Y-115155952D02*
X128669819Y-115251190D01*
X128669819Y-115251190D02*
X128669819Y-115346428D01*
X128669819Y-115346428D02*
X128622200Y-115441666D01*
X128622200Y-115441666D02*
X128574580Y-115489285D01*
X128574580Y-115489285D02*
X128479342Y-115536904D01*
X128479342Y-115536904D02*
X128288866Y-115584523D01*
X128288866Y-115584523D02*
X128050771Y-115584523D01*
X128050771Y-115584523D02*
X127860295Y-115536904D01*
X127860295Y-115536904D02*
X127765057Y-115489285D01*
X127765057Y-115489285D02*
X127717438Y-115441666D01*
X127717438Y-115441666D02*
X127669819Y-115346428D01*
X130937142Y-84074580D02*
X130889523Y-84122200D01*
X130889523Y-84122200D02*
X130746666Y-84169819D01*
X130746666Y-84169819D02*
X130651428Y-84169819D01*
X130651428Y-84169819D02*
X130508571Y-84122200D01*
X130508571Y-84122200D02*
X130413333Y-84026961D01*
X130413333Y-84026961D02*
X130365714Y-83931723D01*
X130365714Y-83931723D02*
X130318095Y-83741247D01*
X130318095Y-83741247D02*
X130318095Y-83598390D01*
X130318095Y-83598390D02*
X130365714Y-83407914D01*
X130365714Y-83407914D02*
X130413333Y-83312676D01*
X130413333Y-83312676D02*
X130508571Y-83217438D01*
X130508571Y-83217438D02*
X130651428Y-83169819D01*
X130651428Y-83169819D02*
X130746666Y-83169819D01*
X130746666Y-83169819D02*
X130889523Y-83217438D01*
X130889523Y-83217438D02*
X130937142Y-83265057D01*
X131889523Y-84169819D02*
X131318095Y-84169819D01*
X131603809Y-84169819D02*
X131603809Y-83169819D01*
X131603809Y-83169819D02*
X131508571Y-83312676D01*
X131508571Y-83312676D02*
X131413333Y-83407914D01*
X131413333Y-83407914D02*
X131318095Y-83455533D01*
X132841904Y-84169819D02*
X132270476Y-84169819D01*
X132556190Y-84169819D02*
X132556190Y-83169819D01*
X132556190Y-83169819D02*
X132460952Y-83312676D01*
X132460952Y-83312676D02*
X132365714Y-83407914D01*
X132365714Y-83407914D02*
X132270476Y-83455533D01*
X101727142Y-121079580D02*
X101679523Y-121127200D01*
X101679523Y-121127200D02*
X101536666Y-121174819D01*
X101536666Y-121174819D02*
X101441428Y-121174819D01*
X101441428Y-121174819D02*
X101298571Y-121127200D01*
X101298571Y-121127200D02*
X101203333Y-121031961D01*
X101203333Y-121031961D02*
X101155714Y-120936723D01*
X101155714Y-120936723D02*
X101108095Y-120746247D01*
X101108095Y-120746247D02*
X101108095Y-120603390D01*
X101108095Y-120603390D02*
X101155714Y-120412914D01*
X101155714Y-120412914D02*
X101203333Y-120317676D01*
X101203333Y-120317676D02*
X101298571Y-120222438D01*
X101298571Y-120222438D02*
X101441428Y-120174819D01*
X101441428Y-120174819D02*
X101536666Y-120174819D01*
X101536666Y-120174819D02*
X101679523Y-120222438D01*
X101679523Y-120222438D02*
X101727142Y-120270057D01*
X102679523Y-121174819D02*
X102108095Y-121174819D01*
X102393809Y-121174819D02*
X102393809Y-120174819D01*
X102393809Y-120174819D02*
X102298571Y-120317676D01*
X102298571Y-120317676D02*
X102203333Y-120412914D01*
X102203333Y-120412914D02*
X102108095Y-120460533D01*
X103298571Y-120174819D02*
X103393809Y-120174819D01*
X103393809Y-120174819D02*
X103489047Y-120222438D01*
X103489047Y-120222438D02*
X103536666Y-120270057D01*
X103536666Y-120270057D02*
X103584285Y-120365295D01*
X103584285Y-120365295D02*
X103631904Y-120555771D01*
X103631904Y-120555771D02*
X103631904Y-120793866D01*
X103631904Y-120793866D02*
X103584285Y-120984342D01*
X103584285Y-120984342D02*
X103536666Y-121079580D01*
X103536666Y-121079580D02*
X103489047Y-121127200D01*
X103489047Y-121127200D02*
X103393809Y-121174819D01*
X103393809Y-121174819D02*
X103298571Y-121174819D01*
X103298571Y-121174819D02*
X103203333Y-121127200D01*
X103203333Y-121127200D02*
X103155714Y-121079580D01*
X103155714Y-121079580D02*
X103108095Y-120984342D01*
X103108095Y-120984342D02*
X103060476Y-120793866D01*
X103060476Y-120793866D02*
X103060476Y-120555771D01*
X103060476Y-120555771D02*
X103108095Y-120365295D01*
X103108095Y-120365295D02*
X103155714Y-120270057D01*
X103155714Y-120270057D02*
X103203333Y-120222438D01*
X103203333Y-120222438D02*
X103298571Y-120174819D01*
X107252142Y-81804819D02*
X106918809Y-81328628D01*
X106680714Y-81804819D02*
X106680714Y-80804819D01*
X106680714Y-80804819D02*
X107061666Y-80804819D01*
X107061666Y-80804819D02*
X107156904Y-80852438D01*
X107156904Y-80852438D02*
X107204523Y-80900057D01*
X107204523Y-80900057D02*
X107252142Y-80995295D01*
X107252142Y-80995295D02*
X107252142Y-81138152D01*
X107252142Y-81138152D02*
X107204523Y-81233390D01*
X107204523Y-81233390D02*
X107156904Y-81281009D01*
X107156904Y-81281009D02*
X107061666Y-81328628D01*
X107061666Y-81328628D02*
X106680714Y-81328628D01*
X108204523Y-81804819D02*
X107633095Y-81804819D01*
X107918809Y-81804819D02*
X107918809Y-80804819D01*
X107918809Y-80804819D02*
X107823571Y-80947676D01*
X107823571Y-80947676D02*
X107728333Y-81042914D01*
X107728333Y-81042914D02*
X107633095Y-81090533D01*
X108680714Y-81804819D02*
X108871190Y-81804819D01*
X108871190Y-81804819D02*
X108966428Y-81757200D01*
X108966428Y-81757200D02*
X109014047Y-81709580D01*
X109014047Y-81709580D02*
X109109285Y-81566723D01*
X109109285Y-81566723D02*
X109156904Y-81376247D01*
X109156904Y-81376247D02*
X109156904Y-80995295D01*
X109156904Y-80995295D02*
X109109285Y-80900057D01*
X109109285Y-80900057D02*
X109061666Y-80852438D01*
X109061666Y-80852438D02*
X108966428Y-80804819D01*
X108966428Y-80804819D02*
X108775952Y-80804819D01*
X108775952Y-80804819D02*
X108680714Y-80852438D01*
X108680714Y-80852438D02*
X108633095Y-80900057D01*
X108633095Y-80900057D02*
X108585476Y-80995295D01*
X108585476Y-80995295D02*
X108585476Y-81233390D01*
X108585476Y-81233390D02*
X108633095Y-81328628D01*
X108633095Y-81328628D02*
X108680714Y-81376247D01*
X108680714Y-81376247D02*
X108775952Y-81423866D01*
X108775952Y-81423866D02*
X108966428Y-81423866D01*
X108966428Y-81423866D02*
X109061666Y-81376247D01*
X109061666Y-81376247D02*
X109109285Y-81328628D01*
X109109285Y-81328628D02*
X109156904Y-81233390D01*
X108349819Y-88390476D02*
X108349819Y-88961904D01*
X108349819Y-88676190D02*
X107349819Y-88676190D01*
X107349819Y-88676190D02*
X107492676Y-88771428D01*
X107492676Y-88771428D02*
X107587914Y-88866666D01*
X107587914Y-88866666D02*
X107635533Y-88961904D01*
X107349819Y-87771428D02*
X107349819Y-87676190D01*
X107349819Y-87676190D02*
X107397438Y-87580952D01*
X107397438Y-87580952D02*
X107445057Y-87533333D01*
X107445057Y-87533333D02*
X107540295Y-87485714D01*
X107540295Y-87485714D02*
X107730771Y-87438095D01*
X107730771Y-87438095D02*
X107968866Y-87438095D01*
X107968866Y-87438095D02*
X108159342Y-87485714D01*
X108159342Y-87485714D02*
X108254580Y-87533333D01*
X108254580Y-87533333D02*
X108302200Y-87580952D01*
X108302200Y-87580952D02*
X108349819Y-87676190D01*
X108349819Y-87676190D02*
X108349819Y-87771428D01*
X108349819Y-87771428D02*
X108302200Y-87866666D01*
X108302200Y-87866666D02*
X108254580Y-87914285D01*
X108254580Y-87914285D02*
X108159342Y-87961904D01*
X108159342Y-87961904D02*
X107968866Y-88009523D01*
X107968866Y-88009523D02*
X107730771Y-88009523D01*
X107730771Y-88009523D02*
X107540295Y-87961904D01*
X107540295Y-87961904D02*
X107445057Y-87914285D01*
X107445057Y-87914285D02*
X107397438Y-87866666D01*
X107397438Y-87866666D02*
X107349819Y-87771428D01*
X108349819Y-87009523D02*
X107349819Y-87009523D01*
X108349819Y-86438095D02*
X107778390Y-86866666D01*
X107349819Y-86438095D02*
X107921247Y-87009523D01*
X110268333Y-94758819D02*
X109935000Y-94282628D01*
X109696905Y-94758819D02*
X109696905Y-93758819D01*
X109696905Y-93758819D02*
X110077857Y-93758819D01*
X110077857Y-93758819D02*
X110173095Y-93806438D01*
X110173095Y-93806438D02*
X110220714Y-93854057D01*
X110220714Y-93854057D02*
X110268333Y-93949295D01*
X110268333Y-93949295D02*
X110268333Y-94092152D01*
X110268333Y-94092152D02*
X110220714Y-94187390D01*
X110220714Y-94187390D02*
X110173095Y-94235009D01*
X110173095Y-94235009D02*
X110077857Y-94282628D01*
X110077857Y-94282628D02*
X109696905Y-94282628D01*
X110601667Y-93758819D02*
X111268333Y-93758819D01*
X111268333Y-93758819D02*
X110839762Y-94758819D01*
X110889819Y-88461904D02*
X110889819Y-89033332D01*
X110889819Y-88747618D02*
X109889819Y-88747618D01*
X109889819Y-88747618D02*
X110032676Y-88842856D01*
X110032676Y-88842856D02*
X110127914Y-88938094D01*
X110127914Y-88938094D02*
X110175533Y-89033332D01*
X110889819Y-88033332D02*
X109889819Y-88033332D01*
X109889819Y-88033332D02*
X110604104Y-87699999D01*
X110604104Y-87699999D02*
X109889819Y-87366666D01*
X109889819Y-87366666D02*
X110889819Y-87366666D01*
X109889819Y-86414285D02*
X109889819Y-86890475D01*
X109889819Y-86890475D02*
X110366009Y-86938094D01*
X110366009Y-86938094D02*
X110318390Y-86890475D01*
X110318390Y-86890475D02*
X110270771Y-86795237D01*
X110270771Y-86795237D02*
X110270771Y-86557142D01*
X110270771Y-86557142D02*
X110318390Y-86461904D01*
X110318390Y-86461904D02*
X110366009Y-86414285D01*
X110366009Y-86414285D02*
X110461247Y-86366666D01*
X110461247Y-86366666D02*
X110699342Y-86366666D01*
X110699342Y-86366666D02*
X110794580Y-86414285D01*
X110794580Y-86414285D02*
X110842200Y-86461904D01*
X110842200Y-86461904D02*
X110889819Y-86557142D01*
X110889819Y-86557142D02*
X110889819Y-86795237D01*
X110889819Y-86795237D02*
X110842200Y-86890475D01*
X110842200Y-86890475D02*
X110794580Y-86938094D01*
X138668810Y-109054819D02*
X138668810Y-108054819D01*
X139716428Y-108959580D02*
X139668809Y-109007200D01*
X139668809Y-109007200D02*
X139525952Y-109054819D01*
X139525952Y-109054819D02*
X139430714Y-109054819D01*
X139430714Y-109054819D02*
X139287857Y-109007200D01*
X139287857Y-109007200D02*
X139192619Y-108911961D01*
X139192619Y-108911961D02*
X139145000Y-108816723D01*
X139145000Y-108816723D02*
X139097381Y-108626247D01*
X139097381Y-108626247D02*
X139097381Y-108483390D01*
X139097381Y-108483390D02*
X139145000Y-108292914D01*
X139145000Y-108292914D02*
X139192619Y-108197676D01*
X139192619Y-108197676D02*
X139287857Y-108102438D01*
X139287857Y-108102438D02*
X139430714Y-108054819D01*
X139430714Y-108054819D02*
X139525952Y-108054819D01*
X139525952Y-108054819D02*
X139668809Y-108102438D01*
X139668809Y-108102438D02*
X139716428Y-108150057D01*
X140668809Y-109054819D02*
X140097381Y-109054819D01*
X140383095Y-109054819D02*
X140383095Y-108054819D01*
X140383095Y-108054819D02*
X140287857Y-108197676D01*
X140287857Y-108197676D02*
X140192619Y-108292914D01*
X140192619Y-108292914D02*
X140097381Y-108340533D01*
X154416904Y-117634819D02*
X154226428Y-117634819D01*
X154226428Y-117634819D02*
X154131190Y-117682438D01*
X154131190Y-117682438D02*
X154083571Y-117730057D01*
X154083571Y-117730057D02*
X153988333Y-117872914D01*
X153988333Y-117872914D02*
X153940714Y-118063390D01*
X153940714Y-118063390D02*
X153940714Y-118444342D01*
X153940714Y-118444342D02*
X153988333Y-118539580D01*
X153988333Y-118539580D02*
X154035952Y-118587200D01*
X154035952Y-118587200D02*
X154131190Y-118634819D01*
X154131190Y-118634819D02*
X154321666Y-118634819D01*
X154321666Y-118634819D02*
X154416904Y-118587200D01*
X154416904Y-118587200D02*
X154464523Y-118539580D01*
X154464523Y-118539580D02*
X154512142Y-118444342D01*
X154512142Y-118444342D02*
X154512142Y-118206247D01*
X154512142Y-118206247D02*
X154464523Y-118111009D01*
X154464523Y-118111009D02*
X154416904Y-118063390D01*
X154416904Y-118063390D02*
X154321666Y-118015771D01*
X154321666Y-118015771D02*
X154131190Y-118015771D01*
X154131190Y-118015771D02*
X154035952Y-118063390D01*
X154035952Y-118063390D02*
X153988333Y-118111009D01*
X153988333Y-118111009D02*
X153940714Y-118206247D01*
X155083571Y-118063390D02*
X154988333Y-118015771D01*
X154988333Y-118015771D02*
X154940714Y-117968152D01*
X154940714Y-117968152D02*
X154893095Y-117872914D01*
X154893095Y-117872914D02*
X154893095Y-117825295D01*
X154893095Y-117825295D02*
X154940714Y-117730057D01*
X154940714Y-117730057D02*
X154988333Y-117682438D01*
X154988333Y-117682438D02*
X155083571Y-117634819D01*
X155083571Y-117634819D02*
X155274047Y-117634819D01*
X155274047Y-117634819D02*
X155369285Y-117682438D01*
X155369285Y-117682438D02*
X155416904Y-117730057D01*
X155416904Y-117730057D02*
X155464523Y-117825295D01*
X155464523Y-117825295D02*
X155464523Y-117872914D01*
X155464523Y-117872914D02*
X155416904Y-117968152D01*
X155416904Y-117968152D02*
X155369285Y-118015771D01*
X155369285Y-118015771D02*
X155274047Y-118063390D01*
X155274047Y-118063390D02*
X155083571Y-118063390D01*
X155083571Y-118063390D02*
X154988333Y-118111009D01*
X154988333Y-118111009D02*
X154940714Y-118158628D01*
X154940714Y-118158628D02*
X154893095Y-118253866D01*
X154893095Y-118253866D02*
X154893095Y-118444342D01*
X154893095Y-118444342D02*
X154940714Y-118539580D01*
X154940714Y-118539580D02*
X154988333Y-118587200D01*
X154988333Y-118587200D02*
X155083571Y-118634819D01*
X155083571Y-118634819D02*
X155274047Y-118634819D01*
X155274047Y-118634819D02*
X155369285Y-118587200D01*
X155369285Y-118587200D02*
X155416904Y-118539580D01*
X155416904Y-118539580D02*
X155464523Y-118444342D01*
X155464523Y-118444342D02*
X155464523Y-118253866D01*
X155464523Y-118253866D02*
X155416904Y-118158628D01*
X155416904Y-118158628D02*
X155369285Y-118111009D01*
X155369285Y-118111009D02*
X155274047Y-118063390D01*
X156226428Y-118111009D02*
X156369285Y-118158628D01*
X156369285Y-118158628D02*
X156416904Y-118206247D01*
X156416904Y-118206247D02*
X156464523Y-118301485D01*
X156464523Y-118301485D02*
X156464523Y-118444342D01*
X156464523Y-118444342D02*
X156416904Y-118539580D01*
X156416904Y-118539580D02*
X156369285Y-118587200D01*
X156369285Y-118587200D02*
X156274047Y-118634819D01*
X156274047Y-118634819D02*
X155893095Y-118634819D01*
X155893095Y-118634819D02*
X155893095Y-117634819D01*
X155893095Y-117634819D02*
X156226428Y-117634819D01*
X156226428Y-117634819D02*
X156321666Y-117682438D01*
X156321666Y-117682438D02*
X156369285Y-117730057D01*
X156369285Y-117730057D02*
X156416904Y-117825295D01*
X156416904Y-117825295D02*
X156416904Y-117920533D01*
X156416904Y-117920533D02*
X156369285Y-118015771D01*
X156369285Y-118015771D02*
X156321666Y-118063390D01*
X156321666Y-118063390D02*
X156226428Y-118111009D01*
X156226428Y-118111009D02*
X155893095Y-118111009D01*
X157369285Y-117634819D02*
X156893095Y-117634819D01*
X156893095Y-117634819D02*
X156845476Y-118111009D01*
X156845476Y-118111009D02*
X156893095Y-118063390D01*
X156893095Y-118063390D02*
X156988333Y-118015771D01*
X156988333Y-118015771D02*
X157226428Y-118015771D01*
X157226428Y-118015771D02*
X157321666Y-118063390D01*
X157321666Y-118063390D02*
X157369285Y-118111009D01*
X157369285Y-118111009D02*
X157416904Y-118206247D01*
X157416904Y-118206247D02*
X157416904Y-118444342D01*
X157416904Y-118444342D02*
X157369285Y-118539580D01*
X157369285Y-118539580D02*
X157321666Y-118587200D01*
X157321666Y-118587200D02*
X157226428Y-118634819D01*
X157226428Y-118634819D02*
X156988333Y-118634819D01*
X156988333Y-118634819D02*
X156893095Y-118587200D01*
X156893095Y-118587200D02*
X156845476Y-118539580D01*
X158274047Y-117968152D02*
X158274047Y-118634819D01*
X158035952Y-117587200D02*
X157797857Y-118301485D01*
X157797857Y-118301485D02*
X158416904Y-118301485D01*
X113268810Y-105704819D02*
X113268810Y-104704819D01*
X114316428Y-105609580D02*
X114268809Y-105657200D01*
X114268809Y-105657200D02*
X114125952Y-105704819D01*
X114125952Y-105704819D02*
X114030714Y-105704819D01*
X114030714Y-105704819D02*
X113887857Y-105657200D01*
X113887857Y-105657200D02*
X113792619Y-105561961D01*
X113792619Y-105561961D02*
X113745000Y-105466723D01*
X113745000Y-105466723D02*
X113697381Y-105276247D01*
X113697381Y-105276247D02*
X113697381Y-105133390D01*
X113697381Y-105133390D02*
X113745000Y-104942914D01*
X113745000Y-104942914D02*
X113792619Y-104847676D01*
X113792619Y-104847676D02*
X113887857Y-104752438D01*
X113887857Y-104752438D02*
X114030714Y-104704819D01*
X114030714Y-104704819D02*
X114125952Y-104704819D01*
X114125952Y-104704819D02*
X114268809Y-104752438D01*
X114268809Y-104752438D02*
X114316428Y-104800057D01*
X115221190Y-104704819D02*
X114745000Y-104704819D01*
X114745000Y-104704819D02*
X114697381Y-105181009D01*
X114697381Y-105181009D02*
X114745000Y-105133390D01*
X114745000Y-105133390D02*
X114840238Y-105085771D01*
X114840238Y-105085771D02*
X115078333Y-105085771D01*
X115078333Y-105085771D02*
X115173571Y-105133390D01*
X115173571Y-105133390D02*
X115221190Y-105181009D01*
X115221190Y-105181009D02*
X115268809Y-105276247D01*
X115268809Y-105276247D02*
X115268809Y-105514342D01*
X115268809Y-105514342D02*
X115221190Y-105609580D01*
X115221190Y-105609580D02*
X115173571Y-105657200D01*
X115173571Y-105657200D02*
X115078333Y-105704819D01*
X115078333Y-105704819D02*
X114840238Y-105704819D01*
X114840238Y-105704819D02*
X114745000Y-105657200D01*
X114745000Y-105657200D02*
X114697381Y-105609580D01*
X118904523Y-99989819D02*
X118428333Y-99989819D01*
X118428333Y-99989819D02*
X118428333Y-98989819D01*
X119237857Y-99989819D02*
X119237857Y-98989819D01*
X119237857Y-98989819D02*
X119571190Y-99704104D01*
X119571190Y-99704104D02*
X119904523Y-98989819D01*
X119904523Y-98989819D02*
X119904523Y-99989819D01*
X120285476Y-98989819D02*
X120904523Y-98989819D01*
X120904523Y-98989819D02*
X120571190Y-99370771D01*
X120571190Y-99370771D02*
X120714047Y-99370771D01*
X120714047Y-99370771D02*
X120809285Y-99418390D01*
X120809285Y-99418390D02*
X120856904Y-99466009D01*
X120856904Y-99466009D02*
X120904523Y-99561247D01*
X120904523Y-99561247D02*
X120904523Y-99799342D01*
X120904523Y-99799342D02*
X120856904Y-99894580D01*
X120856904Y-99894580D02*
X120809285Y-99942200D01*
X120809285Y-99942200D02*
X120714047Y-99989819D01*
X120714047Y-99989819D02*
X120428333Y-99989819D01*
X120428333Y-99989819D02*
X120333095Y-99942200D01*
X120333095Y-99942200D02*
X120285476Y-99894580D01*
X121856904Y-99989819D02*
X121285476Y-99989819D01*
X121571190Y-99989819D02*
X121571190Y-98989819D01*
X121571190Y-98989819D02*
X121475952Y-99132676D01*
X121475952Y-99132676D02*
X121380714Y-99227914D01*
X121380714Y-99227914D02*
X121285476Y-99275533D01*
X122333095Y-99989819D02*
X122523571Y-99989819D01*
X122523571Y-99989819D02*
X122618809Y-99942200D01*
X122618809Y-99942200D02*
X122666428Y-99894580D01*
X122666428Y-99894580D02*
X122761666Y-99751723D01*
X122761666Y-99751723D02*
X122809285Y-99561247D01*
X122809285Y-99561247D02*
X122809285Y-99180295D01*
X122809285Y-99180295D02*
X122761666Y-99085057D01*
X122761666Y-99085057D02*
X122714047Y-99037438D01*
X122714047Y-99037438D02*
X122618809Y-98989819D01*
X122618809Y-98989819D02*
X122428333Y-98989819D01*
X122428333Y-98989819D02*
X122333095Y-99037438D01*
X122333095Y-99037438D02*
X122285476Y-99085057D01*
X122285476Y-99085057D02*
X122237857Y-99180295D01*
X122237857Y-99180295D02*
X122237857Y-99418390D01*
X122237857Y-99418390D02*
X122285476Y-99513628D01*
X122285476Y-99513628D02*
X122333095Y-99561247D01*
X122333095Y-99561247D02*
X122428333Y-99608866D01*
X122428333Y-99608866D02*
X122618809Y-99608866D01*
X122618809Y-99608866D02*
X122714047Y-99561247D01*
X122714047Y-99561247D02*
X122761666Y-99513628D01*
X122761666Y-99513628D02*
X122809285Y-99418390D01*
X106918810Y-135144819D02*
X106918810Y-134144819D01*
X107966428Y-135049580D02*
X107918809Y-135097200D01*
X107918809Y-135097200D02*
X107775952Y-135144819D01*
X107775952Y-135144819D02*
X107680714Y-135144819D01*
X107680714Y-135144819D02*
X107537857Y-135097200D01*
X107537857Y-135097200D02*
X107442619Y-135001961D01*
X107442619Y-135001961D02*
X107395000Y-134906723D01*
X107395000Y-134906723D02*
X107347381Y-134716247D01*
X107347381Y-134716247D02*
X107347381Y-134573390D01*
X107347381Y-134573390D02*
X107395000Y-134382914D01*
X107395000Y-134382914D02*
X107442619Y-134287676D01*
X107442619Y-134287676D02*
X107537857Y-134192438D01*
X107537857Y-134192438D02*
X107680714Y-134144819D01*
X107680714Y-134144819D02*
X107775952Y-134144819D01*
X107775952Y-134144819D02*
X107918809Y-134192438D01*
X107918809Y-134192438D02*
X107966428Y-134240057D01*
X108823571Y-134144819D02*
X108633095Y-134144819D01*
X108633095Y-134144819D02*
X108537857Y-134192438D01*
X108537857Y-134192438D02*
X108490238Y-134240057D01*
X108490238Y-134240057D02*
X108395000Y-134382914D01*
X108395000Y-134382914D02*
X108347381Y-134573390D01*
X108347381Y-134573390D02*
X108347381Y-134954342D01*
X108347381Y-134954342D02*
X108395000Y-135049580D01*
X108395000Y-135049580D02*
X108442619Y-135097200D01*
X108442619Y-135097200D02*
X108537857Y-135144819D01*
X108537857Y-135144819D02*
X108728333Y-135144819D01*
X108728333Y-135144819D02*
X108823571Y-135097200D01*
X108823571Y-135097200D02*
X108871190Y-135049580D01*
X108871190Y-135049580D02*
X108918809Y-134954342D01*
X108918809Y-134954342D02*
X108918809Y-134716247D01*
X108918809Y-134716247D02*
X108871190Y-134621009D01*
X108871190Y-134621009D02*
X108823571Y-134573390D01*
X108823571Y-134573390D02*
X108728333Y-134525771D01*
X108728333Y-134525771D02*
X108537857Y-134525771D01*
X108537857Y-134525771D02*
X108442619Y-134573390D01*
X108442619Y-134573390D02*
X108395000Y-134621009D01*
X108395000Y-134621009D02*
X108347381Y-134716247D01*
X113824523Y-129429819D02*
X113348333Y-129429819D01*
X113348333Y-129429819D02*
X113348333Y-128429819D01*
X114157857Y-129429819D02*
X114157857Y-128429819D01*
X114157857Y-128429819D02*
X114491190Y-129144104D01*
X114491190Y-129144104D02*
X114824523Y-128429819D01*
X114824523Y-128429819D02*
X114824523Y-129429819D01*
X115205476Y-128429819D02*
X115824523Y-128429819D01*
X115824523Y-128429819D02*
X115491190Y-128810771D01*
X115491190Y-128810771D02*
X115634047Y-128810771D01*
X115634047Y-128810771D02*
X115729285Y-128858390D01*
X115729285Y-128858390D02*
X115776904Y-128906009D01*
X115776904Y-128906009D02*
X115824523Y-129001247D01*
X115824523Y-129001247D02*
X115824523Y-129239342D01*
X115824523Y-129239342D02*
X115776904Y-129334580D01*
X115776904Y-129334580D02*
X115729285Y-129382200D01*
X115729285Y-129382200D02*
X115634047Y-129429819D01*
X115634047Y-129429819D02*
X115348333Y-129429819D01*
X115348333Y-129429819D02*
X115253095Y-129382200D01*
X115253095Y-129382200D02*
X115205476Y-129334580D01*
X116776904Y-129429819D02*
X116205476Y-129429819D01*
X116491190Y-129429819D02*
X116491190Y-128429819D01*
X116491190Y-128429819D02*
X116395952Y-128572676D01*
X116395952Y-128572676D02*
X116300714Y-128667914D01*
X116300714Y-128667914D02*
X116205476Y-128715533D01*
X117253095Y-129429819D02*
X117443571Y-129429819D01*
X117443571Y-129429819D02*
X117538809Y-129382200D01*
X117538809Y-129382200D02*
X117586428Y-129334580D01*
X117586428Y-129334580D02*
X117681666Y-129191723D01*
X117681666Y-129191723D02*
X117729285Y-129001247D01*
X117729285Y-129001247D02*
X117729285Y-128620295D01*
X117729285Y-128620295D02*
X117681666Y-128525057D01*
X117681666Y-128525057D02*
X117634047Y-128477438D01*
X117634047Y-128477438D02*
X117538809Y-128429819D01*
X117538809Y-128429819D02*
X117348333Y-128429819D01*
X117348333Y-128429819D02*
X117253095Y-128477438D01*
X117253095Y-128477438D02*
X117205476Y-128525057D01*
X117205476Y-128525057D02*
X117157857Y-128620295D01*
X117157857Y-128620295D02*
X117157857Y-128858390D01*
X117157857Y-128858390D02*
X117205476Y-128953628D01*
X117205476Y-128953628D02*
X117253095Y-129001247D01*
X117253095Y-129001247D02*
X117348333Y-129048866D01*
X117348333Y-129048866D02*
X117538809Y-129048866D01*
X117538809Y-129048866D02*
X117634047Y-129001247D01*
X117634047Y-129001247D02*
X117681666Y-128953628D01*
X117681666Y-128953628D02*
X117729285Y-128858390D01*
X134303142Y-133874819D02*
X133969809Y-133398628D01*
X133731714Y-133874819D02*
X133731714Y-132874819D01*
X133731714Y-132874819D02*
X134112666Y-132874819D01*
X134112666Y-132874819D02*
X134207904Y-132922438D01*
X134207904Y-132922438D02*
X134255523Y-132970057D01*
X134255523Y-132970057D02*
X134303142Y-133065295D01*
X134303142Y-133065295D02*
X134303142Y-133208152D01*
X134303142Y-133208152D02*
X134255523Y-133303390D01*
X134255523Y-133303390D02*
X134207904Y-133351009D01*
X134207904Y-133351009D02*
X134112666Y-133398628D01*
X134112666Y-133398628D02*
X133731714Y-133398628D01*
X134684095Y-132970057D02*
X134731714Y-132922438D01*
X134731714Y-132922438D02*
X134826952Y-132874819D01*
X134826952Y-132874819D02*
X135065047Y-132874819D01*
X135065047Y-132874819D02*
X135160285Y-132922438D01*
X135160285Y-132922438D02*
X135207904Y-132970057D01*
X135207904Y-132970057D02*
X135255523Y-133065295D01*
X135255523Y-133065295D02*
X135255523Y-133160533D01*
X135255523Y-133160533D02*
X135207904Y-133303390D01*
X135207904Y-133303390D02*
X134636476Y-133874819D01*
X134636476Y-133874819D02*
X135255523Y-133874819D01*
X136112666Y-133208152D02*
X136112666Y-133874819D01*
X135874571Y-132827200D02*
X135636476Y-133541485D01*
X135636476Y-133541485D02*
X136255523Y-133541485D01*
X134353152Y-127220714D02*
X135019819Y-127220714D01*
X133972200Y-127458809D02*
X134686485Y-127696904D01*
X134686485Y-127696904D02*
X134686485Y-127077857D01*
X135019819Y-126696904D02*
X134019819Y-126696904D01*
X135019819Y-126125476D02*
X134448390Y-126554047D01*
X134019819Y-126125476D02*
X134591247Y-126696904D01*
X134019819Y-125792142D02*
X134019819Y-125125476D01*
X134019819Y-125125476D02*
X135019819Y-125554047D01*
X131001142Y-133898819D02*
X130667809Y-133422628D01*
X130429714Y-133898819D02*
X130429714Y-132898819D01*
X130429714Y-132898819D02*
X130810666Y-132898819D01*
X130810666Y-132898819D02*
X130905904Y-132946438D01*
X130905904Y-132946438D02*
X130953523Y-132994057D01*
X130953523Y-132994057D02*
X131001142Y-133089295D01*
X131001142Y-133089295D02*
X131001142Y-133232152D01*
X131001142Y-133232152D02*
X130953523Y-133327390D01*
X130953523Y-133327390D02*
X130905904Y-133375009D01*
X130905904Y-133375009D02*
X130810666Y-133422628D01*
X130810666Y-133422628D02*
X130429714Y-133422628D01*
X131382095Y-132994057D02*
X131429714Y-132946438D01*
X131429714Y-132946438D02*
X131524952Y-132898819D01*
X131524952Y-132898819D02*
X131763047Y-132898819D01*
X131763047Y-132898819D02*
X131858285Y-132946438D01*
X131858285Y-132946438D02*
X131905904Y-132994057D01*
X131905904Y-132994057D02*
X131953523Y-133089295D01*
X131953523Y-133089295D02*
X131953523Y-133184533D01*
X131953523Y-133184533D02*
X131905904Y-133327390D01*
X131905904Y-133327390D02*
X131334476Y-133898819D01*
X131334476Y-133898819D02*
X131953523Y-133898819D01*
X132286857Y-132898819D02*
X132905904Y-132898819D01*
X132905904Y-132898819D02*
X132572571Y-133279771D01*
X132572571Y-133279771D02*
X132715428Y-133279771D01*
X132715428Y-133279771D02*
X132810666Y-133327390D01*
X132810666Y-133327390D02*
X132858285Y-133375009D01*
X132858285Y-133375009D02*
X132905904Y-133470247D01*
X132905904Y-133470247D02*
X132905904Y-133708342D01*
X132905904Y-133708342D02*
X132858285Y-133803580D01*
X132858285Y-133803580D02*
X132810666Y-133851200D01*
X132810666Y-133851200D02*
X132715428Y-133898819D01*
X132715428Y-133898819D02*
X132429714Y-133898819D01*
X132429714Y-133898819D02*
X132334476Y-133851200D01*
X132334476Y-133851200D02*
X132286857Y-133803580D01*
X131813152Y-127220714D02*
X132479819Y-127220714D01*
X131432200Y-127458809D02*
X132146485Y-127696904D01*
X132146485Y-127696904D02*
X132146485Y-127077857D01*
X132479819Y-126696904D02*
X131479819Y-126696904D01*
X132479819Y-126125476D02*
X131908390Y-126554047D01*
X131479819Y-126125476D02*
X132051247Y-126696904D01*
X131479819Y-125792142D02*
X131479819Y-125125476D01*
X131479819Y-125125476D02*
X132479819Y-125554047D01*
X134223810Y-96409819D02*
X134223810Y-95409819D01*
X135271428Y-96314580D02*
X135223809Y-96362200D01*
X135223809Y-96362200D02*
X135080952Y-96409819D01*
X135080952Y-96409819D02*
X134985714Y-96409819D01*
X134985714Y-96409819D02*
X134842857Y-96362200D01*
X134842857Y-96362200D02*
X134747619Y-96266961D01*
X134747619Y-96266961D02*
X134700000Y-96171723D01*
X134700000Y-96171723D02*
X134652381Y-95981247D01*
X134652381Y-95981247D02*
X134652381Y-95838390D01*
X134652381Y-95838390D02*
X134700000Y-95647914D01*
X134700000Y-95647914D02*
X134747619Y-95552676D01*
X134747619Y-95552676D02*
X134842857Y-95457438D01*
X134842857Y-95457438D02*
X134985714Y-95409819D01*
X134985714Y-95409819D02*
X135080952Y-95409819D01*
X135080952Y-95409819D02*
X135223809Y-95457438D01*
X135223809Y-95457438D02*
X135271428Y-95505057D01*
X135652381Y-95505057D02*
X135700000Y-95457438D01*
X135700000Y-95457438D02*
X135795238Y-95409819D01*
X135795238Y-95409819D02*
X136033333Y-95409819D01*
X136033333Y-95409819D02*
X136128571Y-95457438D01*
X136128571Y-95457438D02*
X136176190Y-95505057D01*
X136176190Y-95505057D02*
X136223809Y-95600295D01*
X136223809Y-95600295D02*
X136223809Y-95695533D01*
X136223809Y-95695533D02*
X136176190Y-95838390D01*
X136176190Y-95838390D02*
X135604762Y-96409819D01*
X135604762Y-96409819D02*
X136223809Y-96409819D01*
X139700952Y-101124819D02*
X140367618Y-101124819D01*
X140367618Y-101124819D02*
X139939047Y-102124819D01*
X141177142Y-101458152D02*
X141177142Y-102124819D01*
X140939047Y-101077200D02*
X140700952Y-101791485D01*
X140700952Y-101791485D02*
X141319999Y-101791485D01*
X142177142Y-102124819D02*
X141700952Y-102124819D01*
X141700952Y-102124819D02*
X141700952Y-101124819D01*
X142462857Y-102077200D02*
X142605714Y-102124819D01*
X142605714Y-102124819D02*
X142843809Y-102124819D01*
X142843809Y-102124819D02*
X142939047Y-102077200D01*
X142939047Y-102077200D02*
X142986666Y-102029580D01*
X142986666Y-102029580D02*
X143034285Y-101934342D01*
X143034285Y-101934342D02*
X143034285Y-101839104D01*
X143034285Y-101839104D02*
X142986666Y-101743866D01*
X142986666Y-101743866D02*
X142939047Y-101696247D01*
X142939047Y-101696247D02*
X142843809Y-101648628D01*
X142843809Y-101648628D02*
X142653333Y-101601009D01*
X142653333Y-101601009D02*
X142558095Y-101553390D01*
X142558095Y-101553390D02*
X142510476Y-101505771D01*
X142510476Y-101505771D02*
X142462857Y-101410533D01*
X142462857Y-101410533D02*
X142462857Y-101315295D01*
X142462857Y-101315295D02*
X142510476Y-101220057D01*
X142510476Y-101220057D02*
X142558095Y-101172438D01*
X142558095Y-101172438D02*
X142653333Y-101124819D01*
X142653333Y-101124819D02*
X142891428Y-101124819D01*
X142891428Y-101124819D02*
X143034285Y-101172438D01*
X143986666Y-102124819D02*
X143415238Y-102124819D01*
X143700952Y-102124819D02*
X143700952Y-101124819D01*
X143700952Y-101124819D02*
X143605714Y-101267676D01*
X143605714Y-101267676D02*
X143510476Y-101362914D01*
X143510476Y-101362914D02*
X143415238Y-101410533D01*
X144320000Y-101124819D02*
X144939047Y-101124819D01*
X144939047Y-101124819D02*
X144605714Y-101505771D01*
X144605714Y-101505771D02*
X144748571Y-101505771D01*
X144748571Y-101505771D02*
X144843809Y-101553390D01*
X144843809Y-101553390D02*
X144891428Y-101601009D01*
X144891428Y-101601009D02*
X144939047Y-101696247D01*
X144939047Y-101696247D02*
X144939047Y-101934342D01*
X144939047Y-101934342D02*
X144891428Y-102029580D01*
X144891428Y-102029580D02*
X144843809Y-102077200D01*
X144843809Y-102077200D02*
X144748571Y-102124819D01*
X144748571Y-102124819D02*
X144462857Y-102124819D01*
X144462857Y-102124819D02*
X144367619Y-102077200D01*
X144367619Y-102077200D02*
X144320000Y-102029580D01*
X145320000Y-101220057D02*
X145367619Y-101172438D01*
X145367619Y-101172438D02*
X145462857Y-101124819D01*
X145462857Y-101124819D02*
X145700952Y-101124819D01*
X145700952Y-101124819D02*
X145796190Y-101172438D01*
X145796190Y-101172438D02*
X145843809Y-101220057D01*
X145843809Y-101220057D02*
X145891428Y-101315295D01*
X145891428Y-101315295D02*
X145891428Y-101410533D01*
X145891428Y-101410533D02*
X145843809Y-101553390D01*
X145843809Y-101553390D02*
X145272381Y-102124819D01*
X145272381Y-102124819D02*
X145891428Y-102124819D01*
X154908333Y-96949580D02*
X154860714Y-96997200D01*
X154860714Y-96997200D02*
X154717857Y-97044819D01*
X154717857Y-97044819D02*
X154622619Y-97044819D01*
X154622619Y-97044819D02*
X154479762Y-96997200D01*
X154479762Y-96997200D02*
X154384524Y-96901961D01*
X154384524Y-96901961D02*
X154336905Y-96806723D01*
X154336905Y-96806723D02*
X154289286Y-96616247D01*
X154289286Y-96616247D02*
X154289286Y-96473390D01*
X154289286Y-96473390D02*
X154336905Y-96282914D01*
X154336905Y-96282914D02*
X154384524Y-96187676D01*
X154384524Y-96187676D02*
X154479762Y-96092438D01*
X154479762Y-96092438D02*
X154622619Y-96044819D01*
X154622619Y-96044819D02*
X154717857Y-96044819D01*
X154717857Y-96044819D02*
X154860714Y-96092438D01*
X154860714Y-96092438D02*
X154908333Y-96140057D01*
X155241667Y-96044819D02*
X155908333Y-96044819D01*
X155908333Y-96044819D02*
X155479762Y-97044819D01*
X175165333Y-112848580D02*
X175117714Y-112896200D01*
X175117714Y-112896200D02*
X174974857Y-112943819D01*
X174974857Y-112943819D02*
X174879619Y-112943819D01*
X174879619Y-112943819D02*
X174736762Y-112896200D01*
X174736762Y-112896200D02*
X174641524Y-112800961D01*
X174641524Y-112800961D02*
X174593905Y-112705723D01*
X174593905Y-112705723D02*
X174546286Y-112515247D01*
X174546286Y-112515247D02*
X174546286Y-112372390D01*
X174546286Y-112372390D02*
X174593905Y-112181914D01*
X174593905Y-112181914D02*
X174641524Y-112086676D01*
X174641524Y-112086676D02*
X174736762Y-111991438D01*
X174736762Y-111991438D02*
X174879619Y-111943819D01*
X174879619Y-111943819D02*
X174974857Y-111943819D01*
X174974857Y-111943819D02*
X175117714Y-111991438D01*
X175117714Y-111991438D02*
X175165333Y-112039057D01*
X176070095Y-111943819D02*
X175593905Y-111943819D01*
X175593905Y-111943819D02*
X175546286Y-112420009D01*
X175546286Y-112420009D02*
X175593905Y-112372390D01*
X175593905Y-112372390D02*
X175689143Y-112324771D01*
X175689143Y-112324771D02*
X175927238Y-112324771D01*
X175927238Y-112324771D02*
X176022476Y-112372390D01*
X176022476Y-112372390D02*
X176070095Y-112420009D01*
X176070095Y-112420009D02*
X176117714Y-112515247D01*
X176117714Y-112515247D02*
X176117714Y-112753342D01*
X176117714Y-112753342D02*
X176070095Y-112848580D01*
X176070095Y-112848580D02*
X176022476Y-112896200D01*
X176022476Y-112896200D02*
X175927238Y-112943819D01*
X175927238Y-112943819D02*
X175689143Y-112943819D01*
X175689143Y-112943819D02*
X175593905Y-112896200D01*
X175593905Y-112896200D02*
X175546286Y-112848580D01*
X175859207Y-95290819D02*
X175525874Y-94814628D01*
X175287779Y-95290819D02*
X175287779Y-94290819D01*
X175287779Y-94290819D02*
X175668731Y-94290819D01*
X175668731Y-94290819D02*
X175763969Y-94338438D01*
X175763969Y-94338438D02*
X175811588Y-94386057D01*
X175811588Y-94386057D02*
X175859207Y-94481295D01*
X175859207Y-94481295D02*
X175859207Y-94624152D01*
X175859207Y-94624152D02*
X175811588Y-94719390D01*
X175811588Y-94719390D02*
X175763969Y-94767009D01*
X175763969Y-94767009D02*
X175668731Y-94814628D01*
X175668731Y-94814628D02*
X175287779Y-94814628D01*
X176763969Y-94290819D02*
X176287779Y-94290819D01*
X176287779Y-94290819D02*
X176240160Y-94767009D01*
X176240160Y-94767009D02*
X176287779Y-94719390D01*
X176287779Y-94719390D02*
X176383017Y-94671771D01*
X176383017Y-94671771D02*
X176621112Y-94671771D01*
X176621112Y-94671771D02*
X176716350Y-94719390D01*
X176716350Y-94719390D02*
X176763969Y-94767009D01*
X176763969Y-94767009D02*
X176811588Y-94862247D01*
X176811588Y-94862247D02*
X176811588Y-95100342D01*
X176811588Y-95100342D02*
X176763969Y-95195580D01*
X176763969Y-95195580D02*
X176716350Y-95243200D01*
X176716350Y-95243200D02*
X176621112Y-95290819D01*
X176621112Y-95290819D02*
X176383017Y-95290819D01*
X176383017Y-95290819D02*
X176287779Y-95243200D01*
X176287779Y-95243200D02*
X176240160Y-95195580D01*
X167116905Y-94386057D02*
X167164524Y-94338438D01*
X167164524Y-94338438D02*
X167259762Y-94290819D01*
X167259762Y-94290819D02*
X167497857Y-94290819D01*
X167497857Y-94290819D02*
X167593095Y-94338438D01*
X167593095Y-94338438D02*
X167640714Y-94386057D01*
X167640714Y-94386057D02*
X167688333Y-94481295D01*
X167688333Y-94481295D02*
X167688333Y-94576533D01*
X167688333Y-94576533D02*
X167640714Y-94719390D01*
X167640714Y-94719390D02*
X167069286Y-95290819D01*
X167069286Y-95290819D02*
X167688333Y-95290819D01*
X168069286Y-94386057D02*
X168116905Y-94338438D01*
X168116905Y-94338438D02*
X168212143Y-94290819D01*
X168212143Y-94290819D02*
X168450238Y-94290819D01*
X168450238Y-94290819D02*
X168545476Y-94338438D01*
X168545476Y-94338438D02*
X168593095Y-94386057D01*
X168593095Y-94386057D02*
X168640714Y-94481295D01*
X168640714Y-94481295D02*
X168640714Y-94576533D01*
X168640714Y-94576533D02*
X168593095Y-94719390D01*
X168593095Y-94719390D02*
X168021667Y-95290819D01*
X168021667Y-95290819D02*
X168640714Y-95290819D01*
X169259762Y-94290819D02*
X169355000Y-94290819D01*
X169355000Y-94290819D02*
X169450238Y-94338438D01*
X169450238Y-94338438D02*
X169497857Y-94386057D01*
X169497857Y-94386057D02*
X169545476Y-94481295D01*
X169545476Y-94481295D02*
X169593095Y-94671771D01*
X169593095Y-94671771D02*
X169593095Y-94909866D01*
X169593095Y-94909866D02*
X169545476Y-95100342D01*
X169545476Y-95100342D02*
X169497857Y-95195580D01*
X169497857Y-95195580D02*
X169450238Y-95243200D01*
X169450238Y-95243200D02*
X169355000Y-95290819D01*
X169355000Y-95290819D02*
X169259762Y-95290819D01*
X169259762Y-95290819D02*
X169164524Y-95243200D01*
X169164524Y-95243200D02*
X169116905Y-95195580D01*
X169116905Y-95195580D02*
X169069286Y-95100342D01*
X169069286Y-95100342D02*
X169021667Y-94909866D01*
X169021667Y-94909866D02*
X169021667Y-94671771D01*
X169021667Y-94671771D02*
X169069286Y-94481295D01*
X169069286Y-94481295D02*
X169116905Y-94386057D01*
X169116905Y-94386057D02*
X169164524Y-94338438D01*
X169164524Y-94338438D02*
X169259762Y-94290819D01*
X170021667Y-95290819D02*
X170021667Y-94290819D01*
X170593095Y-95290819D02*
X170164524Y-94719390D01*
X170593095Y-94290819D02*
X170021667Y-94862247D01*
X157718810Y-96409819D02*
X157718810Y-95409819D01*
X158766428Y-96314580D02*
X158718809Y-96362200D01*
X158718809Y-96362200D02*
X158575952Y-96409819D01*
X158575952Y-96409819D02*
X158480714Y-96409819D01*
X158480714Y-96409819D02*
X158337857Y-96362200D01*
X158337857Y-96362200D02*
X158242619Y-96266961D01*
X158242619Y-96266961D02*
X158195000Y-96171723D01*
X158195000Y-96171723D02*
X158147381Y-95981247D01*
X158147381Y-95981247D02*
X158147381Y-95838390D01*
X158147381Y-95838390D02*
X158195000Y-95647914D01*
X158195000Y-95647914D02*
X158242619Y-95552676D01*
X158242619Y-95552676D02*
X158337857Y-95457438D01*
X158337857Y-95457438D02*
X158480714Y-95409819D01*
X158480714Y-95409819D02*
X158575952Y-95409819D01*
X158575952Y-95409819D02*
X158718809Y-95457438D01*
X158718809Y-95457438D02*
X158766428Y-95505057D01*
X159099762Y-95409819D02*
X159718809Y-95409819D01*
X159718809Y-95409819D02*
X159385476Y-95790771D01*
X159385476Y-95790771D02*
X159528333Y-95790771D01*
X159528333Y-95790771D02*
X159623571Y-95838390D01*
X159623571Y-95838390D02*
X159671190Y-95886009D01*
X159671190Y-95886009D02*
X159718809Y-95981247D01*
X159718809Y-95981247D02*
X159718809Y-96219342D01*
X159718809Y-96219342D02*
X159671190Y-96314580D01*
X159671190Y-96314580D02*
X159623571Y-96362200D01*
X159623571Y-96362200D02*
X159528333Y-96409819D01*
X159528333Y-96409819D02*
X159242619Y-96409819D01*
X159242619Y-96409819D02*
X159147381Y-96362200D01*
X159147381Y-96362200D02*
X159099762Y-96314580D01*
X164465952Y-101124819D02*
X165132618Y-101124819D01*
X165132618Y-101124819D02*
X164704047Y-102124819D01*
X165942142Y-101458152D02*
X165942142Y-102124819D01*
X165704047Y-101077200D02*
X165465952Y-101791485D01*
X165465952Y-101791485D02*
X166084999Y-101791485D01*
X166942142Y-102124819D02*
X166465952Y-102124819D01*
X166465952Y-102124819D02*
X166465952Y-101124819D01*
X167227857Y-102077200D02*
X167370714Y-102124819D01*
X167370714Y-102124819D02*
X167608809Y-102124819D01*
X167608809Y-102124819D02*
X167704047Y-102077200D01*
X167704047Y-102077200D02*
X167751666Y-102029580D01*
X167751666Y-102029580D02*
X167799285Y-101934342D01*
X167799285Y-101934342D02*
X167799285Y-101839104D01*
X167799285Y-101839104D02*
X167751666Y-101743866D01*
X167751666Y-101743866D02*
X167704047Y-101696247D01*
X167704047Y-101696247D02*
X167608809Y-101648628D01*
X167608809Y-101648628D02*
X167418333Y-101601009D01*
X167418333Y-101601009D02*
X167323095Y-101553390D01*
X167323095Y-101553390D02*
X167275476Y-101505771D01*
X167275476Y-101505771D02*
X167227857Y-101410533D01*
X167227857Y-101410533D02*
X167227857Y-101315295D01*
X167227857Y-101315295D02*
X167275476Y-101220057D01*
X167275476Y-101220057D02*
X167323095Y-101172438D01*
X167323095Y-101172438D02*
X167418333Y-101124819D01*
X167418333Y-101124819D02*
X167656428Y-101124819D01*
X167656428Y-101124819D02*
X167799285Y-101172438D01*
X168751666Y-102124819D02*
X168180238Y-102124819D01*
X168465952Y-102124819D02*
X168465952Y-101124819D01*
X168465952Y-101124819D02*
X168370714Y-101267676D01*
X168370714Y-101267676D02*
X168275476Y-101362914D01*
X168275476Y-101362914D02*
X168180238Y-101410533D01*
X169132619Y-101220057D02*
X169180238Y-101172438D01*
X169180238Y-101172438D02*
X169275476Y-101124819D01*
X169275476Y-101124819D02*
X169513571Y-101124819D01*
X169513571Y-101124819D02*
X169608809Y-101172438D01*
X169608809Y-101172438D02*
X169656428Y-101220057D01*
X169656428Y-101220057D02*
X169704047Y-101315295D01*
X169704047Y-101315295D02*
X169704047Y-101410533D01*
X169704047Y-101410533D02*
X169656428Y-101553390D01*
X169656428Y-101553390D02*
X169085000Y-102124819D01*
X169085000Y-102124819D02*
X169704047Y-102124819D01*
X170037381Y-101124819D02*
X170656428Y-101124819D01*
X170656428Y-101124819D02*
X170323095Y-101505771D01*
X170323095Y-101505771D02*
X170465952Y-101505771D01*
X170465952Y-101505771D02*
X170561190Y-101553390D01*
X170561190Y-101553390D02*
X170608809Y-101601009D01*
X170608809Y-101601009D02*
X170656428Y-101696247D01*
X170656428Y-101696247D02*
X170656428Y-101934342D01*
X170656428Y-101934342D02*
X170608809Y-102029580D01*
X170608809Y-102029580D02*
X170561190Y-102077200D01*
X170561190Y-102077200D02*
X170465952Y-102124819D01*
X170465952Y-102124819D02*
X170180238Y-102124819D01*
X170180238Y-102124819D02*
X170085000Y-102077200D01*
X170085000Y-102077200D02*
X170037381Y-102029580D01*
X175673333Y-110579580D02*
X175625714Y-110627200D01*
X175625714Y-110627200D02*
X175482857Y-110674819D01*
X175482857Y-110674819D02*
X175387619Y-110674819D01*
X175387619Y-110674819D02*
X175244762Y-110627200D01*
X175244762Y-110627200D02*
X175149524Y-110531961D01*
X175149524Y-110531961D02*
X175101905Y-110436723D01*
X175101905Y-110436723D02*
X175054286Y-110246247D01*
X175054286Y-110246247D02*
X175054286Y-110103390D01*
X175054286Y-110103390D02*
X175101905Y-109912914D01*
X175101905Y-109912914D02*
X175149524Y-109817676D01*
X175149524Y-109817676D02*
X175244762Y-109722438D01*
X175244762Y-109722438D02*
X175387619Y-109674819D01*
X175387619Y-109674819D02*
X175482857Y-109674819D01*
X175482857Y-109674819D02*
X175625714Y-109722438D01*
X175625714Y-109722438D02*
X175673333Y-109770057D01*
X176625714Y-110674819D02*
X176054286Y-110674819D01*
X176340000Y-110674819D02*
X176340000Y-109674819D01*
X176340000Y-109674819D02*
X176244762Y-109817676D01*
X176244762Y-109817676D02*
X176149524Y-109912914D01*
X176149524Y-109912914D02*
X176054286Y-109960533D01*
X128048333Y-133779580D02*
X128000714Y-133827200D01*
X128000714Y-133827200D02*
X127857857Y-133874819D01*
X127857857Y-133874819D02*
X127762619Y-133874819D01*
X127762619Y-133874819D02*
X127619762Y-133827200D01*
X127619762Y-133827200D02*
X127524524Y-133731961D01*
X127524524Y-133731961D02*
X127476905Y-133636723D01*
X127476905Y-133636723D02*
X127429286Y-133446247D01*
X127429286Y-133446247D02*
X127429286Y-133303390D01*
X127429286Y-133303390D02*
X127476905Y-133112914D01*
X127476905Y-133112914D02*
X127524524Y-133017676D01*
X127524524Y-133017676D02*
X127619762Y-132922438D01*
X127619762Y-132922438D02*
X127762619Y-132874819D01*
X127762619Y-132874819D02*
X127857857Y-132874819D01*
X127857857Y-132874819D02*
X128000714Y-132922438D01*
X128000714Y-132922438D02*
X128048333Y-132970057D01*
X128429286Y-132970057D02*
X128476905Y-132922438D01*
X128476905Y-132922438D02*
X128572143Y-132874819D01*
X128572143Y-132874819D02*
X128810238Y-132874819D01*
X128810238Y-132874819D02*
X128905476Y-132922438D01*
X128905476Y-132922438D02*
X128953095Y-132970057D01*
X128953095Y-132970057D02*
X129000714Y-133065295D01*
X129000714Y-133065295D02*
X129000714Y-133160533D01*
X129000714Y-133160533D02*
X128953095Y-133303390D01*
X128953095Y-133303390D02*
X128381667Y-133874819D01*
X128381667Y-133874819D02*
X129000714Y-133874819D01*
X115983333Y-106974819D02*
X115650000Y-106498628D01*
X115411905Y-106974819D02*
X115411905Y-105974819D01*
X115411905Y-105974819D02*
X115792857Y-105974819D01*
X115792857Y-105974819D02*
X115888095Y-106022438D01*
X115888095Y-106022438D02*
X115935714Y-106070057D01*
X115935714Y-106070057D02*
X115983333Y-106165295D01*
X115983333Y-106165295D02*
X115983333Y-106308152D01*
X115983333Y-106308152D02*
X115935714Y-106403390D01*
X115935714Y-106403390D02*
X115888095Y-106451009D01*
X115888095Y-106451009D02*
X115792857Y-106498628D01*
X115792857Y-106498628D02*
X115411905Y-106498628D01*
X116840476Y-105974819D02*
X116650000Y-105974819D01*
X116650000Y-105974819D02*
X116554762Y-106022438D01*
X116554762Y-106022438D02*
X116507143Y-106070057D01*
X116507143Y-106070057D02*
X116411905Y-106212914D01*
X116411905Y-106212914D02*
X116364286Y-106403390D01*
X116364286Y-106403390D02*
X116364286Y-106784342D01*
X116364286Y-106784342D02*
X116411905Y-106879580D01*
X116411905Y-106879580D02*
X116459524Y-106927200D01*
X116459524Y-106927200D02*
X116554762Y-106974819D01*
X116554762Y-106974819D02*
X116745238Y-106974819D01*
X116745238Y-106974819D02*
X116840476Y-106927200D01*
X116840476Y-106927200D02*
X116888095Y-106879580D01*
X116888095Y-106879580D02*
X116935714Y-106784342D01*
X116935714Y-106784342D02*
X116935714Y-106546247D01*
X116935714Y-106546247D02*
X116888095Y-106451009D01*
X116888095Y-106451009D02*
X116840476Y-106403390D01*
X116840476Y-106403390D02*
X116745238Y-106355771D01*
X116745238Y-106355771D02*
X116554762Y-106355771D01*
X116554762Y-106355771D02*
X116459524Y-106403390D01*
X116459524Y-106403390D02*
X116411905Y-106451009D01*
X116411905Y-106451009D02*
X116364286Y-106546247D01*
X122373095Y-106974819D02*
X121801667Y-106974819D01*
X122087381Y-106974819D02*
X122087381Y-105974819D01*
X122087381Y-105974819D02*
X121992143Y-106117676D01*
X121992143Y-106117676D02*
X121896905Y-106212914D01*
X121896905Y-106212914D02*
X121801667Y-106260533D01*
X122801667Y-106974819D02*
X122801667Y-105974819D01*
X122801667Y-105974819D02*
X123135000Y-106689104D01*
X123135000Y-106689104D02*
X123468333Y-105974819D01*
X123468333Y-105974819D02*
X123468333Y-106974819D01*
X124420714Y-105974819D02*
X123944524Y-105974819D01*
X123944524Y-105974819D02*
X123896905Y-106451009D01*
X123896905Y-106451009D02*
X123944524Y-106403390D01*
X123944524Y-106403390D02*
X124039762Y-106355771D01*
X124039762Y-106355771D02*
X124277857Y-106355771D01*
X124277857Y-106355771D02*
X124373095Y-106403390D01*
X124373095Y-106403390D02*
X124420714Y-106451009D01*
X124420714Y-106451009D02*
X124468333Y-106546247D01*
X124468333Y-106546247D02*
X124468333Y-106784342D01*
X124468333Y-106784342D02*
X124420714Y-106879580D01*
X124420714Y-106879580D02*
X124373095Y-106927200D01*
X124373095Y-106927200D02*
X124277857Y-106974819D01*
X124277857Y-106974819D02*
X124039762Y-106974819D01*
X124039762Y-106974819D02*
X123944524Y-106927200D01*
X123944524Y-106927200D02*
X123896905Y-106879580D01*
X161068333Y-88059580D02*
X161020714Y-88107200D01*
X161020714Y-88107200D02*
X160877857Y-88154819D01*
X160877857Y-88154819D02*
X160782619Y-88154819D01*
X160782619Y-88154819D02*
X160639762Y-88107200D01*
X160639762Y-88107200D02*
X160544524Y-88011961D01*
X160544524Y-88011961D02*
X160496905Y-87916723D01*
X160496905Y-87916723D02*
X160449286Y-87726247D01*
X160449286Y-87726247D02*
X160449286Y-87583390D01*
X160449286Y-87583390D02*
X160496905Y-87392914D01*
X160496905Y-87392914D02*
X160544524Y-87297676D01*
X160544524Y-87297676D02*
X160639762Y-87202438D01*
X160639762Y-87202438D02*
X160782619Y-87154819D01*
X160782619Y-87154819D02*
X160877857Y-87154819D01*
X160877857Y-87154819D02*
X161020714Y-87202438D01*
X161020714Y-87202438D02*
X161068333Y-87250057D01*
X161401667Y-87154819D02*
X162020714Y-87154819D01*
X162020714Y-87154819D02*
X161687381Y-87535771D01*
X161687381Y-87535771D02*
X161830238Y-87535771D01*
X161830238Y-87535771D02*
X161925476Y-87583390D01*
X161925476Y-87583390D02*
X161973095Y-87631009D01*
X161973095Y-87631009D02*
X162020714Y-87726247D01*
X162020714Y-87726247D02*
X162020714Y-87964342D01*
X162020714Y-87964342D02*
X161973095Y-88059580D01*
X161973095Y-88059580D02*
X161925476Y-88107200D01*
X161925476Y-88107200D02*
X161830238Y-88154819D01*
X161830238Y-88154819D02*
X161544524Y-88154819D01*
X161544524Y-88154819D02*
X161449286Y-88107200D01*
X161449286Y-88107200D02*
X161401667Y-88059580D01*
X134223810Y-83836819D02*
X134223810Y-82836819D01*
X135271428Y-83741580D02*
X135223809Y-83789200D01*
X135223809Y-83789200D02*
X135080952Y-83836819D01*
X135080952Y-83836819D02*
X134985714Y-83836819D01*
X134985714Y-83836819D02*
X134842857Y-83789200D01*
X134842857Y-83789200D02*
X134747619Y-83693961D01*
X134747619Y-83693961D02*
X134700000Y-83598723D01*
X134700000Y-83598723D02*
X134652381Y-83408247D01*
X134652381Y-83408247D02*
X134652381Y-83265390D01*
X134652381Y-83265390D02*
X134700000Y-83074914D01*
X134700000Y-83074914D02*
X134747619Y-82979676D01*
X134747619Y-82979676D02*
X134842857Y-82884438D01*
X134842857Y-82884438D02*
X134985714Y-82836819D01*
X134985714Y-82836819D02*
X135080952Y-82836819D01*
X135080952Y-82836819D02*
X135223809Y-82884438D01*
X135223809Y-82884438D02*
X135271428Y-82932057D01*
X135604762Y-82836819D02*
X136271428Y-82836819D01*
X136271428Y-82836819D02*
X135842857Y-83836819D01*
X141494762Y-88525057D02*
X141542381Y-88477438D01*
X141542381Y-88477438D02*
X141637619Y-88429819D01*
X141637619Y-88429819D02*
X141875714Y-88429819D01*
X141875714Y-88429819D02*
X141970952Y-88477438D01*
X141970952Y-88477438D02*
X142018571Y-88525057D01*
X142018571Y-88525057D02*
X142066190Y-88620295D01*
X142066190Y-88620295D02*
X142066190Y-88715533D01*
X142066190Y-88715533D02*
X142018571Y-88858390D01*
X142018571Y-88858390D02*
X141447143Y-89429819D01*
X141447143Y-89429819D02*
X142066190Y-89429819D01*
X142923333Y-88429819D02*
X142732857Y-88429819D01*
X142732857Y-88429819D02*
X142637619Y-88477438D01*
X142637619Y-88477438D02*
X142590000Y-88525057D01*
X142590000Y-88525057D02*
X142494762Y-88667914D01*
X142494762Y-88667914D02*
X142447143Y-88858390D01*
X142447143Y-88858390D02*
X142447143Y-89239342D01*
X142447143Y-89239342D02*
X142494762Y-89334580D01*
X142494762Y-89334580D02*
X142542381Y-89382200D01*
X142542381Y-89382200D02*
X142637619Y-89429819D01*
X142637619Y-89429819D02*
X142828095Y-89429819D01*
X142828095Y-89429819D02*
X142923333Y-89382200D01*
X142923333Y-89382200D02*
X142970952Y-89334580D01*
X142970952Y-89334580D02*
X143018571Y-89239342D01*
X143018571Y-89239342D02*
X143018571Y-89001247D01*
X143018571Y-89001247D02*
X142970952Y-88906009D01*
X142970952Y-88906009D02*
X142923333Y-88858390D01*
X142923333Y-88858390D02*
X142828095Y-88810771D01*
X142828095Y-88810771D02*
X142637619Y-88810771D01*
X142637619Y-88810771D02*
X142542381Y-88858390D01*
X142542381Y-88858390D02*
X142494762Y-88906009D01*
X142494762Y-88906009D02*
X142447143Y-89001247D01*
X143923333Y-89429819D02*
X143447143Y-89429819D01*
X143447143Y-89429819D02*
X143447143Y-88429819D01*
X144209048Y-89382200D02*
X144351905Y-89429819D01*
X144351905Y-89429819D02*
X144590000Y-89429819D01*
X144590000Y-89429819D02*
X144685238Y-89382200D01*
X144685238Y-89382200D02*
X144732857Y-89334580D01*
X144732857Y-89334580D02*
X144780476Y-89239342D01*
X144780476Y-89239342D02*
X144780476Y-89144104D01*
X144780476Y-89144104D02*
X144732857Y-89048866D01*
X144732857Y-89048866D02*
X144685238Y-89001247D01*
X144685238Y-89001247D02*
X144590000Y-88953628D01*
X144590000Y-88953628D02*
X144399524Y-88906009D01*
X144399524Y-88906009D02*
X144304286Y-88858390D01*
X144304286Y-88858390D02*
X144256667Y-88810771D01*
X144256667Y-88810771D02*
X144209048Y-88715533D01*
X144209048Y-88715533D02*
X144209048Y-88620295D01*
X144209048Y-88620295D02*
X144256667Y-88525057D01*
X144256667Y-88525057D02*
X144304286Y-88477438D01*
X144304286Y-88477438D02*
X144399524Y-88429819D01*
X144399524Y-88429819D02*
X144637619Y-88429819D01*
X144637619Y-88429819D02*
X144780476Y-88477438D01*
X145113810Y-88429819D02*
X145732857Y-88429819D01*
X145732857Y-88429819D02*
X145399524Y-88810771D01*
X145399524Y-88810771D02*
X145542381Y-88810771D01*
X145542381Y-88810771D02*
X145637619Y-88858390D01*
X145637619Y-88858390D02*
X145685238Y-88906009D01*
X145685238Y-88906009D02*
X145732857Y-89001247D01*
X145732857Y-89001247D02*
X145732857Y-89239342D01*
X145732857Y-89239342D02*
X145685238Y-89334580D01*
X145685238Y-89334580D02*
X145637619Y-89382200D01*
X145637619Y-89382200D02*
X145542381Y-89429819D01*
X145542381Y-89429819D02*
X145256667Y-89429819D01*
X145256667Y-89429819D02*
X145161429Y-89382200D01*
X145161429Y-89382200D02*
X145113810Y-89334580D01*
X146351905Y-88429819D02*
X146447143Y-88429819D01*
X146447143Y-88429819D02*
X146542381Y-88477438D01*
X146542381Y-88477438D02*
X146590000Y-88525057D01*
X146590000Y-88525057D02*
X146637619Y-88620295D01*
X146637619Y-88620295D02*
X146685238Y-88810771D01*
X146685238Y-88810771D02*
X146685238Y-89048866D01*
X146685238Y-89048866D02*
X146637619Y-89239342D01*
X146637619Y-89239342D02*
X146590000Y-89334580D01*
X146590000Y-89334580D02*
X146542381Y-89382200D01*
X146542381Y-89382200D02*
X146447143Y-89429819D01*
X146447143Y-89429819D02*
X146351905Y-89429819D01*
X146351905Y-89429819D02*
X146256667Y-89382200D01*
X146256667Y-89382200D02*
X146209048Y-89334580D01*
X146209048Y-89334580D02*
X146161429Y-89239342D01*
X146161429Y-89239342D02*
X146113810Y-89048866D01*
X146113810Y-89048866D02*
X146113810Y-88810771D01*
X146113810Y-88810771D02*
X146161429Y-88620295D01*
X146161429Y-88620295D02*
X146209048Y-88525057D01*
X146209048Y-88525057D02*
X146256667Y-88477438D01*
X146256667Y-88477438D02*
X146351905Y-88429819D01*
D12*
X164815000Y-92296000D02*
X165585000Y-92296000D01*
X165585000Y-90926000D02*
X165585000Y-93666000D01*
X165585000Y-93666000D02*
X172125000Y-93666000D01*
X172125000Y-90926000D02*
X165585000Y-90926000D01*
X172125000Y-93666000D02*
X172125000Y-90926000D01*
X172895000Y-92296000D02*
X172125000Y-92296000D01*
X132025000Y-117775000D02*
X132025000Y-117005000D01*
X130655000Y-117005000D02*
X133395000Y-117005000D01*
X133395000Y-117005000D02*
X133395000Y-110465000D01*
X130655000Y-110465000D02*
X130655000Y-117005000D01*
X133395000Y-110465000D02*
X130655000Y-110465000D01*
X132025000Y-109695000D02*
X132025000Y-110465000D01*
X134565000Y-117775000D02*
X134565000Y-117005000D01*
X133195000Y-117005000D02*
X135935000Y-117005000D01*
X135935000Y-117005000D02*
X135935000Y-110465000D01*
X133195000Y-110465000D02*
X133195000Y-117005000D01*
X135935000Y-110465000D02*
X133195000Y-110465000D01*
X134565000Y-109695000D02*
X134565000Y-110465000D01*
X179995000Y-100077000D02*
X179995000Y-100233000D01*
X179995000Y-102393000D02*
X179995000Y-102549000D01*
X179995000Y-100077484D02*
G75*
G02*
X183226397Y-100232939I1560000J-1235516D01*
G01*
X180514039Y-100233000D02*
G75*
G02*
X182595910Y-100232951I1040961J-1080000D01*
G01*
X182595910Y-102393049D02*
G75*
G02*
X180514039Y-102393000I-1040910J1080049D01*
G01*
X183226397Y-102393061D02*
G75*
G02*
X179995000Y-102548516I-1671397J1080061D01*
G01*
X179995000Y-109729000D02*
X179995000Y-109885000D01*
X179995000Y-112045000D02*
X179995000Y-112201000D01*
X179995000Y-109729484D02*
G75*
G02*
X183226397Y-109884939I1560000J-1235516D01*
G01*
X180514039Y-109885000D02*
G75*
G02*
X182595910Y-109884951I1040961J-1080000D01*
G01*
X182595910Y-112045049D02*
G75*
G02*
X180514039Y-112045000I-1040910J1080049D01*
G01*
X183226397Y-112045061D02*
G75*
G02*
X179995000Y-112200516I-1671397J1080061D01*
G01*
X179995000Y-104903000D02*
X179995000Y-105059000D01*
X179995000Y-107219000D02*
X179995000Y-107375000D01*
X179995000Y-104903484D02*
G75*
G02*
X183226397Y-105058939I1560000J-1235516D01*
G01*
X180514039Y-105059000D02*
G75*
G02*
X182595910Y-105058951I1040961J-1080000D01*
G01*
X182595910Y-107219049D02*
G75*
G02*
X180514039Y-107219000I-1040910J1080049D01*
G01*
X183226397Y-107219061D02*
G75*
G02*
X179995000Y-107374516I-1671397J1080061D01*
G01*
X124305000Y-113005000D02*
X124305000Y-119545000D01*
X124305000Y-119545000D02*
X127045000Y-119545000D01*
X125675000Y-112235000D02*
X125675000Y-113005000D01*
X125675000Y-120315000D02*
X125675000Y-119545000D01*
X127045000Y-113005000D02*
X124305000Y-113005000D01*
X127045000Y-119545000D02*
X127045000Y-113005000D01*
X159735000Y-107965000D02*
X160505000Y-107965000D01*
X160505000Y-106595000D02*
X160505000Y-109335000D01*
X160505000Y-109335000D02*
X167045000Y-109335000D01*
X167045000Y-106595000D02*
X160505000Y-106595000D01*
X167045000Y-109335000D02*
X167045000Y-106595000D01*
X167815000Y-107965000D02*
X167045000Y-107965000D01*
X111605000Y-84430000D02*
X111605000Y-90970000D01*
X111605000Y-90970000D02*
X114345000Y-90970000D01*
X112975000Y-83660000D02*
X112975000Y-84430000D01*
X112975000Y-91740000D02*
X112975000Y-90970000D01*
X114345000Y-84430000D02*
X111605000Y-84430000D01*
X114345000Y-90970000D02*
X114345000Y-84430000D01*
X116685000Y-113005000D02*
X116685000Y-119545000D01*
X116685000Y-119545000D02*
X119425000Y-119545000D01*
X118055000Y-112235000D02*
X118055000Y-113005000D01*
X118055000Y-120315000D02*
X118055000Y-119545000D01*
X119425000Y-113005000D02*
X116685000Y-113005000D01*
X119425000Y-119545000D02*
X119425000Y-113005000D01*
X119225000Y-113005000D02*
X119225000Y-119545000D01*
X119225000Y-119545000D02*
X121965000Y-119545000D01*
X120595000Y-112235000D02*
X120595000Y-113005000D01*
X120595000Y-120315000D02*
X120595000Y-119545000D01*
X121965000Y-113005000D02*
X119225000Y-113005000D01*
X121965000Y-119545000D02*
X121965000Y-113005000D01*
X121765000Y-113005000D02*
X121765000Y-119545000D01*
X121765000Y-119545000D02*
X124505000Y-119545000D01*
X123135000Y-112235000D02*
X123135000Y-113005000D01*
X123135000Y-120315000D02*
X123135000Y-119545000D01*
X124505000Y-113005000D02*
X121765000Y-113005000D01*
X124505000Y-119545000D02*
X124505000Y-113005000D01*
X114145000Y-113005000D02*
X114145000Y-119545000D01*
X114145000Y-119545000D02*
X116885000Y-119545000D01*
X115515000Y-112235000D02*
X115515000Y-113005000D01*
X115515000Y-120315000D02*
X115515000Y-119545000D01*
X116885000Y-113005000D02*
X114145000Y-113005000D01*
X116885000Y-119545000D02*
X116885000Y-113005000D01*
X111605000Y-113005000D02*
X111605000Y-119545000D01*
X111605000Y-119545000D02*
X114345000Y-119545000D01*
X112975000Y-112235000D02*
X112975000Y-113005000D01*
X112975000Y-120315000D02*
X112975000Y-119545000D01*
X114345000Y-113005000D02*
X111605000Y-113005000D01*
X114345000Y-119545000D02*
X114345000Y-113005000D01*
X126845000Y-84430000D02*
X126845000Y-90970000D01*
X126845000Y-90970000D02*
X129585000Y-90970000D01*
X128215000Y-83660000D02*
X128215000Y-84430000D01*
X128215000Y-91740000D02*
X128215000Y-90970000D01*
X129585000Y-84430000D02*
X126845000Y-84430000D01*
X129585000Y-90970000D02*
X129585000Y-84430000D01*
X124305000Y-84430000D02*
X124305000Y-90970000D01*
X124305000Y-90970000D02*
X127045000Y-90970000D01*
X125675000Y-83660000D02*
X125675000Y-84430000D01*
X125675000Y-91740000D02*
X125675000Y-90970000D01*
X127045000Y-84430000D02*
X124305000Y-84430000D01*
X127045000Y-90970000D02*
X127045000Y-84430000D01*
X119225000Y-84430000D02*
X119225000Y-90970000D01*
X119225000Y-90970000D02*
X121965000Y-90970000D01*
X120595000Y-83660000D02*
X120595000Y-84430000D01*
X120595000Y-91740000D02*
X120595000Y-90970000D01*
X121965000Y-84430000D02*
X119225000Y-84430000D01*
X121965000Y-90970000D02*
X121965000Y-84430000D01*
X121765000Y-84430000D02*
X121765000Y-90970000D01*
X121765000Y-90970000D02*
X124505000Y-90970000D01*
X123135000Y-83660000D02*
X123135000Y-84430000D01*
X123135000Y-91740000D02*
X123135000Y-90970000D01*
X124505000Y-84430000D02*
X121765000Y-84430000D01*
X124505000Y-90970000D02*
X124505000Y-84430000D01*
X116685000Y-84430000D02*
X116685000Y-90970000D01*
X116685000Y-90970000D02*
X119425000Y-90970000D01*
X118055000Y-83660000D02*
X118055000Y-84430000D01*
X118055000Y-91740000D02*
X118055000Y-90970000D01*
X119425000Y-84430000D02*
X116685000Y-84430000D01*
X119425000Y-90970000D02*
X119425000Y-84430000D01*
X109065000Y-113005000D02*
X109065000Y-119545000D01*
X109065000Y-119545000D02*
X111805000Y-119545000D01*
X110435000Y-112235000D02*
X110435000Y-113005000D01*
X110435000Y-120315000D02*
X110435000Y-119545000D01*
X111805000Y-113005000D02*
X109065000Y-113005000D01*
X111805000Y-119545000D02*
X111805000Y-113005000D01*
X114145000Y-84430000D02*
X114145000Y-90970000D01*
X114145000Y-90970000D02*
X116885000Y-90970000D01*
X115515000Y-83660000D02*
X115515000Y-84430000D01*
X115515000Y-91740000D02*
X115515000Y-90970000D01*
X116885000Y-84430000D02*
X114145000Y-84430000D01*
X116885000Y-90970000D02*
X116885000Y-84430000D01*
X106525000Y-113005000D02*
X106525000Y-119545000D01*
X106525000Y-119545000D02*
X109265000Y-119545000D01*
X107895000Y-112235000D02*
X107895000Y-113005000D01*
X107895000Y-120315000D02*
X107895000Y-119545000D01*
X109265000Y-113005000D02*
X106525000Y-113005000D01*
X109265000Y-119545000D02*
X109265000Y-113005000D01*
X175105000Y-118770000D02*
X177845000Y-118770000D01*
X175105000Y-126210000D02*
X175105000Y-118770000D01*
X175105000Y-126210000D02*
X177845000Y-126210000D01*
X177845000Y-126210000D02*
X177845000Y-118770000D01*
X107795000Y-95195000D02*
X107795000Y-102635000D01*
X110535000Y-95195000D02*
X107795000Y-95195000D01*
X110535000Y-95195000D02*
X110535000Y-102635000D01*
X110535000Y-102635000D02*
X107795000Y-102635000D01*
X130401000Y-97735000D02*
X130401000Y-105175000D01*
X133141000Y-97735000D02*
X130401000Y-97735000D01*
X133141000Y-97735000D02*
X133141000Y-105175000D01*
X133141000Y-105175000D02*
X130401000Y-105175000D01*
X101119000Y-95604000D02*
X101119000Y-95036000D01*
X101159000Y-95838000D02*
X101159000Y-94802000D01*
X101199000Y-95997000D02*
X101199000Y-94643000D01*
X101239000Y-96125000D02*
X101239000Y-94515000D01*
X101279000Y-96235000D02*
X101279000Y-94405000D01*
X101319000Y-96331000D02*
X101319000Y-94309000D01*
X101359000Y-96418000D02*
X101359000Y-94222000D01*
X101399000Y-96498000D02*
X101399000Y-94142000D01*
X101439000Y-96571000D02*
X101439000Y-94069000D01*
X101479000Y-96639000D02*
X101479000Y-94001000D01*
X101519000Y-96703000D02*
X101519000Y-93937000D01*
X101559000Y-96763000D02*
X101559000Y-93877000D01*
X101599000Y-96820000D02*
X101599000Y-93820000D01*
X101639000Y-96874000D02*
X101639000Y-93766000D01*
X101679000Y-96925000D02*
X101679000Y-93715000D01*
X101719000Y-94280000D02*
X101719000Y-93667000D01*
X101719000Y-96973000D02*
X101719000Y-96360000D01*
X101759000Y-94280000D02*
X101759000Y-93621000D01*
X101759000Y-97019000D02*
X101759000Y-96360000D01*
X101799000Y-94280000D02*
X101799000Y-93577000D01*
X101799000Y-97063000D02*
X101799000Y-96360000D01*
X101839000Y-94280000D02*
X101839000Y-93535000D01*
X101839000Y-97105000D02*
X101839000Y-96360000D01*
X101879000Y-94280000D02*
X101879000Y-93494000D01*
X101879000Y-97146000D02*
X101879000Y-96360000D01*
X101919000Y-94280000D02*
X101919000Y-93456000D01*
X101919000Y-97184000D02*
X101919000Y-96360000D01*
X101959000Y-94280000D02*
X101959000Y-93419000D01*
X101959000Y-97221000D02*
X101959000Y-96360000D01*
X101999000Y-94280000D02*
X101999000Y-93383000D01*
X101999000Y-97257000D02*
X101999000Y-96360000D01*
X102039000Y-94280000D02*
X102039000Y-93349000D01*
X102039000Y-97291000D02*
X102039000Y-96360000D01*
X102079000Y-94280000D02*
X102079000Y-93316000D01*
X102079000Y-97324000D02*
X102079000Y-96360000D01*
X102119000Y-94280000D02*
X102119000Y-93285000D01*
X102119000Y-97355000D02*
X102119000Y-96360000D01*
X102159000Y-94280000D02*
X102159000Y-93255000D01*
X102159000Y-97385000D02*
X102159000Y-96360000D01*
X102199000Y-94280000D02*
X102199000Y-93225000D01*
X102199000Y-97415000D02*
X102199000Y-96360000D01*
X102239000Y-94280000D02*
X102239000Y-93198000D01*
X102239000Y-97442000D02*
X102239000Y-96360000D01*
X102279000Y-94280000D02*
X102279000Y-93171000D01*
X102279000Y-97469000D02*
X102279000Y-96360000D01*
X102319000Y-94280000D02*
X102319000Y-93145000D01*
X102319000Y-97495000D02*
X102319000Y-96360000D01*
X102359000Y-94280000D02*
X102359000Y-93120000D01*
X102359000Y-97520000D02*
X102359000Y-96360000D01*
X102399000Y-94280000D02*
X102399000Y-93096000D01*
X102399000Y-97544000D02*
X102399000Y-96360000D01*
X102439000Y-94280000D02*
X102439000Y-93073000D01*
X102439000Y-97567000D02*
X102439000Y-96360000D01*
X102479000Y-94280000D02*
X102479000Y-93052000D01*
X102479000Y-97588000D02*
X102479000Y-96360000D01*
X102519000Y-94280000D02*
X102519000Y-93030000D01*
X102519000Y-97610000D02*
X102519000Y-96360000D01*
X102559000Y-94280000D02*
X102559000Y-93010000D01*
X102559000Y-97630000D02*
X102559000Y-96360000D01*
X102599000Y-94280000D02*
X102599000Y-92991000D01*
X102599000Y-97649000D02*
X102599000Y-96360000D01*
X102639000Y-94280000D02*
X102639000Y-92972000D01*
X102639000Y-97668000D02*
X102639000Y-96360000D01*
X102679000Y-94280000D02*
X102679000Y-92955000D01*
X102679000Y-97685000D02*
X102679000Y-96360000D01*
X102719000Y-94280000D02*
X102719000Y-92938000D01*
X102719000Y-97702000D02*
X102719000Y-96360000D01*
X102759000Y-94280000D02*
X102759000Y-92922000D01*
X102759000Y-97718000D02*
X102759000Y-96360000D01*
X102799000Y-94280000D02*
X102799000Y-92906000D01*
X102799000Y-97734000D02*
X102799000Y-96360000D01*
X102839000Y-94280000D02*
X102839000Y-92892000D01*
X102839000Y-97748000D02*
X102839000Y-96360000D01*
X102879000Y-94280000D02*
X102879000Y-92878000D01*
X102879000Y-97762000D02*
X102879000Y-96360000D01*
X102919000Y-94280000D02*
X102919000Y-92865000D01*
X102919000Y-97775000D02*
X102919000Y-96360000D01*
X102959000Y-94280000D02*
X102959000Y-92852000D01*
X102959000Y-97788000D02*
X102959000Y-96360000D01*
X102999000Y-94280000D02*
X102999000Y-92840000D01*
X102999000Y-97800000D02*
X102999000Y-96360000D01*
X103040000Y-94280000D02*
X103040000Y-92829000D01*
X103040000Y-97811000D02*
X103040000Y-96360000D01*
X103080000Y-94280000D02*
X103080000Y-92819000D01*
X103080000Y-97821000D02*
X103080000Y-96360000D01*
X103120000Y-94280000D02*
X103120000Y-92809000D01*
X103120000Y-97831000D02*
X103120000Y-96360000D01*
X103160000Y-94280000D02*
X103160000Y-92800000D01*
X103160000Y-97840000D02*
X103160000Y-96360000D01*
X103200000Y-94280000D02*
X103200000Y-92792000D01*
X103200000Y-97848000D02*
X103200000Y-96360000D01*
X103240000Y-94280000D02*
X103240000Y-92784000D01*
X103240000Y-97856000D02*
X103240000Y-96360000D01*
X103280000Y-94280000D02*
X103280000Y-92777000D01*
X103280000Y-97863000D02*
X103280000Y-96360000D01*
X103320000Y-94280000D02*
X103320000Y-92770000D01*
X103320000Y-97870000D02*
X103320000Y-96360000D01*
X103360000Y-94280000D02*
X103360000Y-92764000D01*
X103360000Y-97876000D02*
X103360000Y-96360000D01*
X103400000Y-94280000D02*
X103400000Y-92759000D01*
X103400000Y-97881000D02*
X103400000Y-96360000D01*
X103440000Y-94280000D02*
X103440000Y-92755000D01*
X103440000Y-97885000D02*
X103440000Y-96360000D01*
X103480000Y-94280000D02*
X103480000Y-92751000D01*
X103480000Y-97889000D02*
X103480000Y-96360000D01*
X103520000Y-94280000D02*
X103520000Y-92747000D01*
X103520000Y-97893000D02*
X103520000Y-96360000D01*
X103560000Y-94280000D02*
X103560000Y-92744000D01*
X103560000Y-97896000D02*
X103560000Y-96360000D01*
X103600000Y-94280000D02*
X103600000Y-92742000D01*
X103600000Y-97898000D02*
X103600000Y-96360000D01*
X103640000Y-94280000D02*
X103640000Y-92741000D01*
X103640000Y-97899000D02*
X103640000Y-96360000D01*
X103680000Y-94280000D02*
X103680000Y-92740000D01*
X103680000Y-97900000D02*
X103680000Y-96360000D01*
X103720000Y-94280000D02*
X103720000Y-92740000D01*
X103720000Y-97900000D02*
X103720000Y-96360000D01*
X106274775Y-97045000D02*
X106274775Y-96545000D01*
X106524775Y-96795000D02*
X106024775Y-96795000D01*
X106340000Y-95320000D02*
G75*
G02*
X101100000Y-95320000I-2620000J0D01*
G01*
X101100000Y-95320000D02*
G75*
G02*
X106340000Y-95320000I2620000J0D01*
G01*
X103985000Y-113005000D02*
X103985000Y-119545000D01*
X103985000Y-119545000D02*
X106725000Y-119545000D01*
X105355000Y-112235000D02*
X105355000Y-113005000D01*
X105355000Y-120315000D02*
X105355000Y-119545000D01*
X106725000Y-113005000D02*
X103985000Y-113005000D01*
X106725000Y-119545000D02*
X106725000Y-113005000D01*
X126845000Y-113005000D02*
X126845000Y-119545000D01*
X126845000Y-119545000D02*
X129585000Y-119545000D01*
X128215000Y-112235000D02*
X128215000Y-113005000D01*
X128215000Y-120315000D02*
X128215000Y-119545000D01*
X129585000Y-113005000D02*
X126845000Y-113005000D01*
X129585000Y-119545000D02*
X129585000Y-113005000D01*
X130401000Y-85115000D02*
X133141000Y-85115000D01*
X130401000Y-92555000D02*
X130401000Y-85115000D01*
X130401000Y-92555000D02*
X133141000Y-92555000D01*
X133141000Y-92555000D02*
X133141000Y-85115000D01*
X100810000Y-122120000D02*
X103550000Y-122120000D01*
X100810000Y-129560000D02*
X100810000Y-122120000D01*
X100810000Y-129560000D02*
X103550000Y-129560000D01*
X103550000Y-129560000D02*
X103550000Y-122120000D01*
X106525000Y-84430000D02*
X106525000Y-90970000D01*
X106525000Y-90970000D02*
X109265000Y-90970000D01*
X107895000Y-83660000D02*
X107895000Y-84430000D01*
X107895000Y-91740000D02*
X107895000Y-90970000D01*
X109265000Y-84430000D02*
X106525000Y-84430000D01*
X109265000Y-90970000D02*
X109265000Y-84430000D01*
X109065000Y-84430000D02*
X109065000Y-90970000D01*
X109065000Y-90970000D02*
X111805000Y-90970000D01*
X110435000Y-83660000D02*
X110435000Y-84430000D01*
X110435000Y-91740000D02*
X110435000Y-90970000D01*
X111805000Y-84430000D02*
X109065000Y-84430000D01*
X111805000Y-90970000D02*
X111805000Y-84430000D01*
X138315000Y-111665000D02*
X138315000Y-117125000D01*
X138315000Y-119125000D02*
X138315000Y-124585000D01*
X138315000Y-124585000D02*
X173995000Y-124585000D01*
X173995000Y-111665000D02*
X138315000Y-111665000D01*
X173995000Y-124585000D02*
X173995000Y-111665000D01*
X138315000Y-117125000D02*
G75*
G02*
X138315000Y-119125000I0J-1000000D01*
G01*
X111645000Y-96885000D02*
X111645000Y-98535000D01*
X111645000Y-100535000D02*
X111645000Y-102185000D01*
X111645000Y-102185000D02*
X129545000Y-102185000D01*
X129545000Y-96885000D02*
X111645000Y-96885000D01*
X129545000Y-102185000D02*
X129545000Y-96885000D01*
X111645000Y-98535000D02*
G75*
G02*
X111645000Y-100535000I0J-1000000D01*
G01*
X106565000Y-126325000D02*
X106565000Y-127975000D01*
X106565000Y-129975000D02*
X106565000Y-131625000D01*
X106565000Y-131625000D02*
X124465000Y-131625000D01*
X124465000Y-126325000D02*
X106565000Y-126325000D01*
X124465000Y-131625000D02*
X124465000Y-126325000D01*
X106565000Y-127975000D02*
G75*
G02*
X106565000Y-129975000I0J-1000000D01*
G01*
X135935000Y-129705000D02*
X135935000Y-123165000D01*
X135935000Y-123165000D02*
X133195000Y-123165000D01*
X134565000Y-130475000D02*
X134565000Y-129705000D01*
X134565000Y-122395000D02*
X134565000Y-123165000D01*
X133195000Y-129705000D02*
X135935000Y-129705000D01*
X133195000Y-123165000D02*
X133195000Y-129705000D01*
X130655000Y-123165000D02*
X130655000Y-129705000D01*
X130655000Y-129705000D02*
X133395000Y-129705000D01*
X132025000Y-122395000D02*
X132025000Y-123165000D01*
X132025000Y-130475000D02*
X132025000Y-129705000D01*
X133395000Y-123165000D02*
X130655000Y-123165000D01*
X133395000Y-129705000D02*
X133395000Y-123165000D01*
X133870000Y-99020000D02*
X133870000Y-100670000D01*
X133870000Y-102670000D02*
X133870000Y-104320000D01*
X133870000Y-104320000D02*
X151770000Y-104320000D01*
X151770000Y-99020000D02*
X133870000Y-99020000D01*
X151770000Y-104320000D02*
X151770000Y-99020000D01*
X133870000Y-100670000D02*
G75*
G02*
X133870000Y-102670000I0J-1000000D01*
G01*
X153705000Y-97735000D02*
X153705000Y-105175000D01*
X156445000Y-97735000D02*
X153705000Y-97735000D01*
X156445000Y-97735000D02*
X156445000Y-105175000D01*
X156445000Y-105175000D02*
X153705000Y-105175000D01*
X174652000Y-115948000D02*
X174652000Y-115380000D01*
X174692000Y-116182000D02*
X174692000Y-115146000D01*
X174732000Y-116341000D02*
X174732000Y-114987000D01*
X174772000Y-116469000D02*
X174772000Y-114859000D01*
X174812000Y-116579000D02*
X174812000Y-114749000D01*
X174852000Y-116675000D02*
X174852000Y-114653000D01*
X174892000Y-116762000D02*
X174892000Y-114566000D01*
X174932000Y-116842000D02*
X174932000Y-114486000D01*
X174972000Y-116915000D02*
X174972000Y-114413000D01*
X175012000Y-116983000D02*
X175012000Y-114345000D01*
X175052000Y-117047000D02*
X175052000Y-114281000D01*
X175092000Y-117107000D02*
X175092000Y-114221000D01*
X175132000Y-117164000D02*
X175132000Y-114164000D01*
X175172000Y-117218000D02*
X175172000Y-114110000D01*
X175212000Y-117269000D02*
X175212000Y-114059000D01*
X175252000Y-114624000D02*
X175252000Y-114011000D01*
X175252000Y-117317000D02*
X175252000Y-116704000D01*
X175292000Y-114624000D02*
X175292000Y-113965000D01*
X175292000Y-117363000D02*
X175292000Y-116704000D01*
X175332000Y-114624000D02*
X175332000Y-113921000D01*
X175332000Y-117407000D02*
X175332000Y-116704000D01*
X175372000Y-114624000D02*
X175372000Y-113879000D01*
X175372000Y-117449000D02*
X175372000Y-116704000D01*
X175412000Y-114624000D02*
X175412000Y-113838000D01*
X175412000Y-117490000D02*
X175412000Y-116704000D01*
X175452000Y-114624000D02*
X175452000Y-113800000D01*
X175452000Y-117528000D02*
X175452000Y-116704000D01*
X175492000Y-114624000D02*
X175492000Y-113763000D01*
X175492000Y-117565000D02*
X175492000Y-116704000D01*
X175532000Y-114624000D02*
X175532000Y-113727000D01*
X175532000Y-117601000D02*
X175532000Y-116704000D01*
X175572000Y-114624000D02*
X175572000Y-113693000D01*
X175572000Y-117635000D02*
X175572000Y-116704000D01*
X175612000Y-114624000D02*
X175612000Y-113660000D01*
X175612000Y-117668000D02*
X175612000Y-116704000D01*
X175652000Y-114624000D02*
X175652000Y-113629000D01*
X175652000Y-117699000D02*
X175652000Y-116704000D01*
X175692000Y-114624000D02*
X175692000Y-113599000D01*
X175692000Y-117729000D02*
X175692000Y-116704000D01*
X175732000Y-114624000D02*
X175732000Y-113569000D01*
X175732000Y-117759000D02*
X175732000Y-116704000D01*
X175772000Y-114624000D02*
X175772000Y-113542000D01*
X175772000Y-117786000D02*
X175772000Y-116704000D01*
X175812000Y-114624000D02*
X175812000Y-113515000D01*
X175812000Y-117813000D02*
X175812000Y-116704000D01*
X175852000Y-114624000D02*
X175852000Y-113489000D01*
X175852000Y-117839000D02*
X175852000Y-116704000D01*
X175892000Y-114624000D02*
X175892000Y-113464000D01*
X175892000Y-117864000D02*
X175892000Y-116704000D01*
X175932000Y-114624000D02*
X175932000Y-113440000D01*
X175932000Y-117888000D02*
X175932000Y-116704000D01*
X175972000Y-114624000D02*
X175972000Y-113417000D01*
X175972000Y-117911000D02*
X175972000Y-116704000D01*
X176012000Y-114624000D02*
X176012000Y-113396000D01*
X176012000Y-117932000D02*
X176012000Y-116704000D01*
X176052000Y-114624000D02*
X176052000Y-113374000D01*
X176052000Y-117954000D02*
X176052000Y-116704000D01*
X176092000Y-114624000D02*
X176092000Y-113354000D01*
X176092000Y-117974000D02*
X176092000Y-116704000D01*
X176132000Y-114624000D02*
X176132000Y-113335000D01*
X176132000Y-117993000D02*
X176132000Y-116704000D01*
X176172000Y-114624000D02*
X176172000Y-113316000D01*
X176172000Y-118012000D02*
X176172000Y-116704000D01*
X176212000Y-114624000D02*
X176212000Y-113299000D01*
X176212000Y-118029000D02*
X176212000Y-116704000D01*
X176252000Y-114624000D02*
X176252000Y-113282000D01*
X176252000Y-118046000D02*
X176252000Y-116704000D01*
X176292000Y-114624000D02*
X176292000Y-113266000D01*
X176292000Y-118062000D02*
X176292000Y-116704000D01*
X176332000Y-114624000D02*
X176332000Y-113250000D01*
X176332000Y-118078000D02*
X176332000Y-116704000D01*
X176372000Y-114624000D02*
X176372000Y-113236000D01*
X176372000Y-118092000D02*
X176372000Y-116704000D01*
X176412000Y-114624000D02*
X176412000Y-113222000D01*
X176412000Y-118106000D02*
X176412000Y-116704000D01*
X176452000Y-114624000D02*
X176452000Y-113209000D01*
X176452000Y-118119000D02*
X176452000Y-116704000D01*
X176492000Y-114624000D02*
X176492000Y-113196000D01*
X176492000Y-118132000D02*
X176492000Y-116704000D01*
X176532000Y-114624000D02*
X176532000Y-113184000D01*
X176532000Y-118144000D02*
X176532000Y-116704000D01*
X176573000Y-114624000D02*
X176573000Y-113173000D01*
X176573000Y-118155000D02*
X176573000Y-116704000D01*
X176613000Y-114624000D02*
X176613000Y-113163000D01*
X176613000Y-118165000D02*
X176613000Y-116704000D01*
X176653000Y-114624000D02*
X176653000Y-113153000D01*
X176653000Y-118175000D02*
X176653000Y-116704000D01*
X176693000Y-114624000D02*
X176693000Y-113144000D01*
X176693000Y-118184000D02*
X176693000Y-116704000D01*
X176733000Y-114624000D02*
X176733000Y-113136000D01*
X176733000Y-118192000D02*
X176733000Y-116704000D01*
X176773000Y-114624000D02*
X176773000Y-113128000D01*
X176773000Y-118200000D02*
X176773000Y-116704000D01*
X176813000Y-114624000D02*
X176813000Y-113121000D01*
X176813000Y-118207000D02*
X176813000Y-116704000D01*
X176853000Y-114624000D02*
X176853000Y-113114000D01*
X176853000Y-118214000D02*
X176853000Y-116704000D01*
X176893000Y-114624000D02*
X176893000Y-113108000D01*
X176893000Y-118220000D02*
X176893000Y-116704000D01*
X176933000Y-114624000D02*
X176933000Y-113103000D01*
X176933000Y-118225000D02*
X176933000Y-116704000D01*
X176973000Y-114624000D02*
X176973000Y-113099000D01*
X176973000Y-118229000D02*
X176973000Y-116704000D01*
X177013000Y-114624000D02*
X177013000Y-113095000D01*
X177013000Y-118233000D02*
X177013000Y-116704000D01*
X177053000Y-114624000D02*
X177053000Y-113091000D01*
X177053000Y-118237000D02*
X177053000Y-116704000D01*
X177093000Y-114624000D02*
X177093000Y-113088000D01*
X177093000Y-118240000D02*
X177093000Y-116704000D01*
X177133000Y-114624000D02*
X177133000Y-113086000D01*
X177133000Y-118242000D02*
X177133000Y-116704000D01*
X177173000Y-114624000D02*
X177173000Y-113085000D01*
X177173000Y-118243000D02*
X177173000Y-116704000D01*
X177213000Y-114624000D02*
X177213000Y-113084000D01*
X177213000Y-118244000D02*
X177213000Y-116704000D01*
X177253000Y-114624000D02*
X177253000Y-113084000D01*
X177253000Y-118244000D02*
X177253000Y-116704000D01*
X179807775Y-117389000D02*
X179807775Y-116889000D01*
X180057775Y-117139000D02*
X179557775Y-117139000D01*
X179873000Y-115664000D02*
G75*
G02*
X174633000Y-115664000I-2620000J0D01*
G01*
X174633000Y-115664000D02*
G75*
G02*
X179873000Y-115664000I2620000J0D01*
G01*
X164815000Y-94836000D02*
X165585000Y-94836000D01*
X165585000Y-93466000D02*
X165585000Y-96206000D01*
X165585000Y-96206000D02*
X172125000Y-96206000D01*
X172125000Y-93466000D02*
X165585000Y-93466000D01*
X172125000Y-96206000D02*
X172125000Y-93466000D01*
X172895000Y-94836000D02*
X172125000Y-94836000D01*
X157365000Y-99020000D02*
X157365000Y-100670000D01*
X157365000Y-102670000D02*
X157365000Y-104320000D01*
X157365000Y-104320000D02*
X177805000Y-104320000D01*
X177805000Y-99020000D02*
X157365000Y-99020000D01*
X177805000Y-104320000D02*
X177805000Y-99020000D01*
X157365000Y-100670000D02*
G75*
G02*
X157365000Y-102670000I0J-1000000D01*
G01*
X171705000Y-106965000D02*
X171705000Y-106950000D01*
X171705000Y-109090000D02*
X171705000Y-109075000D01*
X176245000Y-106950000D02*
X171705000Y-106950000D01*
X176245000Y-106965000D02*
X176245000Y-106950000D01*
X176245000Y-109090000D02*
X171705000Y-109090000D01*
X176245000Y-109090000D02*
X176245000Y-109075000D01*
X127145000Y-126665000D02*
X127145000Y-131205000D01*
X127160000Y-126665000D02*
X127145000Y-126665000D01*
X127160000Y-131205000D02*
X127145000Y-131205000D01*
X129285000Y-126665000D02*
X129270000Y-126665000D01*
X129285000Y-126665000D02*
X129285000Y-131205000D01*
X129285000Y-131205000D02*
X129270000Y-131205000D01*
X119095000Y-106520000D02*
X119865000Y-106520000D01*
X119865000Y-105150000D02*
X119865000Y-107890000D01*
X119865000Y-107890000D02*
X126405000Y-107890000D01*
X126405000Y-105150000D02*
X119865000Y-105150000D01*
X126405000Y-107890000D02*
X126405000Y-105150000D01*
X127175000Y-106520000D02*
X126405000Y-106520000D01*
X161754749Y-93565000D02*
X161754749Y-92965000D01*
X162054749Y-93265000D02*
X161454749Y-93265000D01*
X161835000Y-91510000D02*
G75*
G02*
X155595000Y-91510000I-3120000J0D01*
G01*
X155595000Y-91510000D02*
G75*
G02*
X161835000Y-91510000I3120000J0D01*
G01*
X133870000Y-86320000D02*
X133870000Y-87970000D01*
X133870000Y-89970000D02*
X133870000Y-91620000D01*
X133870000Y-91620000D02*
X154310000Y-91620000D01*
X154310000Y-86320000D02*
X133870000Y-86320000D01*
X154310000Y-91620000D02*
X154310000Y-86320000D01*
X133870000Y-87970000D02*
G75*
G02*
X133870000Y-89970000I0J-1000000D01*
G01*
M02*
