M48
; DRILL file {KiCad 9.0.0} date 2025-03-17T23:12:24+0000
; FORMAT={-:-/ absolute / metric / decimal}
; #@! TF.CreationDate,2025-03-17T23:12:24+00:00
; #@! TF.GenerationSoftware,Kicad,Pcbnew,9.0.0
; #@! TF.FileFunction,MixedPlating,1,2
FMAT,2
METRIC
; #@! TA.AperFunction,Plated,PTH,ViaDrill
T1C0.400
; #@! TA.AperFunction,Plated,PTH,ComponentDrill
T2C0.800
; #@! TA.AperFunction,Plated,PTH,ComponentDrill
T3C0.900
; #@! TA.AperFunction,Plated,PTH,ComponentDrill
T4C1.000
; #@! TA.AperFunction,NonPlated,NPTH,ComponentDrill
T5C2.700
; #@! TA.AperFunction,NonPlated,NPTH,ComponentDrill
T6C4.000
%
G90
G05
T1
X104.763Y-127.662
X109.165Y-116.91
X112.34Y-87.7
X114.245Y-107.385
X119.325Y-116.68
X119.325Y-130.245
X120.785Y-99.59
X123.77Y-108.02
X127.965Y-101.055
X132.025Y-81.985
X139.645Y-121.99
X139.645Y-132.984
X142.185Y-121.99
X143.645Y-100.225
X144.725Y-112.356
X146.63Y-108.02
X147.9Y-121.99
X148.535Y-111.267
X151.075Y-112.807
X153.615Y-107.965
X156.028Y-132.984
X156.79Y-86.43
X156.79Y-100.551
X159.965Y-121.935
X162.505Y-121.935
X165.045Y-121.935
X170.125Y-121.935
X172.665Y-121.935
X176.983Y-100.424
T2
X102.18Y-123.34
X102.18Y-128.34
X102.72Y-95.32
X104.72Y-95.32
X105.355Y-111.195
X105.355Y-121.355
X107.895Y-82.62
X107.895Y-92.78
X107.895Y-111.195
X107.895Y-121.355
X107.895Y-125.165
X107.895Y-132.785
X109.165Y-96.415
X109.165Y-101.415
X110.435Y-82.62
X110.435Y-92.78
X110.435Y-111.195
X110.435Y-121.355
X110.435Y-125.165
X110.435Y-132.785
X112.975Y-82.62
X112.975Y-92.78
X112.975Y-95.725
X112.975Y-103.345
X112.975Y-111.195
X112.975Y-121.355
X112.975Y-125.165
X112.975Y-132.785
X115.515Y-82.62
X115.515Y-92.78
X115.515Y-95.725
X115.515Y-103.345
X115.515Y-111.195
X115.515Y-121.355
X115.515Y-125.165
X115.515Y-132.785
X118.055Y-82.62
X118.055Y-92.78
X118.055Y-95.725
X118.055Y-103.345
X118.055Y-106.52
X118.055Y-111.195
X118.055Y-121.355
X118.055Y-125.165
X118.055Y-132.785
X120.595Y-82.62
X120.595Y-92.78
X120.595Y-95.725
X120.595Y-103.345
X120.595Y-111.195
X120.595Y-121.355
X120.595Y-125.165
X120.595Y-132.785
X123.135Y-82.62
X123.135Y-92.78
X123.135Y-95.725
X123.135Y-103.345
X123.135Y-111.195
X123.135Y-121.355
X123.135Y-125.165
X123.135Y-132.785
X125.675Y-82.62
X125.675Y-92.78
X125.675Y-95.725
X125.675Y-103.345
X125.675Y-111.195
X125.675Y-121.355
X128.215Y-82.62
X128.215Y-92.78
X128.215Y-95.725
X128.215Y-103.345
X128.215Y-106.52
X128.215Y-111.195
X128.215Y-121.355
X128.215Y-126.435
X128.215Y-127.705
X128.215Y-130.245
X128.215Y-131.435
X131.771Y-86.335
X131.771Y-91.335
X131.771Y-98.955
X131.771Y-103.955
X132.025Y-108.655
X132.025Y-118.815
X132.025Y-121.355
X132.025Y-131.515
X134.565Y-108.655
X134.565Y-118.815
X134.565Y-121.355
X134.565Y-131.515
X135.2Y-85.16
X135.2Y-92.78
X135.2Y-97.86
X135.2Y-105.48
X137.74Y-85.16
X137.74Y-92.78
X137.74Y-97.86
X137.74Y-105.48
X139.645Y-110.505
X139.645Y-125.745
X140.28Y-85.16
X140.28Y-92.78
X140.28Y-97.86
X140.28Y-105.48
X142.185Y-110.505
X142.185Y-125.745
X142.82Y-85.16
X142.82Y-92.78
X142.82Y-97.86
X142.82Y-105.48
X144.725Y-110.505
X144.725Y-125.745
X145.36Y-85.16
X145.36Y-92.78
X145.36Y-97.86
X145.36Y-105.48
X147.265Y-110.505
X147.265Y-125.745
X147.9Y-85.16
X147.9Y-92.78
X147.9Y-97.86
X147.9Y-105.48
X149.805Y-110.505
X149.805Y-125.745
X150.44Y-85.16
X150.44Y-92.78
X150.44Y-97.86
X150.44Y-105.48
X152.345Y-110.505
X152.345Y-125.745
X152.98Y-85.16
X152.98Y-92.78
X154.885Y-110.505
X154.885Y-125.745
X155.075Y-98.955
X155.075Y-103.955
X157.425Y-110.505
X157.425Y-125.745
X157.465Y-91.51
X158.695Y-97.86
X158.695Y-105.48
X158.695Y-107.965
X159.965Y-91.51
X159.965Y-110.505
X159.965Y-125.745
X161.235Y-97.86
X161.235Y-105.48
X162.505Y-110.505
X162.505Y-125.745
X163.775Y-92.296
X163.775Y-94.836
X163.775Y-97.86
X163.775Y-105.48
X165.045Y-110.505
X165.045Y-125.745
X166.315Y-97.86
X166.315Y-105.48
X167.585Y-110.505
X167.585Y-125.745
X168.855Y-97.86
X168.855Y-105.48
X168.855Y-107.965
X170.125Y-110.505
X170.125Y-125.745
X171.395Y-97.86
X171.395Y-105.48
X171.475Y-108.02
X172.665Y-108.02
X172.665Y-110.505
X172.665Y-125.745
X173.935Y-92.296
X173.935Y-94.836
X173.935Y-97.86
X173.935Y-105.48
X175.205Y-108.02
X176.253Y-115.664
X176.475Y-97.86
X176.475Y-105.48
X176.475Y-108.02
X176.475Y-119.99
X176.475Y-124.99
X178.253Y-115.664
T3
X180.285Y-101.313
X180.285Y-106.139
X180.285Y-110.965
X182.825Y-101.313
X182.825Y-106.139
X182.825Y-110.965
T4
X139.645Y-128.745
X142.185Y-128.745
X144.725Y-128.745
X147.265Y-128.745
X149.805Y-128.745
X152.345Y-128.745
X154.885Y-128.745
X157.425Y-128.745
X159.965Y-128.745
X162.505Y-128.745
X165.045Y-85.565
X165.045Y-128.745
X167.585Y-85.565
X167.585Y-128.745
X170.125Y-85.565
X170.125Y-128.745
X172.665Y-85.565
X172.665Y-128.745
X175.205Y-85.565
X175.205Y-128.745
X177.745Y-128.745
X180.285Y-128.745
T5
X102.785Y-83.745
X102.785Y-132.745
X160.785Y-83.745
X160.785Y-132.745
T6
X110.165Y-105.885
X181.275Y-95.745
M30
