G04 #@! TF.GenerationSoftware,KiCad,Pcbnew,9.0.0*
G04 #@! TF.CreationDate,2025-03-17T23:12:28+00:00*
G04 #@! TF.ProjectId,EconetModuleV1,45636f6e-6574-44d6-9f64-756c6556312e,01b*
G04 #@! TF.SameCoordinates,Original*
G04 #@! TF.FileFunction,Soldermask,Top*
G04 #@! TF.FilePolarity,Negative*
%FSLAX46Y46*%
G04 Gerber Fmt 4.6, Leading zero omitted, Abs format (unit mm)*
G04 Created by KiCad (PCBNEW 9.0.0) date 2025-03-17 23:12:28*
%MOMM*%
%LPD*%
G01*
G04 APERTURE LIST*
G04 Aperture macros list*
%AMRoundRect*
0 Rectangle with rounded corners*
0 $1 Rounding radius*
0 $2 $3 $4 $5 $6 $7 $8 $9 X,Y pos of 4 corners*
0 Add a 4 corners polygon primitive as box body*
4,1,4,$2,$3,$4,$5,$6,$7,$8,$9,$2,$3,0*
0 Add four circle primitives for the rounded corners*
1,1,$1+$1,$2,$3*
1,1,$1+$1,$4,$5*
1,1,$1+$1,$6,$7*
1,1,$1+$1,$8,$9*
0 Add four rect primitives between the rounded corners*
20,1,$1+$1,$2,$3,$4,$5,0*
20,1,$1+$1,$4,$5,$6,$7,0*
20,1,$1+$1,$6,$7,$8,$9,0*
20,1,$1+$1,$8,$9,$2,$3,0*%
G04 Aperture macros list end*
%ADD10O,1.600000X1.600000*%
%ADD11C,1.600000*%
%ADD12R,1.800000X1.800000*%
%ADD13C,1.800000*%
%ADD14R,1.600000X1.600000*%
%ADD15C,6.000000*%
%ADD16C,4.000000*%
%ADD17RoundRect,0.250000X0.550000X-0.550000X0.550000X0.550000X-0.550000X0.550000X-0.550000X-0.550000X0*%
%ADD18R,1.700000X1.700000*%
%ADD19O,1.700000X1.700000*%
G04 APERTURE END LIST*
D10*
X163775000Y-92296000D03*
D11*
X173935000Y-92296000D03*
X132025000Y-118815000D03*
D10*
X132025000Y-108655000D03*
D11*
X134565000Y-118815000D03*
D10*
X134565000Y-108655000D03*
D12*
X180285000Y-101313000D03*
D13*
X182825000Y-101313000D03*
D12*
X180285000Y-110965000D03*
D13*
X182825000Y-110965000D03*
D12*
X180285000Y-106139000D03*
D13*
X182825000Y-106139000D03*
D11*
X125675000Y-121355000D03*
D10*
X125675000Y-111195000D03*
D11*
X158695000Y-107965000D03*
D10*
X168855000Y-107965000D03*
D11*
X112975000Y-92780000D03*
D10*
X112975000Y-82620000D03*
D11*
X118055000Y-111195000D03*
D10*
X118055000Y-121355000D03*
D11*
X120595000Y-111195000D03*
D10*
X120595000Y-121355000D03*
D11*
X123135000Y-111195000D03*
D10*
X123135000Y-121355000D03*
D11*
X115515000Y-111195000D03*
D10*
X115515000Y-121355000D03*
D11*
X112975000Y-111195000D03*
D10*
X112975000Y-121355000D03*
D11*
X128215000Y-82620000D03*
D10*
X128215000Y-92780000D03*
D11*
X125675000Y-82620000D03*
D10*
X125675000Y-92780000D03*
D11*
X120595000Y-82620000D03*
D10*
X120595000Y-92780000D03*
D11*
X123135000Y-82620000D03*
D10*
X123135000Y-92780000D03*
D11*
X118055000Y-82620000D03*
D10*
X118055000Y-92780000D03*
D11*
X110435000Y-111195000D03*
D10*
X110435000Y-121355000D03*
D11*
X115515000Y-82620000D03*
D10*
X115515000Y-92780000D03*
D11*
X107895000Y-111195000D03*
D10*
X107895000Y-121355000D03*
D11*
X176475000Y-124990000D03*
X176475000Y-119990000D03*
X109165000Y-96415000D03*
X109165000Y-101415000D03*
X131771000Y-98955000D03*
X131771000Y-103955000D03*
D14*
X104720000Y-95320000D03*
D11*
X102720000Y-95320000D03*
D15*
X102785000Y-83745000D03*
D11*
X105355000Y-121355000D03*
D10*
X105355000Y-111195000D03*
D11*
X128215000Y-121355000D03*
D10*
X128215000Y-111195000D03*
D15*
X102785000Y-132745000D03*
X160785000Y-132745000D03*
D16*
X110165000Y-105885000D03*
X181275000Y-95745000D03*
D15*
X160785000Y-83745000D03*
D11*
X131771000Y-91335000D03*
X131771000Y-86335000D03*
X102180000Y-128340000D03*
X102180000Y-123340000D03*
X107895000Y-82620000D03*
D10*
X107895000Y-92780000D03*
D11*
X110435000Y-82620000D03*
D10*
X110435000Y-92780000D03*
D17*
X139645000Y-125745000D03*
D11*
X142185000Y-125745000D03*
X144725000Y-125745000D03*
X147265000Y-125745000D03*
X149805000Y-125745000D03*
X152345000Y-125745000D03*
X154885000Y-125745000D03*
X157425000Y-125745000D03*
X159965000Y-125745000D03*
X162505000Y-125745000D03*
X165045000Y-125745000D03*
X167585000Y-125745000D03*
X170125000Y-125745000D03*
X172665000Y-125745000D03*
X172665000Y-110505000D03*
X170125000Y-110505000D03*
X167585000Y-110505000D03*
X165045000Y-110505000D03*
X162505000Y-110505000D03*
X159965000Y-110505000D03*
X157425000Y-110505000D03*
X154885000Y-110505000D03*
X152345000Y-110505000D03*
X149805000Y-110505000D03*
X147265000Y-110505000D03*
X144725000Y-110505000D03*
X142185000Y-110505000D03*
X139645000Y-110505000D03*
D17*
X112975000Y-103345000D03*
D11*
X115515000Y-103345000D03*
X118055000Y-103345000D03*
X120595000Y-103345000D03*
X123135000Y-103345000D03*
X125675000Y-103345000D03*
X128215000Y-103345000D03*
X128215000Y-95725000D03*
X125675000Y-95725000D03*
X123135000Y-95725000D03*
X120595000Y-95725000D03*
X118055000Y-95725000D03*
X115515000Y-95725000D03*
X112975000Y-95725000D03*
D17*
X107895000Y-132785000D03*
D11*
X110435000Y-132785000D03*
X112975000Y-132785000D03*
X115515000Y-132785000D03*
X118055000Y-132785000D03*
X120595000Y-132785000D03*
X123135000Y-132785000D03*
X123135000Y-125165000D03*
X120595000Y-125165000D03*
X118055000Y-125165000D03*
X115515000Y-125165000D03*
X112975000Y-125165000D03*
X110435000Y-125165000D03*
X107895000Y-125165000D03*
D10*
X134565000Y-131515000D03*
D11*
X134565000Y-121355000D03*
X132025000Y-121355000D03*
D10*
X132025000Y-131515000D03*
D17*
X135200000Y-105480000D03*
D11*
X137740000Y-105480000D03*
X140280000Y-105480000D03*
X142820000Y-105480000D03*
X145360000Y-105480000D03*
X147900000Y-105480000D03*
X150440000Y-105480000D03*
X150440000Y-97860000D03*
X147900000Y-97860000D03*
X145360000Y-97860000D03*
X142820000Y-97860000D03*
X140280000Y-97860000D03*
X137740000Y-97860000D03*
X135200000Y-97860000D03*
X155075000Y-98955000D03*
X155075000Y-103955000D03*
D14*
X178253000Y-115664000D03*
D11*
X176253000Y-115664000D03*
X163775000Y-94836000D03*
D10*
X173935000Y-94836000D03*
D17*
X158695000Y-105480000D03*
D11*
X161235000Y-105480000D03*
X163775000Y-105480000D03*
X166315000Y-105480000D03*
X168855000Y-105480000D03*
X171395000Y-105480000D03*
X173935000Y-105480000D03*
X176475000Y-105480000D03*
X176475000Y-97860000D03*
X173935000Y-97860000D03*
X171395000Y-97860000D03*
X168855000Y-97860000D03*
X166315000Y-97860000D03*
X163775000Y-97860000D03*
X161235000Y-97860000D03*
X158695000Y-97860000D03*
X176475000Y-108020000D03*
X175205000Y-108020000D03*
X172665000Y-108020000D03*
X171475000Y-108020000D03*
X128215000Y-126435000D03*
X128215000Y-127705000D03*
X128215000Y-130245000D03*
X128215000Y-131435000D03*
X118055000Y-106520000D03*
D10*
X128215000Y-106520000D03*
D14*
X159965000Y-91510000D03*
D11*
X157465000Y-91510000D03*
D17*
X135200000Y-92780000D03*
D11*
X137740000Y-92780000D03*
X140280000Y-92780000D03*
X142820000Y-92780000D03*
X145360000Y-92780000D03*
X147900000Y-92780000D03*
X150440000Y-92780000D03*
X152980000Y-92780000D03*
X152980000Y-85160000D03*
X150440000Y-85160000D03*
X147900000Y-85160000D03*
X145360000Y-85160000D03*
X142820000Y-85160000D03*
X140280000Y-85160000D03*
X137740000Y-85160000D03*
X135200000Y-85160000D03*
D18*
X165045000Y-85565000D03*
D19*
X167585000Y-85565000D03*
X170125000Y-85565000D03*
X172665000Y-85565000D03*
X175205000Y-85565000D03*
D18*
X139645000Y-128745000D03*
D19*
X142185000Y-128745000D03*
X144725000Y-128745000D03*
X147265000Y-128745000D03*
X149805000Y-128745000D03*
X152345000Y-128745000D03*
X154885000Y-128745000D03*
X157425000Y-128745000D03*
X159965000Y-128745000D03*
X162505000Y-128745000D03*
X165045000Y-128745000D03*
X167585000Y-128745000D03*
X170125000Y-128745000D03*
X172665000Y-128745000D03*
X175205000Y-128745000D03*
X177745000Y-128745000D03*
X180285000Y-128745000D03*
M02*
