G04 #@! TF.GenerationSoftware,KiCad,Pcbnew,9.0.0*
G04 #@! TF.CreationDate,2025-03-17T23:12:28+00:00*
G04 #@! TF.ProjectId,EconetModuleV1,45636f6e-6574-44d6-9f64-756c6556312e,01b*
G04 #@! TF.SameCoordinates,Original*
G04 #@! TF.FileFunction,Legend,Bot*
G04 #@! TF.FilePolarity,Positive*
%FSLAX46Y46*%
G04 Gerber Fmt 4.6, Leading zero omitted, Abs format (unit mm)*
G04 Created by KiCad (PCBNEW 9.0.0) date 2025-03-17 23:12:28*
%MOMM*%
%LPD*%
G01*
G04 APERTURE LIST*
%ADD10C,0.120000*%
%ADD11C,0.150000*%
G04 APERTURE END LIST*
D10*
X149615000Y-115474000D02*
X157615000Y-115474000D01*
X157615000Y-123474000D01*
X149615000Y-123474000D01*
X149615000Y-115474000D01*
G36*
X149615000Y-115474000D02*
G01*
X157615000Y-115474000D01*
X157615000Y-123474000D01*
X149615000Y-123474000D01*
X149615000Y-115474000D01*
G37*
D11*
X178078333Y-85019819D02*
X178078333Y-85734104D01*
X178078333Y-85734104D02*
X178125952Y-85876961D01*
X178125952Y-85876961D02*
X178221190Y-85972200D01*
X178221190Y-85972200D02*
X178364047Y-86019819D01*
X178364047Y-86019819D02*
X178459285Y-86019819D01*
X177649761Y-85115057D02*
X177602142Y-85067438D01*
X177602142Y-85067438D02*
X177506904Y-85019819D01*
X177506904Y-85019819D02*
X177268809Y-85019819D01*
X177268809Y-85019819D02*
X177173571Y-85067438D01*
X177173571Y-85067438D02*
X177125952Y-85115057D01*
X177125952Y-85115057D02*
X177078333Y-85210295D01*
X177078333Y-85210295D02*
X177078333Y-85305533D01*
X177078333Y-85305533D02*
X177125952Y-85448390D01*
X177125952Y-85448390D02*
X177697380Y-86019819D01*
X177697380Y-86019819D02*
X177078333Y-86019819D01*
X137648333Y-128199819D02*
X137648333Y-128914104D01*
X137648333Y-128914104D02*
X137695952Y-129056961D01*
X137695952Y-129056961D02*
X137791190Y-129152200D01*
X137791190Y-129152200D02*
X137934047Y-129199819D01*
X137934047Y-129199819D02*
X138029285Y-129199819D01*
X136648333Y-129199819D02*
X137219761Y-129199819D01*
X136934047Y-129199819D02*
X136934047Y-128199819D01*
X136934047Y-128199819D02*
X137029285Y-128342676D01*
X137029285Y-128342676D02*
X137124523Y-128437914D01*
X137124523Y-128437914D02*
X137219761Y-128485533D01*
D10*
X163715000Y-84235000D02*
X163715000Y-85565000D01*
X165045000Y-84235000D02*
X163715000Y-84235000D01*
X166315000Y-84235000D02*
X166315000Y-86895000D01*
X166315000Y-84235000D02*
X176535000Y-84235000D01*
X166315000Y-86895000D02*
X176535000Y-86895000D01*
X176535000Y-84235000D02*
X176535000Y-86895000D01*
X138315000Y-127415000D02*
X138315000Y-128745000D01*
X139645000Y-127415000D02*
X138315000Y-127415000D01*
X140915000Y-127415000D02*
X140915000Y-130075000D01*
X140915000Y-127415000D02*
X181615000Y-127415000D01*
X140915000Y-130075000D02*
X181615000Y-130075000D01*
X181615000Y-127415000D02*
X181615000Y-130075000D01*
M02*
